# QubeKit parametric part (generated)
v -28.00000 -4.00000 -4.00000
v -28.00000 -4.00000 4.00000
v -28.00000 4.00000 -4.00000
v -28.00000 4.00000 4.00000
v 28.00000 -4.00000 -4.00000
v 28.00000 -4.00000 4.00000
v 28.00000 4.00000 -4.00000
v 28.00000 4.00000 4.00000
vn 1.0000 0.0000 0.0000
vn 1.0000 0.0000 0.0000
vn -1.0000 0.0000 0.0000
vn -1.0000 0.0000 0.0000
vn 0.0000 1.0000 0.0000
vn 0.0000 1.0000 0.0000
vn 0.0000 -1.0000 0.0000
vn 0.0000 -1.0000 0.0000
vn 0.0000 0.0000 1.0000
vn 0.0000 0.0000 1.0000
vn 0.0000 0.0000 -1.0000
vn 0.0000 0.0000 -1.0000
f 1//1 3//1 4//1
f 1//2 4//2 2//2
f 5//3 6//3 8//3
f 5//4 8//4 7//4
f 1//5 2//5 6//5
f 1//6 6//6 5//6
f 3//7 7//7 8//7
f 3//8 8//8 4//8
f 1//9 5//9 7//9
f 1//10 7//10 3//10
f 2//11 4//11 8//11
f 2//12 8//12 6//12
