# QubeKit parametric part (generated)
v 2.00000 0.00000 16.00000
v 1.94986 0.44504 16.00000
v 1.80194 0.86777 16.00000
v 1.56366 1.24698 16.00000
v 1.24698 1.56366 16.00000
v 0.86777 1.80194 16.00000
v 0.44504 1.94986 16.00000
v 0.00000 2.00000 16.00000
v -0.44504 1.94986 16.00000
v -0.86777 1.80194 16.00000
v -1.24698 1.56366 16.00000
v -1.56366 1.24698 16.00000
v -1.80194 0.86777 16.00000
v -1.94986 0.44504 16.00000
v -2.00000 0.00000 16.00000
v -1.94986 -0.44504 16.00000
v -1.80194 -0.86777 16.00000
v -1.56366 -1.24698 16.00000
v -1.24698 -1.56366 16.00000
v -0.86777 -1.80194 16.00000
v -0.44504 -1.94986 16.00000
v -0.00000 -2.00000 16.00000
v 0.44504 -1.94986 16.00000
v 0.86777 -1.80194 16.00000
v 1.24698 -1.56366 16.00000
v 1.56366 -1.24698 16.00000
v 1.80194 -0.86777 16.00000
v 1.94986 -0.44504 16.00000
v 2.00000 0.00000 -16.00000
v 1.94986 0.44504 -16.00000
v 1.80194 0.86777 -16.00000
v 1.56366 1.24698 -16.00000
v 1.24698 1.56366 -16.00000
v 0.86777 1.80194 -16.00000
v 0.44504 1.94986 -16.00000
v 0.00000 2.00000 -16.00000
v -0.44504 1.94986 -16.00000
v -0.86777 1.80194 -16.00000
v -1.24698 1.56366 -16.00000
v -1.56366 1.24698 -16.00000
v -1.80194 0.86777 -16.00000
v -1.94986 0.44504 -16.00000
v -2.00000 0.00000 -16.00000
v -1.94986 -0.44504 -16.00000
v -1.80194 -0.86777 -16.00000
v -1.56366 -1.24698 -16.00000
v -1.24698 -1.56366 -16.00000
v -0.86777 -1.80194 -16.00000
v -0.44504 -1.94986 -16.00000
v -0.00000 -2.00000 -16.00000
v 0.44504 -1.94986 -16.00000
v 0.86777 -1.80194 -16.00000
v 1.24698 -1.56366 -16.00000
v 1.56366 -1.24698 -16.00000
v 1.80194 -0.86777 -16.00000
v 1.94986 -0.44504 -16.00000
v 0.00000 0.00000 16.00000
v 0.00000 0.00000 -16.00000
vn 0.0000 0.0000 1.0000
vn 0.0000 0.0000 -1.0000
vn 0.9937 0.1120 0.0000
vn 0.9937 0.1120 -0.0000
vn 0.0000 0.0000 1.0000
vn 0.0000 0.0000 -1.0000
vn 0.9439 0.3303 0.0000
vn 0.9439 0.3303 -0.0000
vn 0.0000 0.0000 1.0000
vn 0.0000 0.0000 -1.0000
vn 0.8467 0.5320 0.0000
vn 0.8467 0.5320 -0.0000
vn 0.0000 0.0000 1.0000
vn 0.0000 0.0000 -1.0000
vn 0.7071 0.7071 0.0000
vn 0.7071 0.7071 -0.0000
vn 0.0000 0.0000 1.0000
vn 0.0000 0.0000 -1.0000
vn 0.5320 0.8467 0.0000
vn 0.5320 0.8467 -0.0000
vn 0.0000 0.0000 1.0000
vn 0.0000 0.0000 -1.0000
vn 0.3303 0.9439 0.0000
vn 0.3303 0.9439 -0.0000
vn 0.0000 0.0000 1.0000
vn 0.0000 0.0000 -1.0000
vn 0.1120 0.9937 0.0000
vn 0.1120 0.9937 -0.0000
vn 0.0000 -0.0000 1.0000
vn 0.0000 0.0000 -1.0000
vn -0.1120 0.9937 0.0000
vn -0.1120 0.9937 0.0000
vn 0.0000 0.0000 1.0000
vn 0.0000 0.0000 -1.0000
vn -0.3303 0.9439 0.0000
vn -0.3303 0.9439 0.0000
vn 0.0000 0.0000 1.0000
vn 0.0000 0.0000 -1.0000
vn -0.5320 0.8467 0.0000
vn -0.5320 0.8467 0.0000
vn 0.0000 0.0000 1.0000
vn 0.0000 0.0000 -1.0000
vn -0.7071 0.7071 0.0000
vn -0.7071 0.7071 0.0000
vn 0.0000 0.0000 1.0000
vn 0.0000 0.0000 -1.0000
vn -0.8467 0.5320 0.0000
vn -0.8467 0.5320 0.0000
vn 0.0000 0.0000 1.0000
vn 0.0000 0.0000 -1.0000
vn -0.9439 0.3303 0.0000
vn -0.9439 0.3303 0.0000
vn 0.0000 0.0000 1.0000
vn 0.0000 0.0000 -1.0000
vn -0.9937 0.1120 0.0000
vn -0.9937 0.1120 0.0000
vn 0.0000 0.0000 1.0000
vn -0.0000 0.0000 -1.0000
vn -0.9937 -0.1120 0.0000
vn -0.9937 -0.1120 0.0000
vn 0.0000 0.0000 1.0000
vn 0.0000 0.0000 -1.0000
vn -0.9439 -0.3303 0.0000
vn -0.9439 -0.3303 0.0000
vn 0.0000 0.0000 1.0000
vn 0.0000 0.0000 -1.0000
vn -0.8467 -0.5320 0.0000
vn -0.8467 -0.5320 0.0000
vn 0.0000 0.0000 1.0000
vn 0.0000 0.0000 -1.0000
vn -0.7071 -0.7071 0.0000
vn -0.7071 -0.7071 0.0000
vn 0.0000 0.0000 1.0000
vn 0.0000 0.0000 -1.0000
vn -0.5320 -0.8467 0.0000
vn -0.5320 -0.8467 0.0000
vn 0.0000 0.0000 1.0000
vn 0.0000 0.0000 -1.0000
vn -0.3303 -0.9439 0.0000
vn -0.3303 -0.9439 0.0000
vn 0.0000 0.0000 1.0000
vn 0.0000 0.0000 -1.0000
vn -0.1120 -0.9937 0.0000
vn -0.1120 -0.9937 0.0000
vn 0.0000 0.0000 1.0000
vn 0.0000 -0.0000 -1.0000
vn 0.1120 -0.9937 0.0000
vn 0.1120 -0.9937 0.0000
vn 0.0000 0.0000 1.0000
vn 0.0000 0.0000 -1.0000
vn 0.3303 -0.9439 0.0000
vn 0.3303 -0.9439 0.0000
vn 0.0000 0.0000 1.0000
vn 0.0000 0.0000 -1.0000
vn 0.5320 -0.8467 0.0000
vn 0.5320 -0.8467 0.0000
vn 0.0000 0.0000 1.0000
vn 0.0000 0.0000 -1.0000
vn 0.7071 -0.7071 0.0000
vn 0.7071 -0.7071 0.0000
vn 0.0000 0.0000 1.0000
vn 0.0000 0.0000 -1.0000
vn 0.8467 -0.5320 0.0000
vn 0.8467 -0.5320 0.0000
vn 0.0000 0.0000 1.0000
vn 0.0000 0.0000 -1.0000
vn 0.9439 -0.3303 0.0000
vn 0.9439 -0.3303 0.0000
vn -0.0000 0.0000 1.0000
vn 0.0000 0.0000 -1.0000
vn 0.9937 -0.1120 0.0000
vn 0.9937 -0.1120 0.0000
f 57//1 1//1 2//1
f 58//2 30//2 29//2
f 29//3 30//3 2//3
f 29//4 2//4 1//4
f 57//5 2//5 3//5
f 58//6 31//6 30//6
f 30//7 31//7 3//7
f 30//8 3//8 2//8
f 57//9 3//9 4//9
f 58//10 32//10 31//10
f 31//11 32//11 4//11
f 31//12 4//12 3//12
f 57//13 4//13 5//13
f 58//14 33//14 32//14
f 32//15 33//15 5//15
f 32//16 5//16 4//16
f 57//17 5//17 6//17
f 58//18 34//18 33//18
f 33//19 34//19 6//19
f 33//20 6//20 5//20
f 57//21 6//21 7//21
f 58//22 35//22 34//22
f 34//23 35//23 7//23
f 34//24 7//24 6//24
f 57//25 7//25 8//25
f 58//26 36//26 35//26
f 35//27 36//27 8//27
f 35//28 8//28 7//28
f 57//29 8//29 9//29
f 58//30 37//30 36//30
f 36//31 37//31 9//31
f 36//32 9//32 8//32
f 57//33 9//33 10//33
f 58//34 38//34 37//34
f 37//35 38//35 10//35
f 37//36 10//36 9//36
f 57//37 10//37 11//37
f 58//38 39//38 38//38
f 38//39 39//39 11//39
f 38//40 11//40 10//40
f 57//41 11//41 12//41
f 58//42 40//42 39//42
f 39//43 40//43 12//43
f 39//44 12//44 11//44
f 57//45 12//45 13//45
f 58//46 41//46 40//46
f 40//47 41//47 13//47
f 40//48 13//48 12//48
f 57//49 13//49 14//49
f 58//50 42//50 41//50
f 41//51 42//51 14//51
f 41//52 14//52 13//52
f 57//53 14//53 15//53
f 58//54 43//54 42//54
f 42//55 43//55 15//55
f 42//56 15//56 14//56
f 57//57 15//57 16//57
f 58//58 44//58 43//58
f 43//59 44//59 16//59
f 43//60 16//60 15//60
f 57//61 16//61 17//61
f 58//62 45//62 44//62
f 44//63 45//63 17//63
f 44//64 17//64 16//64
f 57//65 17//65 18//65
f 58//66 46//66 45//66
f 45//67 46//67 18//67
f 45//68 18//68 17//68
f 57//69 18//69 19//69
f 58//70 47//70 46//70
f 46//71 47//71 19//71
f 46//72 19//72 18//72
f 57//73 19//73 20//73
f 58//74 48//74 47//74
f 47//75 48//75 20//75
f 47//76 20//76 19//76
f 57//77 20//77 21//77
f 58//78 49//78 48//78
f 48//79 49//79 21//79
f 48//80 21//80 20//80
f 57//81 21//81 22//81
f 58//82 50//82 49//82
f 49//83 50//83 22//83
f 49//84 22//84 21//84
f 57//85 22//85 23//85
f 58//86 51//86 50//86
f 50//87 51//87 23//87
f 50//88 23//88 22//88
f 57//89 23//89 24//89
f 58//90 52//90 51//90
f 51//91 52//91 24//91
f 51//92 24//92 23//92
f 57//93 24//93 25//93
f 58//94 53//94 52//94
f 52//95 53//95 25//95
f 52//96 25//96 24//96
f 57//97 25//97 26//97
f 58//98 54//98 53//98
f 53//99 54//99 26//99
f 53//100 26//100 25//100
f 57//101 26//101 27//101
f 58//102 55//102 54//102
f 54//103 55//103 27//103
f 54//104 27//104 26//104
f 57//105 27//105 28//105
f 58//106 56//106 55//106
f 55//107 56//107 28//107
f 55//108 28//108 27//108
f 57//109 28//109 1//109
f 58//110 29//110 56//110
f 56//111 29//111 1//111
f 56//112 1//112 28//112
