# QubeKit parametric part (generated)
v 0.33600 0.00000 0.06000
v 0.33528 0.02198 0.06000
v 0.33313 0.04386 0.06000
v 0.32954 0.06555 0.06000
v 0.26660 0.07143 0.06000
v 0.26135 0.08872 0.06000
v 0.25499 0.10562 0.06000
v 0.24754 0.12207 0.06000
v 0.29098 0.16800 0.06000
v 0.27937 0.18667 0.06000
v 0.26657 0.20454 0.06000
v 0.25262 0.22154 0.06000
v 0.19516 0.19516 0.06000
v 0.18198 0.20751 0.06000
v 0.16802 0.21897 0.06000
v 0.15334 0.22949 0.06000
v 0.16800 0.29098 0.06000
v 0.14861 0.30135 0.06000
v 0.12858 0.31042 0.06000
v 0.10800 0.31817 0.06000
v 0.07143 0.26660 0.06000
v 0.05384 0.27070 0.06000
v 0.03603 0.27364 0.06000
v 0.01805 0.27541 0.06000
v 0.00000 0.33600 0.06000
v -0.02198 0.33528 0.06000
v -0.04386 0.33313 0.06000
v -0.06555 0.32954 0.06000
v -0.07143 0.26660 0.06000
v -0.08872 0.26135 0.06000
v -0.10562 0.25499 0.06000
v -0.12207 0.24754 0.06000
v -0.16800 0.29098 0.06000
v -0.18667 0.27937 0.06000
v -0.20454 0.26657 0.06000
v -0.22154 0.25262 0.06000
v -0.19516 0.19516 0.06000
v -0.20751 0.18198 0.06000
v -0.21897 0.16802 0.06000
v -0.22949 0.15334 0.06000
v -0.29098 0.16800 0.06000
v -0.30135 0.14861 0.06000
v -0.31042 0.12858 0.06000
v -0.31817 0.10800 0.06000
v -0.26660 0.07143 0.06000
v -0.27070 0.05384 0.06000
v -0.27364 0.03603 0.06000
v -0.27541 0.01805 0.06000
v -0.33600 0.00000 0.06000
v -0.33528 -0.02198 0.06000
v -0.33313 -0.04386 0.06000
v -0.32954 -0.06555 0.06000
v -0.26660 -0.07143 0.06000
v -0.26135 -0.08872 0.06000
v -0.25499 -0.10562 0.06000
v -0.24754 -0.12207 0.06000
v -0.29098 -0.16800 0.06000
v -0.27937 -0.18667 0.06000
v -0.26657 -0.20454 0.06000
v -0.25262 -0.22154 0.06000
v -0.19516 -0.19516 0.06000
v -0.18198 -0.20751 0.06000
v -0.16802 -0.21897 0.06000
v -0.15334 -0.22949 0.06000
v -0.16800 -0.29098 0.06000
v -0.14861 -0.30135 0.06000
v -0.12858 -0.31042 0.06000
v -0.10800 -0.31817 0.06000
v -0.07143 -0.26660 0.06000
v -0.05384 -0.27070 0.06000
v -0.03603 -0.27364 0.06000
v -0.01805 -0.27541 0.06000
v -0.00000 -0.33600 0.06000
v 0.02198 -0.33528 0.06000
v 0.04386 -0.33313 0.06000
v 0.06555 -0.32954 0.06000
v 0.07143 -0.26660 0.06000
v 0.08872 -0.26135 0.06000
v 0.10562 -0.25499 0.06000
v 0.12207 -0.24754 0.06000
v 0.16800 -0.29098 0.06000
v 0.18667 -0.27937 0.06000
v 0.20454 -0.26657 0.06000
v 0.22154 -0.25262 0.06000
v 0.19516 -0.19516 0.06000
v 0.20751 -0.18198 0.06000
v 0.21897 -0.16802 0.06000
v 0.22949 -0.15334 0.06000
v 0.29098 -0.16800 0.06000
v 0.30135 -0.14861 0.06000
v 0.31042 -0.12858 0.06000
v 0.31817 -0.10800 0.06000
v 0.26660 -0.07143 0.06000
v 0.27070 -0.05384 0.06000
v 0.27364 -0.03603 0.06000
v 0.27541 -0.01805 0.06000
v 0.33600 0.00000 -0.06000
v 0.33528 0.02198 -0.06000
v 0.33313 0.04386 -0.06000
v 0.32954 0.06555 -0.06000
v 0.26660 0.07143 -0.06000
v 0.26135 0.08872 -0.06000
v 0.25499 0.10562 -0.06000
v 0.24754 0.12207 -0.06000
v 0.29098 0.16800 -0.06000
v 0.27937 0.18667 -0.06000
v 0.26657 0.20454 -0.06000
v 0.25262 0.22154 -0.06000
v 0.19516 0.19516 -0.06000
v 0.18198 0.20751 -0.06000
v 0.16802 0.21897 -0.06000
v 0.15334 0.22949 -0.06000
v 0.16800 0.29098 -0.06000
v 0.14861 0.30135 -0.06000
v 0.12858 0.31042 -0.06000
v 0.10800 0.31817 -0.06000
v 0.07143 0.26660 -0.06000
v 0.05384 0.27070 -0.06000
v 0.03603 0.27364 -0.06000
v 0.01805 0.27541 -0.06000
v 0.00000 0.33600 -0.06000
v -0.02198 0.33528 -0.06000
v -0.04386 0.33313 -0.06000
v -0.06555 0.32954 -0.06000
v -0.07143 0.26660 -0.06000
v -0.08872 0.26135 -0.06000
v -0.10562 0.25499 -0.06000
v -0.12207 0.24754 -0.06000
v -0.16800 0.29098 -0.06000
v -0.18667 0.27937 -0.06000
v -0.20454 0.26657 -0.06000
v -0.22154 0.25262 -0.06000
v -0.19516 0.19516 -0.06000
v -0.20751 0.18198 -0.06000
v -0.21897 0.16802 -0.06000
v -0.22949 0.15334 -0.06000
v -0.29098 0.16800 -0.06000
v -0.30135 0.14861 -0.06000
v -0.31042 0.12858 -0.06000
v -0.31817 0.10800 -0.06000
v -0.26660 0.07143 -0.06000
v -0.27070 0.05384 -0.06000
v -0.27364 0.03603 -0.06000
v -0.27541 0.01805 -0.06000
v -0.33600 0.00000 -0.06000
v -0.33528 -0.02198 -0.06000
v -0.33313 -0.04386 -0.06000
v -0.32954 -0.06555 -0.06000
v -0.26660 -0.07143 -0.06000
v -0.26135 -0.08872 -0.06000
v -0.25499 -0.10562 -0.06000
v -0.24754 -0.12207 -0.06000
v -0.29098 -0.16800 -0.06000
v -0.27937 -0.18667 -0.06000
v -0.26657 -0.20454 -0.06000
v -0.25262 -0.22154 -0.06000
v -0.19516 -0.19516 -0.06000
v -0.18198 -0.20751 -0.06000
v -0.16802 -0.21897 -0.06000
v -0.15334 -0.22949 -0.06000
v -0.16800 -0.29098 -0.06000
v -0.14861 -0.30135 -0.06000
v -0.12858 -0.31042 -0.06000
v -0.10800 -0.31817 -0.06000
v -0.07143 -0.26660 -0.06000
v -0.05384 -0.27070 -0.06000
v -0.03603 -0.27364 -0.06000
v -0.01805 -0.27541 -0.06000
v -0.00000 -0.33600 -0.06000
v 0.02198 -0.33528 -0.06000
v 0.04386 -0.33313 -0.06000
v 0.06555 -0.32954 -0.06000
v 0.07143 -0.26660 -0.06000
v 0.08872 -0.26135 -0.06000
v 0.10562 -0.25499 -0.06000
v 0.12207 -0.24754 -0.06000
v 0.16800 -0.29098 -0.06000
v 0.18667 -0.27937 -0.06000
v 0.20454 -0.26657 -0.06000
v 0.22154 -0.25262 -0.06000
v 0.19516 -0.19516 -0.06000
v 0.20751 -0.18198 -0.06000
v 0.21897 -0.16802 -0.06000
v 0.22949 -0.15334 -0.06000
v 0.29098 -0.16800 -0.06000
v 0.30135 -0.14861 -0.06000
v 0.31042 -0.12858 -0.06000
v 0.31817 -0.10800 -0.06000
v 0.26660 -0.07143 -0.06000
v 0.27070 -0.05384 -0.06000
v 0.27364 -0.03603 -0.06000
v 0.27541 -0.01805 -0.06000
v 0.00000 0.00000 0.06000
v 0.00000 0.00000 -0.06000
v 0.34000 0.00000 0.10800
v 0.32841 0.08800 0.10800
v 0.29445 0.17000 0.10800
v 0.24042 0.24042 0.10800
v 0.17000 0.29445 0.10800
v 0.08800 0.32841 0.10800
v 0.00000 0.34000 0.10800
v -0.08800 0.32841 0.10800
v -0.17000 0.29445 0.10800
v -0.24042 0.24042 0.10800
v -0.29445 0.17000 0.10800
v -0.32841 0.08800 0.10800
v -0.34000 0.00000 0.10800
v -0.32841 -0.08800 0.10800
v -0.29445 -0.17000 0.10800
v -0.24042 -0.24042 0.10800
v -0.17000 -0.29445 0.10800
v -0.08800 -0.32841 0.10800
v -0.00000 -0.34000 0.10800
v 0.08800 -0.32841 0.10800
v 0.17000 -0.29445 0.10800
v 0.24042 -0.24042 0.10800
v 0.29445 -0.17000 0.10800
v 0.32841 -0.08800 0.10800
v 0.34000 0.00000 0.06000
v 0.32841 0.08800 0.06000
v 0.29445 0.17000 0.06000
v 0.24042 0.24042 0.06000
v 0.17000 0.29445 0.06000
v 0.08800 0.32841 0.06000
v 0.00000 0.34000 0.06000
v -0.08800 0.32841 0.06000
v -0.17000 0.29445 0.06000
v -0.24042 0.24042 0.06000
v -0.29445 0.17000 0.06000
v -0.32841 0.08800 0.06000
v -0.34000 0.00000 0.06000
v -0.32841 -0.08800 0.06000
v -0.29445 -0.17000 0.06000
v -0.24042 -0.24042 0.06000
v -0.17000 -0.29445 0.06000
v -0.08800 -0.32841 0.06000
v -0.00000 -0.34000 0.06000
v 0.08800 -0.32841 0.06000
v 0.17000 -0.29445 0.06000
v 0.24042 -0.24042 0.06000
v 0.29445 -0.17000 0.06000
v 0.32841 -0.08800 0.06000
v 0.00000 0.00000 0.10800
vn 0.0000 0.0000 1.0000
vn 0.0000 0.0000 -1.0000
vn 0.9995 0.0327 0.0000
vn 0.9995 0.0327 -0.0000
vn 0.0000 0.0000 1.0000
vn 0.0000 0.0000 -1.0000
vn 0.9952 0.0980 0.0000
vn 0.9952 0.0980 -0.0000
vn 0.0000 0.0000 1.0000
vn 0.0000 0.0000 -1.0000
vn 0.9866 0.1629 0.0000
vn 0.9866 0.1629 -0.0000
vn 0.0000 0.0000 1.0000
vn 0.0000 0.0000 -1.0000
vn 0.0931 0.9957 0.0000
vn 0.0931 0.9957 -0.0000
vn 0.0000 0.0000 1.0000
vn 0.0000 0.0000 -1.0000
vn 0.9569 0.2903 0.0000
vn 0.9569 0.2903 -0.0000
vn 0.0000 0.0000 1.0000
vn 0.0000 0.0000 -1.0000
vn 0.9359 0.3523 0.0000
vn 0.9359 0.3523 -0.0000
vn 0.0000 0.0000 1.0000
vn 0.0000 0.0000 -1.0000
vn 0.9109 0.4127 0.0000
vn 0.9109 0.4127 -0.0000
vn 0.0000 0.0000 1.0000
vn 0.0000 0.0000 -1.0000
vn 0.7265 -0.6872 0.0000
vn 0.7265 -0.6872 0.0000
vn 0.0000 0.0000 1.0000
vn 0.0000 0.0000 -1.0000
vn 0.8492 0.5281 0.0000
vn 0.8492 0.5281 -0.0000
vn 0.0000 0.0000 1.0000
vn 0.0000 0.0000 -1.0000
vn 0.8128 0.5825 0.0000
vn 0.8128 0.5825 -0.0000
vn 0.0000 0.0000 1.0000
vn 0.0000 0.0000 -1.0000
vn 0.7730 0.6344 0.0000
vn 0.7730 0.6344 -0.0000
vn 0.0000 0.0000 1.0000
vn 0.0000 0.0000 -1.0000
vn -0.4172 0.9088 0.0000
vn -0.4172 0.9088 0.0000
vn 0.0000 0.0000 1.0000
vn 0.0000 0.0000 -1.0000
vn 0.6836 0.7299 0.0000
vn 0.6836 0.7299 -0.0000
vn 0.0000 0.0000 1.0000
vn 0.0000 0.0000 -1.0000
vn 0.6344 0.7730 0.0000
vn 0.6344 0.7730 -0.0000
vn 0.0000 0.0000 1.0000
vn 0.0000 0.0000 -1.0000
vn 0.5825 0.8128 0.0000
vn 0.5825 0.8128 -0.0000
vn 0.0000 0.0000 1.0000
vn 0.0000 0.0000 -1.0000
vn 0.9727 -0.2319 0.0000
vn 0.9727 -0.2319 0.0000
vn 0.0000 0.0000 1.0000
vn 0.0000 0.0000 -1.0000
vn 0.4714 0.8819 0.0000
vn 0.4714 0.8819 -0.0000
vn 0.0000 0.0000 1.0000
vn 0.0000 0.0000 -1.0000
vn 0.4127 0.9109 0.0000
vn 0.4127 0.9109 -0.0000
vn 0.0000 0.0000 1.0000
vn 0.0000 0.0000 -1.0000
vn 0.3523 0.9359 0.0000
vn 0.3523 0.9359 -0.0000
vn 0.0000 0.0000 1.0000
vn 0.0000 0.0000 -1.0000
vn -0.8157 0.5784 0.0000
vn -0.8157 0.5784 0.0000
vn 0.0000 0.0000 1.0000
vn 0.0000 0.0000 -1.0000
vn 0.2271 0.9739 0.0000
vn 0.2271 0.9739 -0.0000
vn 0.0000 0.0000 1.0000
vn 0.0000 0.0000 -1.0000
vn 0.1629 0.9866 0.0000
vn 0.1629 0.9866 -0.0000
vn 0.0000 0.0000 1.0000
vn 0.0000 0.0000 -1.0000
vn 0.0980 0.9952 0.0000
vn 0.0980 0.9952 -0.0000
vn 0.0000 0.0000 1.0000
vn 0.0000 0.0000 -1.0000
vn 0.9584 0.2855 0.0000
vn 0.9584 0.2855 -0.0000
vn 0.0000 -0.0000 1.0000
vn 0.0000 0.0000 -1.0000
vn -0.0327 0.9995 0.0000
vn -0.0327 0.9995 0.0000
vn 0.0000 0.0000 1.0000
vn 0.0000 0.0000 -1.0000
vn -0.0980 0.9952 0.0000
vn -0.0980 0.9952 0.0000
vn 0.0000 0.0000 1.0000
vn 0.0000 0.0000 -1.0000
vn -0.1629 0.9866 0.0000
vn -0.1629 0.9866 0.0000
vn 0.0000 0.0000 1.0000
vn 0.0000 0.0000 -1.0000
vn -0.9957 0.0931 0.0000
vn -0.9957 0.0931 0.0000
vn 0.0000 0.0000 1.0000
vn 0.0000 0.0000 -1.0000
vn -0.2903 0.9569 0.0000
vn -0.2903 0.9569 0.0000
vn 0.0000 0.0000 1.0000
vn 0.0000 0.0000 -1.0000
vn -0.3523 0.9359 0.0000
vn -0.3523 0.9359 0.0000
vn 0.0000 0.0000 1.0000
vn 0.0000 0.0000 -1.0000
vn -0.4127 0.9109 0.0000
vn -0.4127 0.9109 0.0000
vn 0.0000 0.0000 1.0000
vn 0.0000 0.0000 -1.0000
vn 0.6872 0.7265 0.0000
vn 0.6872 0.7265 -0.0000
vn 0.0000 0.0000 1.0000
vn 0.0000 0.0000 -1.0000
vn -0.5281 0.8492 0.0000
vn -0.5281 0.8492 0.0000
vn 0.0000 0.0000 1.0000
vn 0.0000 0.0000 -1.0000
vn -0.5825 0.8128 0.0000
vn -0.5825 0.8128 0.0000
vn 0.0000 0.0000 1.0000
vn 0.0000 0.0000 -1.0000
vn -0.6344 0.7730 0.0000
vn -0.6344 0.7730 0.0000
vn 0.0000 0.0000 1.0000
vn 0.0000 0.0000 -1.0000
vn -0.9088 -0.4172 0.0000
vn -0.9088 -0.4172 0.0000
vn 0.0000 0.0000 1.0000
vn 0.0000 0.0000 -1.0000
vn -0.7299 0.6836 0.0000
vn -0.7299 0.6836 0.0000
vn 0.0000 0.0000 1.0000
vn 0.0000 0.0000 -1.0000
vn -0.7730 0.6344 0.0000
vn -0.7730 0.6344 0.0000
vn 0.0000 0.0000 1.0000
vn 0.0000 0.0000 -1.0000
vn -0.8128 0.5825 0.0000
vn -0.8128 0.5825 0.0000
vn 0.0000 0.0000 1.0000
vn 0.0000 0.0000 -1.0000
vn 0.2319 0.9727 0.0000
vn 0.2319 0.9727 -0.0000
vn 0.0000 0.0000 1.0000
vn 0.0000 0.0000 -1.0000
vn -0.8819 0.4714 0.0000
vn -0.8819 0.4714 0.0000
vn 0.0000 0.0000 1.0000
vn 0.0000 0.0000 -1.0000
vn -0.9109 0.4127 0.0000
vn -0.9109 0.4127 0.0000
vn 0.0000 0.0000 1.0000
vn 0.0000 0.0000 -1.0000
vn -0.9359 0.3523 0.0000
vn -0.9359 0.3523 0.0000
vn 0.0000 0.0000 1.0000
vn 0.0000 0.0000 -1.0000
vn -0.5784 -0.8157 0.0000
vn -0.5784 -0.8157 0.0000
vn 0.0000 0.0000 1.0000
vn 0.0000 0.0000 -1.0000
vn -0.9739 0.2271 0.0000
vn -0.9739 0.2271 0.0000
vn 0.0000 0.0000 1.0000
vn 0.0000 0.0000 -1.0000
vn -0.9866 0.1629 0.0000
vn -0.9866 0.1629 0.0000
vn 0.0000 0.0000 1.0000
vn 0.0000 0.0000 -1.0000
vn -0.9952 0.0980 0.0000
vn -0.9952 0.0980 0.0000
vn 0.0000 0.0000 1.0000
vn 0.0000 0.0000 -1.0000
vn -0.2855 0.9584 0.0000
vn -0.2855 0.9584 0.0000
vn 0.0000 0.0000 1.0000
vn -0.0000 0.0000 -1.0000
vn -0.9995 -0.0327 0.0000
vn -0.9995 -0.0327 0.0000
vn 0.0000 0.0000 1.0000
vn 0.0000 0.0000 -1.0000
vn -0.9952 -0.0980 0.0000
vn -0.9952 -0.0980 0.0000
vn 0.0000 0.0000 1.0000
vn 0.0000 0.0000 -1.0000
vn -0.9866 -0.1629 0.0000
vn -0.9866 -0.1629 0.0000
vn 0.0000 0.0000 1.0000
vn 0.0000 0.0000 -1.0000
vn -0.0931 -0.9957 0.0000
vn -0.0931 -0.9957 0.0000
vn 0.0000 0.0000 1.0000
vn 0.0000 0.0000 -1.0000
vn -0.9569 -0.2903 0.0000
vn -0.9569 -0.2903 0.0000
vn 0.0000 0.0000 1.0000
vn 0.0000 0.0000 -1.0000
vn -0.9359 -0.3523 0.0000
vn -0.9359 -0.3523 0.0000
vn 0.0000 0.0000 1.0000
vn 0.0000 0.0000 -1.0000
vn -0.9109 -0.4127 0.0000
vn -0.9109 -0.4127 0.0000
vn 0.0000 0.0000 1.0000
vn 0.0000 0.0000 -1.0000
vn -0.7265 0.6872 0.0000
vn -0.7265 0.6872 0.0000
vn 0.0000 0.0000 1.0000
vn 0.0000 0.0000 -1.0000
vn -0.8492 -0.5281 0.0000
vn -0.8492 -0.5281 0.0000
vn 0.0000 0.0000 1.0000
vn 0.0000 0.0000 -1.0000
vn -0.8128 -0.5825 0.0000
vn -0.8128 -0.5825 0.0000
vn 0.0000 0.0000 1.0000
vn 0.0000 0.0000 -1.0000
vn -0.7730 -0.6344 0.0000
vn -0.7730 -0.6344 0.0000
vn 0.0000 0.0000 1.0000
vn 0.0000 0.0000 -1.0000
vn 0.4172 -0.9088 0.0000
vn 0.4172 -0.9088 0.0000
vn 0.0000 0.0000 1.0000
vn 0.0000 0.0000 -1.0000
vn -0.6836 -0.7299 0.0000
vn -0.6836 -0.7299 0.0000
vn 0.0000 0.0000 1.0000
vn 0.0000 0.0000 -1.0000
vn -0.6344 -0.7730 0.0000
vn -0.6344 -0.7730 0.0000
vn 0.0000 0.0000 1.0000
vn 0.0000 0.0000 -1.0000
vn -0.5825 -0.8128 0.0000
vn -0.5825 -0.8128 0.0000
vn 0.0000 0.0000 1.0000
vn 0.0000 0.0000 -1.0000
vn -0.9727 0.2319 0.0000
vn -0.9727 0.2319 0.0000
vn 0.0000 0.0000 1.0000
vn 0.0000 0.0000 -1.0000
vn -0.4714 -0.8819 0.0000
vn -0.4714 -0.8819 0.0000
vn 0.0000 0.0000 1.0000
vn 0.0000 0.0000 -1.0000
vn -0.4127 -0.9109 0.0000
vn -0.4127 -0.9109 0.0000
vn 0.0000 0.0000 1.0000
vn 0.0000 0.0000 -1.0000
vn -0.3523 -0.9359 0.0000
vn -0.3523 -0.9359 0.0000
vn 0.0000 0.0000 1.0000
vn 0.0000 0.0000 -1.0000
vn 0.8157 -0.5784 0.0000
vn 0.8157 -0.5784 0.0000
vn 0.0000 0.0000 1.0000
vn 0.0000 0.0000 -1.0000
vn -0.2271 -0.9739 0.0000
vn -0.2271 -0.9739 0.0000
vn 0.0000 0.0000 1.0000
vn 0.0000 0.0000 -1.0000
vn -0.1629 -0.9866 0.0000
vn -0.1629 -0.9866 0.0000
vn 0.0000 0.0000 1.0000
vn 0.0000 0.0000 -1.0000
vn -0.0980 -0.9952 0.0000
vn -0.0980 -0.9952 0.0000
vn 0.0000 0.0000 1.0000
vn 0.0000 0.0000 -1.0000
vn -0.9584 -0.2855 0.0000
vn -0.9584 -0.2855 0.0000
vn 0.0000 0.0000 1.0000
vn 0.0000 -0.0000 -1.0000
vn 0.0327 -0.9995 0.0000
vn 0.0327 -0.9995 0.0000
vn 0.0000 0.0000 1.0000
vn 0.0000 0.0000 -1.0000
vn 0.0980 -0.9952 0.0000
vn 0.0980 -0.9952 0.0000
vn 0.0000 0.0000 1.0000
vn 0.0000 0.0000 -1.0000
vn 0.1629 -0.9866 0.0000
vn 0.1629 -0.9866 0.0000
vn 0.0000 0.0000 1.0000
vn 0.0000 0.0000 -1.0000
vn 0.9957 -0.0931 0.0000
vn 0.9957 -0.0931 0.0000
vn 0.0000 0.0000 1.0000
vn 0.0000 0.0000 -1.0000
vn 0.2903 -0.9569 0.0000
vn 0.2903 -0.9569 0.0000
vn 0.0000 0.0000 1.0000
vn 0.0000 0.0000 -1.0000
vn 0.3523 -0.9359 0.0000
vn 0.3523 -0.9359 0.0000
vn 0.0000 0.0000 1.0000
vn 0.0000 0.0000 -1.0000
vn 0.4127 -0.9109 0.0000
vn 0.4127 -0.9109 0.0000
vn 0.0000 0.0000 1.0000
vn 0.0000 0.0000 -1.0000
vn -0.6872 -0.7265 0.0000
vn -0.6872 -0.7265 0.0000
vn 0.0000 0.0000 1.0000
vn 0.0000 0.0000 -1.0000
vn 0.5281 -0.8492 0.0000
vn 0.5281 -0.8492 0.0000
vn 0.0000 0.0000 1.0000
vn 0.0000 0.0000 -1.0000
vn 0.5825 -0.8128 0.0000
vn 0.5825 -0.8128 0.0000
vn 0.0000 0.0000 1.0000
vn 0.0000 0.0000 -1.0000
vn 0.6344 -0.7730 0.0000
vn 0.6344 -0.7730 0.0000
vn 0.0000 0.0000 1.0000
vn 0.0000 0.0000 -1.0000
vn 0.9088 0.4172 0.0000
vn 0.9088 0.4172 -0.0000
vn 0.0000 0.0000 1.0000
vn 0.0000 0.0000 -1.0000
vn 0.7299 -0.6836 0.0000
vn 0.7299 -0.6836 0.0000
vn 0.0000 0.0000 1.0000
vn 0.0000 0.0000 -1.0000
vn 0.7730 -0.6344 0.0000
vn 0.7730 -0.6344 0.0000
vn 0.0000 0.0000 1.0000
vn 0.0000 0.0000 -1.0000
vn 0.8128 -0.5825 0.0000
vn 0.8128 -0.5825 0.0000
vn 0.0000 0.0000 1.0000
vn 0.0000 0.0000 -1.0000
vn -0.2319 -0.9727 0.0000
vn -0.2319 -0.9727 0.0000
vn 0.0000 0.0000 1.0000
vn 0.0000 0.0000 -1.0000
vn 0.8819 -0.4714 0.0000
vn 0.8819 -0.4714 0.0000
vn 0.0000 0.0000 1.0000
vn 0.0000 0.0000 -1.0000
vn 0.9109 -0.4127 0.0000
vn 0.9109 -0.4127 0.0000
vn 0.0000 0.0000 1.0000
vn 0.0000 0.0000 -1.0000
vn 0.9359 -0.3523 0.0000
vn 0.9359 -0.3523 0.0000
vn 0.0000 0.0000 1.0000
vn 0.0000 0.0000 -1.0000
vn 0.5784 0.8157 0.0000
vn 0.5784 0.8157 -0.0000
vn 0.0000 0.0000 1.0000
vn 0.0000 0.0000 -1.0000
vn 0.9739 -0.2271 0.0000
vn 0.9739 -0.2271 0.0000
vn 0.0000 0.0000 1.0000
vn 0.0000 0.0000 -1.0000
vn 0.9866 -0.1629 0.0000
vn 0.9866 -0.1629 0.0000
vn 0.0000 0.0000 1.0000
vn 0.0000 0.0000 -1.0000
vn 0.9952 -0.0980 0.0000
vn 0.9952 -0.0980 0.0000
vn -0.0000 0.0000 1.0000
vn 0.0000 0.0000 -1.0000
vn 0.2855 -0.9584 0.0000
vn 0.2855 -0.9584 0.0000
vn 0.0000 0.0000 1.0000
vn 0.9914 0.1305 0.0000
vn 0.9914 0.1305 -0.0000
vn 0.0000 0.0000 1.0000
vn 0.9239 0.3827 0.0000
vn 0.9239 0.3827 -0.0000
vn 0.0000 0.0000 1.0000
vn 0.7934 0.6088 0.0000
vn 0.7934 0.6088 -0.0000
vn 0.0000 0.0000 1.0000
vn 0.6088 0.7934 0.0000
vn 0.6088 0.7934 -0.0000
vn 0.0000 0.0000 1.0000
vn 0.3827 0.9239 0.0000
vn 0.3827 0.9239 -0.0000
vn 0.0000 0.0000 1.0000
vn 0.1305 0.9914 0.0000
vn 0.1305 0.9914 -0.0000
vn 0.0000 -0.0000 1.0000
vn -0.1305 0.9914 0.0000
vn -0.1305 0.9914 0.0000
vn 0.0000 0.0000 1.0000
vn -0.3827 0.9239 0.0000
vn -0.3827 0.9239 0.0000
vn 0.0000 0.0000 1.0000
vn -0.6088 0.7934 0.0000
vn -0.6088 0.7934 0.0000
vn 0.0000 0.0000 1.0000
vn -0.7934 0.6088 0.0000
vn -0.7934 0.6088 0.0000
vn 0.0000 0.0000 1.0000
vn -0.9239 0.3827 0.0000
vn -0.9239 0.3827 0.0000
vn 0.0000 0.0000 1.0000
vn -0.9914 0.1305 0.0000
vn -0.9914 0.1305 0.0000
vn 0.0000 0.0000 1.0000
vn -0.9914 -0.1305 0.0000
vn -0.9914 -0.1305 0.0000
vn 0.0000 0.0000 1.0000
vn -0.9239 -0.3827 0.0000
vn -0.9239 -0.3827 0.0000
vn 0.0000 0.0000 1.0000
vn -0.7934 -0.6088 0.0000
vn -0.7934 -0.6088 0.0000
vn 0.0000 0.0000 1.0000
vn -0.6088 -0.7934 0.0000
vn -0.6088 -0.7934 0.0000
vn 0.0000 0.0000 1.0000
vn -0.3827 -0.9239 0.0000
vn -0.3827 -0.9239 0.0000
vn 0.0000 0.0000 1.0000
vn -0.1305 -0.9914 0.0000
vn -0.1305 -0.9914 0.0000
vn 0.0000 0.0000 1.0000
vn 0.1305 -0.9914 0.0000
vn 0.1305 -0.9914 0.0000
vn 0.0000 0.0000 1.0000
vn 0.3827 -0.9239 0.0000
vn 0.3827 -0.9239 0.0000
vn 0.0000 0.0000 1.0000
vn 0.6088 -0.7934 0.0000
vn 0.6088 -0.7934 0.0000
vn 0.0000 0.0000 1.0000
vn 0.7934 -0.6088 0.0000
vn 0.7934 -0.6088 0.0000
vn 0.0000 0.0000 1.0000
vn 0.9239 -0.3827 0.0000
vn 0.9239 -0.3827 0.0000
vn -0.0000 0.0000 1.0000
vn 0.9914 -0.1305 0.0000
vn 0.9914 -0.1305 0.0000
f 193//1 1//1 2//1
f 194//2 98//2 97//2
f 97//3 98//3 2//3
f 97//4 2//4 1//4
f 193//5 2//5 3//5
f 194//6 99//6 98//6
f 98//7 99//7 3//7
f 98//8 3//8 2//8
f 193//9 3//9 4//9
f 194//10 100//10 99//10
f 99//11 100//11 4//11
f 99//12 4//12 3//12
f 193//13 4//13 5//13
f 194//14 101//14 100//14
f 100//15 101//15 5//15
f 100//16 5//16 4//16
f 193//17 5//17 6//17
f 194//18 102//18 101//18
f 101//19 102//19 6//19
f 101//20 6//20 5//20
f 193//21 6//21 7//21
f 194//22 103//22 102//22
f 102//23 103//23 7//23
f 102//24 7//24 6//24
f 193//25 7//25 8//25
f 194//26 104//26 103//26
f 103//27 104//27 8//27
f 103//28 8//28 7//28
f 193//29 8//29 9//29
f 194//30 105//30 104//30
f 104//31 105//31 9//31
f 104//32 9//32 8//32
f 193//33 9//33 10//33
f 194//34 106//34 105//34
f 105//35 106//35 10//35
f 105//36 10//36 9//36
f 193//37 10//37 11//37
f 194//38 107//38 106//38
f 106//39 107//39 11//39
f 106//40 11//40 10//40
f 193//41 11//41 12//41
f 194//42 108//42 107//42
f 107//43 108//43 12//43
f 107//44 12//44 11//44
f 193//45 12//45 13//45
f 194//46 109//46 108//46
f 108//47 109//47 13//47
f 108//48 13//48 12//48
f 193//49 13//49 14//49
f 194//50 110//50 109//50
f 109//51 110//51 14//51
f 109//52 14//52 13//52
f 193//53 14//53 15//53
f 194//54 111//54 110//54
f 110//55 111//55 15//55
f 110//56 15//56 14//56
f 193//57 15//57 16//57
f 194//58 112//58 111//58
f 111//59 112//59 16//59
f 111//60 16//60 15//60
f 193//61 16//61 17//61
f 194//62 113//62 112//62
f 112//63 113//63 17//63
f 112//64 17//64 16//64
f 193//65 17//65 18//65
f 194//66 114//66 113//66
f 113//67 114//67 18//67
f 113//68 18//68 17//68
f 193//69 18//69 19//69
f 194//70 115//70 114//70
f 114//71 115//71 19//71
f 114//72 19//72 18//72
f 193//73 19//73 20//73
f 194//74 116//74 115//74
f 115//75 116//75 20//75
f 115//76 20//76 19//76
f 193//77 20//77 21//77
f 194//78 117//78 116//78
f 116//79 117//79 21//79
f 116//80 21//80 20//80
f 193//81 21//81 22//81
f 194//82 118//82 117//82
f 117//83 118//83 22//83
f 117//84 22//84 21//84
f 193//85 22//85 23//85
f 194//86 119//86 118//86
f 118//87 119//87 23//87
f 118//88 23//88 22//88
f 193//89 23//89 24//89
f 194//90 120//90 119//90
f 119//91 120//91 24//91
f 119//92 24//92 23//92
f 193//93 24//93 25//93
f 194//94 121//94 120//94
f 120//95 121//95 25//95
f 120//96 25//96 24//96
f 193//97 25//97 26//97
f 194//98 122//98 121//98
f 121//99 122//99 26//99
f 121//100 26//100 25//100
f 193//101 26//101 27//101
f 194//102 123//102 122//102
f 122//103 123//103 27//103
f 122//104 27//104 26//104
f 193//105 27//105 28//105
f 194//106 124//106 123//106
f 123//107 124//107 28//107
f 123//108 28//108 27//108
f 193//109 28//109 29//109
f 194//110 125//110 124//110
f 124//111 125//111 29//111
f 124//112 29//112 28//112
f 193//113 29//113 30//113
f 194//114 126//114 125//114
f 125//115 126//115 30//115
f 125//116 30//116 29//116
f 193//117 30//117 31//117
f 194//118 127//118 126//118
f 126//119 127//119 31//119
f 126//120 31//120 30//120
f 193//121 31//121 32//121
f 194//122 128//122 127//122
f 127//123 128//123 32//123
f 127//124 32//124 31//124
f 193//125 32//125 33//125
f 194//126 129//126 128//126
f 128//127 129//127 33//127
f 128//128 33//128 32//128
f 193//129 33//129 34//129
f 194//130 130//130 129//130
f 129//131 130//131 34//131
f 129//132 34//132 33//132
f 193//133 34//133 35//133
f 194//134 131//134 130//134
f 130//135 131//135 35//135
f 130//136 35//136 34//136
f 193//137 35//137 36//137
f 194//138 132//138 131//138
f 131//139 132//139 36//139
f 131//140 36//140 35//140
f 193//141 36//141 37//141
f 194//142 133//142 132//142
f 132//143 133//143 37//143
f 132//144 37//144 36//144
f 193//145 37//145 38//145
f 194//146 134//146 133//146
f 133//147 134//147 38//147
f 133//148 38//148 37//148
f 193//149 38//149 39//149
f 194//150 135//150 134//150
f 134//151 135//151 39//151
f 134//152 39//152 38//152
f 193//153 39//153 40//153
f 194//154 136//154 135//154
f 135//155 136//155 40//155
f 135//156 40//156 39//156
f 193//157 40//157 41//157
f 194//158 137//158 136//158
f 136//159 137//159 41//159
f 136//160 41//160 40//160
f 193//161 41//161 42//161
f 194//162 138//162 137//162
f 137//163 138//163 42//163
f 137//164 42//164 41//164
f 193//165 42//165 43//165
f 194//166 139//166 138//166
f 138//167 139//167 43//167
f 138//168 43//168 42//168
f 193//169 43//169 44//169
f 194//170 140//170 139//170
f 139//171 140//171 44//171
f 139//172 44//172 43//172
f 193//173 44//173 45//173
f 194//174 141//174 140//174
f 140//175 141//175 45//175
f 140//176 45//176 44//176
f 193//177 45//177 46//177
f 194//178 142//178 141//178
f 141//179 142//179 46//179
f 141//180 46//180 45//180
f 193//181 46//181 47//181
f 194//182 143//182 142//182
f 142//183 143//183 47//183
f 142//184 47//184 46//184
f 193//185 47//185 48//185
f 194//186 144//186 143//186
f 143//187 144//187 48//187
f 143//188 48//188 47//188
f 193//189 48//189 49//189
f 194//190 145//190 144//190
f 144//191 145//191 49//191
f 144//192 49//192 48//192
f 193//193 49//193 50//193
f 194//194 146//194 145//194
f 145//195 146//195 50//195
f 145//196 50//196 49//196
f 193//197 50//197 51//197
f 194//198 147//198 146//198
f 146//199 147//199 51//199
f 146//200 51//200 50//200
f 193//201 51//201 52//201
f 194//202 148//202 147//202
f 147//203 148//203 52//203
f 147//204 52//204 51//204
f 193//205 52//205 53//205
f 194//206 149//206 148//206
f 148//207 149//207 53//207
f 148//208 53//208 52//208
f 193//209 53//209 54//209
f 194//210 150//210 149//210
f 149//211 150//211 54//211
f 149//212 54//212 53//212
f 193//213 54//213 55//213
f 194//214 151//214 150//214
f 150//215 151//215 55//215
f 150//216 55//216 54//216
f 193//217 55//217 56//217
f 194//218 152//218 151//218
f 151//219 152//219 56//219
f 151//220 56//220 55//220
f 193//221 56//221 57//221
f 194//222 153//222 152//222
f 152//223 153//223 57//223
f 152//224 57//224 56//224
f 193//225 57//225 58//225
f 194//226 154//226 153//226
f 153//227 154//227 58//227
f 153//228 58//228 57//228
f 193//229 58//229 59//229
f 194//230 155//230 154//230
f 154//231 155//231 59//231
f 154//232 59//232 58//232
f 193//233 59//233 60//233
f 194//234 156//234 155//234
f 155//235 156//235 60//235
f 155//236 60//236 59//236
f 193//237 60//237 61//237
f 194//238 157//238 156//238
f 156//239 157//239 61//239
f 156//240 61//240 60//240
f 193//241 61//241 62//241
f 194//242 158//242 157//242
f 157//243 158//243 62//243
f 157//244 62//244 61//244
f 193//245 62//245 63//245
f 194//246 159//246 158//246
f 158//247 159//247 63//247
f 158//248 63//248 62//248
f 193//249 63//249 64//249
f 194//250 160//250 159//250
f 159//251 160//251 64//251
f 159//252 64//252 63//252
f 193//253 64//253 65//253
f 194//254 161//254 160//254
f 160//255 161//255 65//255
f 160//256 65//256 64//256
f 193//257 65//257 66//257
f 194//258 162//258 161//258
f 161//259 162//259 66//259
f 161//260 66//260 65//260
f 193//261 66//261 67//261
f 194//262 163//262 162//262
f 162//263 163//263 67//263
f 162//264 67//264 66//264
f 193//265 67//265 68//265
f 194//266 164//266 163//266
f 163//267 164//267 68//267
f 163//268 68//268 67//268
f 193//269 68//269 69//269
f 194//270 165//270 164//270
f 164//271 165//271 69//271
f 164//272 69//272 68//272
f 193//273 69//273 70//273
f 194//274 166//274 165//274
f 165//275 166//275 70//275
f 165//276 70//276 69//276
f 193//277 70//277 71//277
f 194//278 167//278 166//278
f 166//279 167//279 71//279
f 166//280 71//280 70//280
f 193//281 71//281 72//281
f 194//282 168//282 167//282
f 167//283 168//283 72//283
f 167//284 72//284 71//284
f 193//285 72//285 73//285
f 194//286 169//286 168//286
f 168//287 169//287 73//287
f 168//288 73//288 72//288
f 193//289 73//289 74//289
f 194//290 170//290 169//290
f 169//291 170//291 74//291
f 169//292 74//292 73//292
f 193//293 74//293 75//293
f 194//294 171//294 170//294
f 170//295 171//295 75//295
f 170//296 75//296 74//296
f 193//297 75//297 76//297
f 194//298 172//298 171//298
f 171//299 172//299 76//299
f 171//300 76//300 75//300
f 193//301 76//301 77//301
f 194//302 173//302 172//302
f 172//303 173//303 77//303
f 172//304 77//304 76//304
f 193//305 77//305 78//305
f 194//306 174//306 173//306
f 173//307 174//307 78//307
f 173//308 78//308 77//308
f 193//309 78//309 79//309
f 194//310 175//310 174//310
f 174//311 175//311 79//311
f 174//312 79//312 78//312
f 193//313 79//313 80//313
f 194//314 176//314 175//314
f 175//315 176//315 80//315
f 175//316 80//316 79//316
f 193//317 80//317 81//317
f 194//318 177//318 176//318
f 176//319 177//319 81//319
f 176//320 81//320 80//320
f 193//321 81//321 82//321
f 194//322 178//322 177//322
f 177//323 178//323 82//323
f 177//324 82//324 81//324
f 193//325 82//325 83//325
f 194//326 179//326 178//326
f 178//327 179//327 83//327
f 178//328 83//328 82//328
f 193//329 83//329 84//329
f 194//330 180//330 179//330
f 179//331 180//331 84//331
f 179//332 84//332 83//332
f 193//333 84//333 85//333
f 194//334 181//334 180//334
f 180//335 181//335 85//335
f 180//336 85//336 84//336
f 193//337 85//337 86//337
f 194//338 182//338 181//338
f 181//339 182//339 86//339
f 181//340 86//340 85//340
f 193//341 86//341 87//341
f 194//342 183//342 182//342
f 182//343 183//343 87//343
f 182//344 87//344 86//344
f 193//345 87//345 88//345
f 194//346 184//346 183//346
f 183//347 184//347 88//347
f 183//348 88//348 87//348
f 193//349 88//349 89//349
f 194//350 185//350 184//350
f 184//351 185//351 89//351
f 184//352 89//352 88//352
f 193//353 89//353 90//353
f 194//354 186//354 185//354
f 185//355 186//355 90//355
f 185//356 90//356 89//356
f 193//357 90//357 91//357
f 194//358 187//358 186//358
f 186//359 187//359 91//359
f 186//360 91//360 90//360
f 193//361 91//361 92//361
f 194//362 188//362 187//362
f 187//363 188//363 92//363
f 187//364 92//364 91//364
f 193//365 92//365 93//365
f 194//366 189//366 188//366
f 188//367 189//367 93//367
f 188//368 93//368 92//368
f 193//369 93//369 94//369
f 194//370 190//370 189//370
f 189//371 190//371 94//371
f 189//372 94//372 93//372
f 193//373 94//373 95//373
f 194//374 191//374 190//374
f 190//375 191//375 95//375
f 190//376 95//376 94//376
f 193//377 95//377 96//377
f 194//378 192//378 191//378
f 191//379 192//379 96//379
f 191//380 96//380 95//380
f 193//381 96//381 1//381
f 194//382 97//382 192//382
f 192//383 97//383 1//383
f 192//384 1//384 96//384
f 243//385 195//385 196//385
f 219//386 220//386 196//386
f 219//387 196//387 195//387
f 243//388 196//388 197//388
f 220//389 221//389 197//389
f 220//390 197//390 196//390
f 243//391 197//391 198//391
f 221//392 222//392 198//392
f 221//393 198//393 197//393
f 243//394 198//394 199//394
f 222//395 223//395 199//395
f 222//396 199//396 198//396
f 243//397 199//397 200//397
f 223//398 224//398 200//398
f 223//399 200//399 199//399
f 243//400 200//400 201//400
f 224//401 225//401 201//401
f 224//402 201//402 200//402
f 243//403 201//403 202//403
f 225//404 226//404 202//404
f 225//405 202//405 201//405
f 243//406 202//406 203//406
f 226//407 227//407 203//407
f 226//408 203//408 202//408
f 243//409 203//409 204//409
f 227//410 228//410 204//410
f 227//411 204//411 203//411
f 243//412 204//412 205//412
f 228//413 229//413 205//413
f 228//414 205//414 204//414
f 243//415 205//415 206//415
f 229//416 230//416 206//416
f 229//417 206//417 205//417
f 243//418 206//418 207//418
f 230//419 231//419 207//419
f 230//420 207//420 206//420
f 243//421 207//421 208//421
f 231//422 232//422 208//422
f 231//423 208//423 207//423
f 243//424 208//424 209//424
f 232//425 233//425 209//425
f 232//426 209//426 208//426
f 243//427 209//427 210//427
f 233//428 234//428 210//428
f 233//429 210//429 209//429
f 243//430 210//430 211//430
f 234//431 235//431 211//431
f 234//432 211//432 210//432
f 243//433 211//433 212//433
f 235//434 236//434 212//434
f 235//435 212//435 211//435
f 243//436 212//436 213//436
f 236//437 237//437 213//437
f 236//438 213//438 212//438
f 243//439 213//439 214//439
f 237//440 238//440 214//440
f 237//441 214//441 213//441
f 243//442 214//442 215//442
f 238//443 239//443 215//443
f 238//444 215//444 214//444
f 243//445 215//445 216//445
f 239//446 240//446 216//446
f 239//447 216//447 215//447
f 243//448 216//448 217//448
f 240//449 241//449 217//449
f 240//450 217//450 216//450
f 243//451 217//451 218//451
f 241//452 242//452 218//452
f 241//453 218//453 217//453
f 243//454 218//454 195//454
f 242//455 219//455 195//455
f 242//456 195//456 218//456
