# QubeKit parametric part (generated)
v 0.26400 0.00000 0.06000
v 0.26273 0.02588 0.06000
v 0.25893 0.05150 0.06000
v 0.25263 0.07664 0.06000
v 0.18847 0.07807 0.06000
v 0.17991 0.09616 0.06000
v 0.16962 0.11334 0.06000
v 0.15769 0.12942 0.06000
v 0.18668 0.18668 0.06000
v 0.16748 0.20407 0.06000
v 0.14667 0.21951 0.06000
v 0.12445 0.23283 0.06000
v 0.07807 0.18847 0.06000
v 0.05922 0.19522 0.06000
v 0.03980 0.20008 0.06000
v 0.02000 0.20302 0.06000
v 0.00000 0.26400 0.06000
v -0.02588 0.26273 0.06000
v -0.05150 0.25893 0.06000
v -0.07664 0.25263 0.06000
v -0.07807 0.18847 0.06000
v -0.09616 0.17991 0.06000
v -0.11334 0.16962 0.06000
v -0.12942 0.15769 0.06000
v -0.18668 0.18668 0.06000
v -0.20407 0.16748 0.06000
v -0.21951 0.14667 0.06000
v -0.23283 0.12445 0.06000
v -0.18847 0.07807 0.06000
v -0.19522 0.05922 0.06000
v -0.20008 0.03980 0.06000
v -0.20302 0.02000 0.06000
v -0.26400 0.00000 0.06000
v -0.26273 -0.02588 0.06000
v -0.25893 -0.05150 0.06000
v -0.25263 -0.07664 0.06000
v -0.18847 -0.07807 0.06000
v -0.17991 -0.09616 0.06000
v -0.16962 -0.11334 0.06000
v -0.15769 -0.12942 0.06000
v -0.18668 -0.18668 0.06000
v -0.16748 -0.20407 0.06000
v -0.14667 -0.21951 0.06000
v -0.12445 -0.23283 0.06000
v -0.07807 -0.18847 0.06000
v -0.05922 -0.19522 0.06000
v -0.03980 -0.20008 0.06000
v -0.02000 -0.20302 0.06000
v -0.00000 -0.26400 0.06000
v 0.02588 -0.26273 0.06000
v 0.05150 -0.25893 0.06000
v 0.07664 -0.25263 0.06000
v 0.07807 -0.18847 0.06000
v 0.09616 -0.17991 0.06000
v 0.11334 -0.16962 0.06000
v 0.12942 -0.15769 0.06000
v 0.18668 -0.18668 0.06000
v 0.20407 -0.16748 0.06000
v 0.21951 -0.14667 0.06000
v 0.23283 -0.12445 0.06000
v 0.18847 -0.07807 0.06000
v 0.19522 -0.05922 0.06000
v 0.20008 -0.03980 0.06000
v 0.20302 -0.02000 0.06000
v 0.26400 0.00000 -0.06000
v 0.26273 0.02588 -0.06000
v 0.25893 0.05150 -0.06000
v 0.25263 0.07664 -0.06000
v 0.18847 0.07807 -0.06000
v 0.17991 0.09616 -0.06000
v 0.16962 0.11334 -0.06000
v 0.15769 0.12942 -0.06000
v 0.18668 0.18668 -0.06000
v 0.16748 0.20407 -0.06000
v 0.14667 0.21951 -0.06000
v 0.12445 0.23283 -0.06000
v 0.07807 0.18847 -0.06000
v 0.05922 0.19522 -0.06000
v 0.03980 0.20008 -0.06000
v 0.02000 0.20302 -0.06000
v 0.00000 0.26400 -0.06000
v -0.02588 0.26273 -0.06000
v -0.05150 0.25893 -0.06000
v -0.07664 0.25263 -0.06000
v -0.07807 0.18847 -0.06000
v -0.09616 0.17991 -0.06000
v -0.11334 0.16962 -0.06000
v -0.12942 0.15769 -0.06000
v -0.18668 0.18668 -0.06000
v -0.20407 0.16748 -0.06000
v -0.21951 0.14667 -0.06000
v -0.23283 0.12445 -0.06000
v -0.18847 0.07807 -0.06000
v -0.19522 0.05922 -0.06000
v -0.20008 0.03980 -0.06000
v -0.20302 0.02000 -0.06000
v -0.26400 0.00000 -0.06000
v -0.26273 -0.02588 -0.06000
v -0.25893 -0.05150 -0.06000
v -0.25263 -0.07664 -0.06000
v -0.18847 -0.07807 -0.06000
v -0.17991 -0.09616 -0.06000
v -0.16962 -0.11334 -0.06000
v -0.15769 -0.12942 -0.06000
v -0.18668 -0.18668 -0.06000
v -0.16748 -0.20407 -0.06000
v -0.14667 -0.21951 -0.06000
v -0.12445 -0.23283 -0.06000
v -0.07807 -0.18847 -0.06000
v -0.05922 -0.19522 -0.06000
v -0.03980 -0.20008 -0.06000
v -0.02000 -0.20302 -0.06000
v -0.00000 -0.26400 -0.06000
v 0.02588 -0.26273 -0.06000
v 0.05150 -0.25893 -0.06000
v 0.07664 -0.25263 -0.06000
v 0.07807 -0.18847 -0.06000
v 0.09616 -0.17991 -0.06000
v 0.11334 -0.16962 -0.06000
v 0.12942 -0.15769 -0.06000
v 0.18668 -0.18668 -0.06000
v 0.20407 -0.16748 -0.06000
v 0.21951 -0.14667 -0.06000
v 0.23283 -0.12445 -0.06000
v 0.18847 -0.07807 -0.06000
v 0.19522 -0.05922 -0.06000
v 0.20008 -0.03980 -0.06000
v 0.20302 -0.02000 -0.06000
v 0.00000 0.00000 0.06000
v 0.00000 0.00000 -0.06000
v 0.34000 0.00000 0.10800
v 0.32841 0.08800 0.10800
v 0.29445 0.17000 0.10800
v 0.24042 0.24042 0.10800
v 0.17000 0.29445 0.10800
v 0.08800 0.32841 0.10800
v 0.00000 0.34000 0.10800
v -0.08800 0.32841 0.10800
v -0.17000 0.29445 0.10800
v -0.24042 0.24042 0.10800
v -0.29445 0.17000 0.10800
v -0.32841 0.08800 0.10800
v -0.34000 0.00000 0.10800
v -0.32841 -0.08800 0.10800
v -0.29445 -0.17000 0.10800
v -0.24042 -0.24042 0.10800
v -0.17000 -0.29445 0.10800
v -0.08800 -0.32841 0.10800
v -0.00000 -0.34000 0.10800
v 0.08800 -0.32841 0.10800
v 0.17000 -0.29445 0.10800
v 0.24042 -0.24042 0.10800
v 0.29445 -0.17000 0.10800
v 0.32841 -0.08800 0.10800
v 0.34000 0.00000 0.06000
v 0.32841 0.08800 0.06000
v 0.29445 0.17000 0.06000
v 0.24042 0.24042 0.06000
v 0.17000 0.29445 0.06000
v 0.08800 0.32841 0.06000
v 0.00000 0.34000 0.06000
v -0.08800 0.32841 0.06000
v -0.17000 0.29445 0.06000
v -0.24042 0.24042 0.06000
v -0.29445 0.17000 0.06000
v -0.32841 0.08800 0.06000
v -0.34000 0.00000 0.06000
v -0.32841 -0.08800 0.06000
v -0.29445 -0.17000 0.06000
v -0.24042 -0.24042 0.06000
v -0.17000 -0.29445 0.06000
v -0.08800 -0.32841 0.06000
v -0.00000 -0.34000 0.06000
v 0.08800 -0.32841 0.06000
v 0.17000 -0.29445 0.06000
v 0.24042 -0.24042 0.06000
v 0.29445 -0.17000 0.06000
v 0.32841 -0.08800 0.06000
v 0.00000 0.00000 0.10800
vn 0.0000 0.0000 1.0000
vn 0.0000 0.0000 -1.0000
vn 0.9988 0.0491 0.0000
vn 0.9988 0.0491 -0.0000
vn 0.0000 0.0000 1.0000
vn 0.0000 0.0000 -1.0000
vn 0.9892 0.1467 0.0000
vn 0.9892 0.1467 -0.0000
vn 0.0000 0.0000 1.0000
vn 0.0000 0.0000 -1.0000
vn 0.9700 0.2430 0.0000
vn 0.9700 0.2430 -0.0000
vn 0.0000 0.0000 1.0000
vn 0.0000 0.0000 -1.0000
vn 0.0223 0.9998 0.0000
vn 0.0223 0.9998 -0.0000
vn 0.0000 0.0000 1.0000
vn 0.0000 0.0000 -1.0000
vn 0.9040 0.4276 0.0000
vn 0.9040 0.4276 -0.0000
vn 0.0000 0.0000 1.0000
vn 0.0000 0.0000 -1.0000
vn 0.8577 0.5141 0.0000
vn 0.8577 0.5141 -0.0000
vn 0.0000 0.0000 1.0000
vn 0.0000 0.0000 -1.0000
vn 0.8032 0.5957 0.0000
vn 0.8032 0.5957 -0.0000
vn 0.0000 0.0000 1.0000
vn 0.0000 0.0000 -1.0000
vn 0.8922 -0.4516 0.0000
vn 0.8922 -0.4516 0.0000
vn 0.0000 0.0000 1.0000
vn 0.0000 0.0000 -1.0000
vn 0.6716 0.7410 0.0000
vn 0.6716 0.7410 -0.0000
vn 0.0000 0.0000 1.0000
vn 0.0000 0.0000 -1.0000
vn 0.5957 0.8032 0.0000
vn 0.5957 0.8032 -0.0000
vn 0.0000 0.0000 1.0000
vn 0.0000 0.0000 -1.0000
vn 0.5141 0.8577 0.0000
vn 0.5141 0.8577 -0.0000
vn 0.0000 0.0000 1.0000
vn 0.0000 0.0000 -1.0000
vn -0.6911 0.7227 0.0000
vn -0.6911 0.7227 0.0000
vn 0.0000 0.0000 1.0000
vn 0.0000 0.0000 -1.0000
vn 0.3369 0.9415 0.0000
vn 0.3369 0.9415 -0.0000
vn 0.0000 0.0000 1.0000
vn 0.0000 0.0000 -1.0000
vn 0.2430 0.9700 0.0000
vn 0.2430 0.9700 -0.0000
vn 0.0000 0.0000 1.0000
vn 0.0000 0.0000 -1.0000
vn 0.1467 0.9892 0.0000
vn 0.1467 0.9892 -0.0000
vn 0.0000 0.0000 1.0000
vn 0.0000 0.0000 -1.0000
vn 0.9502 0.3116 0.0000
vn 0.9502 0.3116 -0.0000
vn 0.0000 -0.0000 1.0000
vn 0.0000 0.0000 -1.0000
vn -0.0491 0.9988 0.0000
vn -0.0491 0.9988 0.0000
vn 0.0000 0.0000 1.0000
vn 0.0000 0.0000 -1.0000
vn -0.1467 0.9892 0.0000
vn -0.1467 0.9892 0.0000
vn 0.0000 0.0000 1.0000
vn 0.0000 0.0000 -1.0000
vn -0.2430 0.9700 0.0000
vn -0.2430 0.9700 0.0000
vn 0.0000 0.0000 1.0000
vn 0.0000 0.0000 -1.0000
vn -0.9998 0.0223 0.0000
vn -0.9998 0.0223 0.0000
vn 0.0000 0.0000 1.0000
vn 0.0000 0.0000 -1.0000
vn -0.4276 0.9040 0.0000
vn -0.4276 0.9040 0.0000
vn 0.0000 0.0000 1.0000
vn 0.0000 0.0000 -1.0000
vn -0.5141 0.8577 0.0000
vn -0.5141 0.8577 0.0000
vn 0.0000 0.0000 1.0000
vn 0.0000 0.0000 -1.0000
vn -0.5957 0.8032 0.0000
vn -0.5957 0.8032 0.0000
vn 0.0000 0.0000 1.0000
vn 0.0000 0.0000 -1.0000
vn 0.4516 0.8922 0.0000
vn 0.4516 0.8922 -0.0000
vn 0.0000 0.0000 1.0000
vn 0.0000 0.0000 -1.0000
vn -0.7410 0.6716 0.0000
vn -0.7410 0.6716 0.0000
vn 0.0000 0.0000 1.0000
vn 0.0000 0.0000 -1.0000
vn -0.8032 0.5957 0.0000
vn -0.8032 0.5957 0.0000
vn 0.0000 0.0000 1.0000
vn 0.0000 0.0000 -1.0000
vn -0.8577 0.5141 0.0000
vn -0.8577 0.5141 0.0000
vn 0.0000 0.0000 1.0000
vn 0.0000 0.0000 -1.0000
vn -0.7227 -0.6911 0.0000
vn -0.7227 -0.6911 0.0000
vn 0.0000 0.0000 1.0000
vn 0.0000 0.0000 -1.0000
vn -0.9415 0.3369 0.0000
vn -0.9415 0.3369 0.0000
vn 0.0000 0.0000 1.0000
vn 0.0000 0.0000 -1.0000
vn -0.9700 0.2430 0.0000
vn -0.9700 0.2430 0.0000
vn 0.0000 0.0000 1.0000
vn 0.0000 0.0000 -1.0000
vn -0.9892 0.1467 0.0000
vn -0.9892 0.1467 0.0000
vn 0.0000 0.0000 1.0000
vn 0.0000 0.0000 -1.0000
vn -0.3116 0.9502 0.0000
vn -0.3116 0.9502 0.0000
vn 0.0000 0.0000 1.0000
vn -0.0000 0.0000 -1.0000
vn -0.9988 -0.0491 0.0000
vn -0.9988 -0.0491 0.0000
vn 0.0000 0.0000 1.0000
vn 0.0000 0.0000 -1.0000
vn -0.9892 -0.1467 0.0000
vn -0.9892 -0.1467 0.0000
vn 0.0000 0.0000 1.0000
vn 0.0000 0.0000 -1.0000
vn -0.9700 -0.2430 0.0000
vn -0.9700 -0.2430 0.0000
vn 0.0000 0.0000 1.0000
vn 0.0000 0.0000 -1.0000
vn -0.0223 -0.9998 0.0000
vn -0.0223 -0.9998 0.0000
vn 0.0000 0.0000 1.0000
vn 0.0000 0.0000 -1.0000
vn -0.9040 -0.4276 0.0000
vn -0.9040 -0.4276 0.0000
vn 0.0000 0.0000 1.0000
vn 0.0000 0.0000 -1.0000
vn -0.8577 -0.5141 0.0000
vn -0.8577 -0.5141 0.0000
vn 0.0000 0.0000 1.0000
vn 0.0000 0.0000 -1.0000
vn -0.8032 -0.5957 0.0000
vn -0.8032 -0.5957 0.0000
vn 0.0000 0.0000 1.0000
vn 0.0000 0.0000 -1.0000
vn -0.8922 0.4516 0.0000
vn -0.8922 0.4516 0.0000
vn 0.0000 0.0000 1.0000
vn 0.0000 0.0000 -1.0000
vn -0.6716 -0.7410 0.0000
vn -0.6716 -0.7410 0.0000
vn 0.0000 0.0000 1.0000
vn 0.0000 0.0000 -1.0000
vn -0.5957 -0.8032 0.0000
vn -0.5957 -0.8032 0.0000
vn 0.0000 0.0000 1.0000
vn 0.0000 0.0000 -1.0000
vn -0.5141 -0.8577 0.0000
vn -0.5141 -0.8577 0.0000
vn 0.0000 0.0000 1.0000
vn 0.0000 0.0000 -1.0000
vn 0.6911 -0.7227 0.0000
vn 0.6911 -0.7227 0.0000
vn 0.0000 0.0000 1.0000
vn 0.0000 0.0000 -1.0000
vn -0.3369 -0.9415 0.0000
vn -0.3369 -0.9415 0.0000
vn 0.0000 0.0000 1.0000
vn 0.0000 0.0000 -1.0000
vn -0.2430 -0.9700 0.0000
vn -0.2430 -0.9700 0.0000
vn 0.0000 0.0000 1.0000
vn 0.0000 0.0000 -1.0000
vn -0.1467 -0.9892 0.0000
vn -0.1467 -0.9892 0.0000
vn 0.0000 0.0000 1.0000
vn 0.0000 0.0000 -1.0000
vn -0.9502 -0.3116 0.0000
vn -0.9502 -0.3116 0.0000
vn 0.0000 0.0000 1.0000
vn 0.0000 -0.0000 -1.0000
vn 0.0491 -0.9988 0.0000
vn 0.0491 -0.9988 0.0000
vn 0.0000 0.0000 1.0000
vn 0.0000 0.0000 -1.0000
vn 0.1467 -0.9892 0.0000
vn 0.1467 -0.9892 0.0000
vn 0.0000 0.0000 1.0000
vn 0.0000 0.0000 -1.0000
vn 0.2430 -0.9700 0.0000
vn 0.2430 -0.9700 0.0000
vn 0.0000 0.0000 1.0000
vn 0.0000 0.0000 -1.0000
vn 0.9998 -0.0223 0.0000
vn 0.9998 -0.0223 0.0000
vn 0.0000 0.0000 1.0000
vn 0.0000 0.0000 -1.0000
vn 0.4276 -0.9040 0.0000
vn 0.4276 -0.9040 0.0000
vn 0.0000 0.0000 1.0000
vn 0.0000 0.0000 -1.0000
vn 0.5141 -0.8577 0.0000
vn 0.5141 -0.8577 0.0000
vn 0.0000 0.0000 1.0000
vn 0.0000 0.0000 -1.0000
vn 0.5957 -0.8032 0.0000
vn 0.5957 -0.8032 0.0000
vn 0.0000 0.0000 1.0000
vn 0.0000 0.0000 -1.0000
vn -0.4516 -0.8922 0.0000
vn -0.4516 -0.8922 0.0000
vn 0.0000 0.0000 1.0000
vn 0.0000 0.0000 -1.0000
vn 0.7410 -0.6716 0.0000
vn 0.7410 -0.6716 0.0000
vn 0.0000 0.0000 1.0000
vn 0.0000 0.0000 -1.0000
vn 0.8032 -0.5957 0.0000
vn 0.8032 -0.5957 0.0000
vn 0.0000 0.0000 1.0000
vn 0.0000 0.0000 -1.0000
vn 0.8577 -0.5141 0.0000
vn 0.8577 -0.5141 0.0000
vn 0.0000 0.0000 1.0000
vn 0.0000 0.0000 -1.0000
vn 0.7227 0.6911 0.0000
vn 0.7227 0.6911 -0.0000
vn 0.0000 0.0000 1.0000
vn 0.0000 0.0000 -1.0000
vn 0.9415 -0.3369 0.0000
vn 0.9415 -0.3369 0.0000
vn 0.0000 0.0000 1.0000
vn 0.0000 0.0000 -1.0000
vn 0.9700 -0.2430 0.0000
vn 0.9700 -0.2430 0.0000
vn 0.0000 0.0000 1.0000
vn 0.0000 0.0000 -1.0000
vn 0.9892 -0.1467 0.0000
vn 0.9892 -0.1467 0.0000
vn -0.0000 0.0000 1.0000
vn 0.0000 0.0000 -1.0000
vn 0.3116 -0.9502 0.0000
vn 0.3116 -0.9502 0.0000
vn 0.0000 0.0000 1.0000
vn 0.9914 0.1305 0.0000
vn 0.9914 0.1305 -0.0000
vn 0.0000 0.0000 1.0000
vn 0.9239 0.3827 0.0000
vn 0.9239 0.3827 -0.0000
vn 0.0000 0.0000 1.0000
vn 0.7934 0.6088 0.0000
vn 0.7934 0.6088 -0.0000
vn 0.0000 0.0000 1.0000
vn 0.6088 0.7934 0.0000
vn 0.6088 0.7934 -0.0000
vn 0.0000 0.0000 1.0000
vn 0.3827 0.9239 0.0000
vn 0.3827 0.9239 -0.0000
vn 0.0000 0.0000 1.0000
vn 0.1305 0.9914 0.0000
vn 0.1305 0.9914 -0.0000
vn 0.0000 -0.0000 1.0000
vn -0.1305 0.9914 0.0000
vn -0.1305 0.9914 0.0000
vn 0.0000 0.0000 1.0000
vn -0.3827 0.9239 0.0000
vn -0.3827 0.9239 0.0000
vn 0.0000 0.0000 1.0000
vn -0.6088 0.7934 0.0000
vn -0.6088 0.7934 0.0000
vn 0.0000 0.0000 1.0000
vn -0.7934 0.6088 0.0000
vn -0.7934 0.6088 0.0000
vn 0.0000 0.0000 1.0000
vn -0.9239 0.3827 0.0000
vn -0.9239 0.3827 0.0000
vn 0.0000 0.0000 1.0000
vn -0.9914 0.1305 0.0000
vn -0.9914 0.1305 0.0000
vn 0.0000 0.0000 1.0000
vn -0.9914 -0.1305 0.0000
vn -0.9914 -0.1305 0.0000
vn 0.0000 0.0000 1.0000
vn -0.9239 -0.3827 0.0000
vn -0.9239 -0.3827 0.0000
vn 0.0000 0.0000 1.0000
vn -0.7934 -0.6088 0.0000
vn -0.7934 -0.6088 0.0000
vn 0.0000 0.0000 1.0000
vn -0.6088 -0.7934 0.0000
vn -0.6088 -0.7934 0.0000
vn 0.0000 0.0000 1.0000
vn -0.3827 -0.9239 0.0000
vn -0.3827 -0.9239 0.0000
vn 0.0000 0.0000 1.0000
vn -0.1305 -0.9914 0.0000
vn -0.1305 -0.9914 0.0000
vn 0.0000 0.0000 1.0000
vn 0.1305 -0.9914 0.0000
vn 0.1305 -0.9914 0.0000
vn 0.0000 0.0000 1.0000
vn 0.3827 -0.9239 0.0000
vn 0.3827 -0.9239 0.0000
vn 0.0000 0.0000 1.0000
vn 0.6088 -0.7934 0.0000
vn 0.6088 -0.7934 0.0000
vn 0.0000 0.0000 1.0000
vn 0.7934 -0.6088 0.0000
vn 0.7934 -0.6088 0.0000
vn 0.0000 0.0000 1.0000
vn 0.9239 -0.3827 0.0000
vn 0.9239 -0.3827 0.0000
vn -0.0000 0.0000 1.0000
vn 0.9914 -0.1305 0.0000
vn 0.9914 -0.1305 0.0000
f 129//1 1//1 2//1
f 130//2 66//2 65//2
f 65//3 66//3 2//3
f 65//4 2//4 1//4
f 129//5 2//5 3//5
f 130//6 67//6 66//6
f 66//7 67//7 3//7
f 66//8 3//8 2//8
f 129//9 3//9 4//9
f 130//10 68//10 67//10
f 67//11 68//11 4//11
f 67//12 4//12 3//12
f 129//13 4//13 5//13
f 130//14 69//14 68//14
f 68//15 69//15 5//15
f 68//16 5//16 4//16
f 129//17 5//17 6//17
f 130//18 70//18 69//18
f 69//19 70//19 6//19
f 69//20 6//20 5//20
f 129//21 6//21 7//21
f 130//22 71//22 70//22
f 70//23 71//23 7//23
f 70//24 7//24 6//24
f 129//25 7//25 8//25
f 130//26 72//26 71//26
f 71//27 72//27 8//27
f 71//28 8//28 7//28
f 129//29 8//29 9//29
f 130//30 73//30 72//30
f 72//31 73//31 9//31
f 72//32 9//32 8//32
f 129//33 9//33 10//33
f 130//34 74//34 73//34
f 73//35 74//35 10//35
f 73//36 10//36 9//36
f 129//37 10//37 11//37
f 130//38 75//38 74//38
f 74//39 75//39 11//39
f 74//40 11//40 10//40
f 129//41 11//41 12//41
f 130//42 76//42 75//42
f 75//43 76//43 12//43
f 75//44 12//44 11//44
f 129//45 12//45 13//45
f 130//46 77//46 76//46
f 76//47 77//47 13//47
f 76//48 13//48 12//48
f 129//49 13//49 14//49
f 130//50 78//50 77//50
f 77//51 78//51 14//51
f 77//52 14//52 13//52
f 129//53 14//53 15//53
f 130//54 79//54 78//54
f 78//55 79//55 15//55
f 78//56 15//56 14//56
f 129//57 15//57 16//57
f 130//58 80//58 79//58
f 79//59 80//59 16//59
f 79//60 16//60 15//60
f 129//61 16//61 17//61
f 130//62 81//62 80//62
f 80//63 81//63 17//63
f 80//64 17//64 16//64
f 129//65 17//65 18//65
f 130//66 82//66 81//66
f 81//67 82//67 18//67
f 81//68 18//68 17//68
f 129//69 18//69 19//69
f 130//70 83//70 82//70
f 82//71 83//71 19//71
f 82//72 19//72 18//72
f 129//73 19//73 20//73
f 130//74 84//74 83//74
f 83//75 84//75 20//75
f 83//76 20//76 19//76
f 129//77 20//77 21//77
f 130//78 85//78 84//78
f 84//79 85//79 21//79
f 84//80 21//80 20//80
f 129//81 21//81 22//81
f 130//82 86//82 85//82
f 85//83 86//83 22//83
f 85//84 22//84 21//84
f 129//85 22//85 23//85
f 130//86 87//86 86//86
f 86//87 87//87 23//87
f 86//88 23//88 22//88
f 129//89 23//89 24//89
f 130//90 88//90 87//90
f 87//91 88//91 24//91
f 87//92 24//92 23//92
f 129//93 24//93 25//93
f 130//94 89//94 88//94
f 88//95 89//95 25//95
f 88//96 25//96 24//96
f 129//97 25//97 26//97
f 130//98 90//98 89//98
f 89//99 90//99 26//99
f 89//100 26//100 25//100
f 129//101 26//101 27//101
f 130//102 91//102 90//102
f 90//103 91//103 27//103
f 90//104 27//104 26//104
f 129//105 27//105 28//105
f 130//106 92//106 91//106
f 91//107 92//107 28//107
f 91//108 28//108 27//108
f 129//109 28//109 29//109
f 130//110 93//110 92//110
f 92//111 93//111 29//111
f 92//112 29//112 28//112
f 129//113 29//113 30//113
f 130//114 94//114 93//114
f 93//115 94//115 30//115
f 93//116 30//116 29//116
f 129//117 30//117 31//117
f 130//118 95//118 94//118
f 94//119 95//119 31//119
f 94//120 31//120 30//120
f 129//121 31//121 32//121
f 130//122 96//122 95//122
f 95//123 96//123 32//123
f 95//124 32//124 31//124
f 129//125 32//125 33//125
f 130//126 97//126 96//126
f 96//127 97//127 33//127
f 96//128 33//128 32//128
f 129//129 33//129 34//129
f 130//130 98//130 97//130
f 97//131 98//131 34//131
f 97//132 34//132 33//132
f 129//133 34//133 35//133
f 130//134 99//134 98//134
f 98//135 99//135 35//135
f 98//136 35//136 34//136
f 129//137 35//137 36//137
f 130//138 100//138 99//138
f 99//139 100//139 36//139
f 99//140 36//140 35//140
f 129//141 36//141 37//141
f 130//142 101//142 100//142
f 100//143 101//143 37//143
f 100//144 37//144 36//144
f 129//145 37//145 38//145
f 130//146 102//146 101//146
f 101//147 102//147 38//147
f 101//148 38//148 37//148
f 129//149 38//149 39//149
f 130//150 103//150 102//150
f 102//151 103//151 39//151
f 102//152 39//152 38//152
f 129//153 39//153 40//153
f 130//154 104//154 103//154
f 103//155 104//155 40//155
f 103//156 40//156 39//156
f 129//157 40//157 41//157
f 130//158 105//158 104//158
f 104//159 105//159 41//159
f 104//160 41//160 40//160
f 129//161 41//161 42//161
f 130//162 106//162 105//162
f 105//163 106//163 42//163
f 105//164 42//164 41//164
f 129//165 42//165 43//165
f 130//166 107//166 106//166
f 106//167 107//167 43//167
f 106//168 43//168 42//168
f 129//169 43//169 44//169
f 130//170 108//170 107//170
f 107//171 108//171 44//171
f 107//172 44//172 43//172
f 129//173 44//173 45//173
f 130//174 109//174 108//174
f 108//175 109//175 45//175
f 108//176 45//176 44//176
f 129//177 45//177 46//177
f 130//178 110//178 109//178
f 109//179 110//179 46//179
f 109//180 46//180 45//180
f 129//181 46//181 47//181
f 130//182 111//182 110//182
f 110//183 111//183 47//183
f 110//184 47//184 46//184
f 129//185 47//185 48//185
f 130//186 112//186 111//186
f 111//187 112//187 48//187
f 111//188 48//188 47//188
f 129//189 48//189 49//189
f 130//190 113//190 112//190
f 112//191 113//191 49//191
f 112//192 49//192 48//192
f 129//193 49//193 50//193
f 130//194 114//194 113//194
f 113//195 114//195 50//195
f 113//196 50//196 49//196
f 129//197 50//197 51//197
f 130//198 115//198 114//198
f 114//199 115//199 51//199
f 114//200 51//200 50//200
f 129//201 51//201 52//201
f 130//202 116//202 115//202
f 115//203 116//203 52//203
f 115//204 52//204 51//204
f 129//205 52//205 53//205
f 130//206 117//206 116//206
f 116//207 117//207 53//207
f 116//208 53//208 52//208
f 129//209 53//209 54//209
f 130//210 118//210 117//210
f 117//211 118//211 54//211
f 117//212 54//212 53//212
f 129//213 54//213 55//213
f 130//214 119//214 118//214
f 118//215 119//215 55//215
f 118//216 55//216 54//216
f 129//217 55//217 56//217
f 130//218 120//218 119//218
f 119//219 120//219 56//219
f 119//220 56//220 55//220
f 129//221 56//221 57//221
f 130//222 121//222 120//222
f 120//223 121//223 57//223
f 120//224 57//224 56//224
f 129//225 57//225 58//225
f 130//226 122//226 121//226
f 121//227 122//227 58//227
f 121//228 58//228 57//228
f 129//229 58//229 59//229
f 130//230 123//230 122//230
f 122//231 123//231 59//231
f 122//232 59//232 58//232
f 129//233 59//233 60//233
f 130//234 124//234 123//234
f 123//235 124//235 60//235
f 123//236 60//236 59//236
f 129//237 60//237 61//237
f 130//238 125//238 124//238
f 124//239 125//239 61//239
f 124//240 61//240 60//240
f 129//241 61//241 62//241
f 130//242 126//242 125//242
f 125//243 126//243 62//243
f 125//244 62//244 61//244
f 129//245 62//245 63//245
f 130//246 127//246 126//246
f 126//247 127//247 63//247
f 126//248 63//248 62//248
f 129//249 63//249 64//249
f 130//250 128//250 127//250
f 127//251 128//251 64//251
f 127//252 64//252 63//252
f 129//253 64//253 1//253
f 130//254 65//254 128//254
f 128//255 65//255 1//255
f 128//256 1//256 64//256
f 179//257 131//257 132//257
f 155//258 156//258 132//258
f 155//259 132//259 131//259
f 179//260 132//260 133//260
f 156//261 157//261 133//261
f 156//262 133//262 132//262
f 179//263 133//263 134//263
f 157//264 158//264 134//264
f 157//265 134//265 133//265
f 179//266 134//266 135//266
f 158//267 159//267 135//267
f 158//268 135//268 134//268
f 179//269 135//269 136//269
f 159//270 160//270 136//270
f 159//271 136//271 135//271
f 179//272 136//272 137//272
f 160//273 161//273 137//273
f 160//274 137//274 136//274
f 179//275 137//275 138//275
f 161//276 162//276 138//276
f 161//277 138//277 137//277
f 179//278 138//278 139//278
f 162//279 163//279 139//279
f 162//280 139//280 138//280
f 179//281 139//281 140//281
f 163//282 164//282 140//282
f 163//283 140//283 139//283
f 179//284 140//284 141//284
f 164//285 165//285 141//285
f 164//286 141//286 140//286
f 179//287 141//287 142//287
f 165//288 166//288 142//288
f 165//289 142//289 141//289
f 179//290 142//290 143//290
f 166//291 167//291 143//291
f 166//292 143//292 142//292
f 179//293 143//293 144//293
f 167//294 168//294 144//294
f 167//295 144//295 143//295
f 179//296 144//296 145//296
f 168//297 169//297 145//297
f 168//298 145//298 144//298
f 179//299 145//299 146//299
f 169//300 170//300 146//300
f 169//301 146//301 145//301
f 179//302 146//302 147//302
f 170//303 171//303 147//303
f 170//304 147//304 146//304
f 179//305 147//305 148//305
f 171//306 172//306 148//306
f 171//307 148//307 147//307
f 179//308 148//308 149//308
f 172//309 173//309 149//309
f 172//310 149//310 148//310
f 179//311 149//311 150//311
f 173//312 174//312 150//312
f 173//313 150//313 149//313
f 179//314 150//314 151//314
f 174//315 175//315 151//315
f 174//316 151//316 150//316
f 179//317 151//317 152//317
f 175//318 176//318 152//318
f 175//319 152//319 151//319
f 179//320 152//320 153//320
f 176//321 177//321 153//321
f 176//322 153//322 152//322
f 179//323 153//323 154//323
f 177//324 178//324 154//324
f 177//325 154//325 153//325
f 179//326 154//326 131//326
f 178//327 155//327 131//327
f 178//328 131//328 154//328
