# QubeKit parametric part (generated)
v 0.76800 0.00000 0.06000
v 0.76782 0.01675 0.06000
v 0.76727 0.03350 0.06000
v 0.76636 0.05023 0.06000
v 0.64267 0.05623 0.06000
v 0.64129 0.07023 0.06000
v 0.63960 0.08421 0.06000
v 0.63761 0.09814 0.06000
v 0.75633 0.13336 0.06000
v 0.75324 0.14983 0.06000
v 0.74980 0.16623 0.06000
v 0.74599 0.18254 0.06000
v 0.62314 0.16697 0.06000
v 0.61935 0.18052 0.06000
v 0.61526 0.19399 0.06000
v 0.61088 0.20737 0.06000
v 0.72168 0.26267 0.06000
v 0.71578 0.27835 0.06000
v 0.70954 0.29390 0.06000
v 0.70296 0.30931 0.06000
v 0.58468 0.27264 0.06000
v 0.57859 0.28533 0.06000
v 0.57223 0.29788 0.06000
v 0.56559 0.31030 0.06000
v 0.55869 0.32256 0.06000
v 0.65657 0.39842 0.06000
v 0.64772 0.41265 0.06000
v 0.63857 0.42668 0.06000
v 0.52845 0.37003 0.06000
v 0.52025 0.38147 0.06000
v 0.51181 0.39272 0.06000
v 0.50312 0.40380 0.06000
v 0.58832 0.49366 0.06000
v 0.57741 0.50638 0.06000
v 0.56623 0.51885 0.06000
v 0.55478 0.53108 0.06000
v 0.45617 0.45617 0.06000
v 0.44611 0.46601 0.06000
v 0.43584 0.47563 0.06000
v 0.42536 0.48503 0.06000
v 0.49366 0.58832 0.06000
v 0.48071 0.59895 0.06000
v 0.46753 0.60930 0.06000
v 0.45413 0.61935 0.06000
v 0.37003 0.52845 0.06000
v 0.35841 0.53640 0.06000
v 0.34662 0.54409 0.06000
v 0.33467 0.55152 0.06000
v 0.32256 0.55869 0.06000
v 0.36940 0.67333 0.06000
v 0.35462 0.68122 0.06000
v 0.33968 0.68880 0.06000
v 0.27264 0.58468 0.06000
v 0.25982 0.59049 0.06000
v 0.24688 0.59601 0.06000
v 0.23382 0.60126 0.06000
v 0.22064 0.60621 0.06000
v 0.24687 0.72724 0.06000
v 0.23094 0.73245 0.06000
v 0.21491 0.73732 0.06000
v 0.16697 0.62314 0.06000
v 0.15334 0.62663 0.06000
v 0.13963 0.62983 0.06000
v 0.12586 0.63272 0.06000
v 0.13336 0.75633 0.06000
v 0.11683 0.75906 0.06000
v 0.10024 0.76143 0.06000
v 0.08361 0.76344 0.06000
v 0.05623 0.64267 0.06000
v 0.04219 0.64374 0.06000
v 0.02814 0.64451 0.06000
v 0.01407 0.64497 0.06000
v 0.00000 0.76800 0.06000
v -0.01675 0.76782 0.06000
v -0.03350 0.76727 0.06000
v -0.05023 0.76636 0.06000
v -0.05623 0.64267 0.06000
v -0.07023 0.64129 0.06000
v -0.08421 0.63960 0.06000
v -0.09814 0.63761 0.06000
v -0.13336 0.75633 0.06000
v -0.14983 0.75324 0.06000
v -0.16623 0.74980 0.06000
v -0.18254 0.74599 0.06000
v -0.16697 0.62314 0.06000
v -0.18052 0.61935 0.06000
v -0.19399 0.61526 0.06000
v -0.20737 0.61088 0.06000
v -0.26267 0.72168 0.06000
v -0.27835 0.71578 0.06000
v -0.29390 0.70954 0.06000
v -0.30931 0.70296 0.06000
v -0.27264 0.58468 0.06000
v -0.28533 0.57859 0.06000
v -0.29788 0.57223 0.06000
v -0.31030 0.56559 0.06000
v -0.32256 0.55869 0.06000
v -0.39842 0.65657 0.06000
v -0.41265 0.64772 0.06000
v -0.42668 0.63857 0.06000
v -0.37003 0.52845 0.06000
v -0.38147 0.52025 0.06000
v -0.39272 0.51181 0.06000
v -0.40380 0.50312 0.06000
v -0.49366 0.58832 0.06000
v -0.50638 0.57741 0.06000
v -0.51885 0.56623 0.06000
v -0.53108 0.55478 0.06000
v -0.45617 0.45617 0.06000
v -0.46601 0.44611 0.06000
v -0.47563 0.43584 0.06000
v -0.48503 0.42536 0.06000
v -0.49419 0.41468 0.06000
v -0.59895 0.48071 0.06000
v -0.60930 0.46753 0.06000
v -0.61935 0.45413 0.06000
v -0.52845 0.37003 0.06000
v -0.53640 0.35841 0.06000
v -0.54409 0.34662 0.06000
v -0.55152 0.33467 0.06000
v -0.66511 0.38400 0.06000
v -0.67333 0.36940 0.06000
v -0.68122 0.35462 0.06000
v -0.68880 0.33968 0.06000
v -0.58468 0.27264 0.06000
v -0.59049 0.25982 0.06000
v -0.59601 0.24688 0.06000
v -0.60126 0.23382 0.06000
v -0.72168 0.26267 0.06000
v -0.72724 0.24687 0.06000
v -0.73245 0.23094 0.06000
v -0.73732 0.21491 0.06000
v -0.62314 0.16697 0.06000
v -0.62663 0.15334 0.06000
v -0.62983 0.13963 0.06000
v -0.63272 0.12586 0.06000
v -0.63532 0.11202 0.06000
v -0.75906 0.11683 0.06000
v -0.76143 0.10024 0.06000
v -0.76344 0.08361 0.06000
v -0.64267 0.05623 0.06000
v -0.64374 0.04219 0.06000
v -0.64451 0.02814 0.06000
v -0.64497 0.01407 0.06000
v -0.76800 0.00000 0.06000
v -0.76782 -0.01675 0.06000
v -0.76727 -0.03350 0.06000
v -0.76636 -0.05023 0.06000
v -0.64267 -0.05623 0.06000
v -0.64129 -0.07023 0.06000
v -0.63960 -0.08421 0.06000
v -0.63761 -0.09814 0.06000
v -0.75633 -0.13336 0.06000
v -0.75324 -0.14983 0.06000
v -0.74980 -0.16623 0.06000
v -0.74599 -0.18254 0.06000
v -0.62314 -0.16697 0.06000
v -0.61935 -0.18052 0.06000
v -0.61526 -0.19399 0.06000
v -0.61088 -0.20737 0.06000
v -0.72168 -0.26267 0.06000
v -0.71578 -0.27835 0.06000
v -0.70954 -0.29390 0.06000
v -0.70296 -0.30931 0.06000
v -0.58468 -0.27264 0.06000
v -0.57859 -0.28533 0.06000
v -0.57223 -0.29788 0.06000
v -0.56559 -0.31030 0.06000
v -0.66511 -0.38400 0.06000
v -0.65657 -0.39842 0.06000
v -0.64772 -0.41265 0.06000
v -0.63857 -0.42668 0.06000
v -0.52845 -0.37003 0.06000
v -0.52025 -0.38147 0.06000
v -0.51181 -0.39272 0.06000
v -0.50312 -0.40380 0.06000
v -0.58832 -0.49366 0.06000
v -0.57741 -0.50638 0.06000
v -0.56623 -0.51885 0.06000
v -0.55478 -0.53108 0.06000
v -0.45617 -0.45617 0.06000
v -0.44611 -0.46601 0.06000
v -0.43584 -0.47563 0.06000
v -0.42536 -0.48503 0.06000
v -0.41468 -0.49419 0.06000
v -0.48071 -0.59895 0.06000
v -0.46753 -0.60930 0.06000
v -0.45413 -0.61935 0.06000
v -0.37003 -0.52845 0.06000
v -0.35841 -0.53640 0.06000
v -0.34662 -0.54409 0.06000
v -0.33467 -0.55152 0.06000
v -0.32256 -0.55869 0.06000
v -0.36940 -0.67333 0.06000
v -0.35462 -0.68122 0.06000
v -0.33968 -0.68880 0.06000
v -0.27264 -0.58468 0.06000
v -0.25982 -0.59049 0.06000
v -0.24688 -0.59601 0.06000
v -0.23382 -0.60126 0.06000
v -0.22064 -0.60621 0.06000
v -0.24687 -0.72724 0.06000
v -0.23094 -0.73245 0.06000
v -0.21491 -0.73732 0.06000
v -0.16697 -0.62314 0.06000
v -0.15334 -0.62663 0.06000
v -0.13963 -0.62983 0.06000
v -0.12586 -0.63272 0.06000
v -0.13336 -0.75633 0.06000
v -0.11683 -0.75906 0.06000
v -0.10024 -0.76143 0.06000
v -0.08361 -0.76344 0.06000
v -0.05623 -0.64267 0.06000
v -0.04219 -0.64374 0.06000
v -0.02814 -0.64451 0.06000
v -0.01407 -0.64497 0.06000
v -0.00000 -0.76800 0.06000
v 0.01675 -0.76782 0.06000
v 0.03350 -0.76727 0.06000
v 0.05023 -0.76636 0.06000
v 0.05623 -0.64267 0.06000
v 0.07023 -0.64129 0.06000
v 0.08421 -0.63960 0.06000
v 0.09814 -0.63761 0.06000
v 0.11202 -0.63532 0.06000
v 0.14983 -0.75324 0.06000
v 0.16623 -0.74980 0.06000
v 0.18254 -0.74599 0.06000
v 0.16697 -0.62314 0.06000
v 0.18052 -0.61935 0.06000
v 0.19399 -0.61526 0.06000
v 0.20737 -0.61088 0.06000
v 0.26267 -0.72168 0.06000
v 0.27835 -0.71578 0.06000
v 0.29390 -0.70954 0.06000
v 0.30931 -0.70296 0.06000
v 0.27264 -0.58468 0.06000
v 0.28533 -0.57859 0.06000
v 0.29788 -0.57223 0.06000
v 0.31030 -0.56559 0.06000
v 0.38400 -0.66511 0.06000
v 0.39842 -0.65657 0.06000
v 0.41265 -0.64772 0.06000
v 0.42668 -0.63857 0.06000
v 0.37003 -0.52845 0.06000
v 0.38147 -0.52025 0.06000
v 0.39272 -0.51181 0.06000
v 0.40380 -0.50312 0.06000
v 0.49366 -0.58832 0.06000
v 0.50638 -0.57741 0.06000
v 0.51885 -0.56623 0.06000
v 0.53108 -0.55478 0.06000
v 0.45617 -0.45617 0.06000
v 0.46601 -0.44611 0.06000
v 0.47563 -0.43584 0.06000
v 0.48503 -0.42536 0.06000
v 0.58832 -0.49366 0.06000
v 0.59895 -0.48071 0.06000
v 0.60930 -0.46753 0.06000
v 0.61935 -0.45413 0.06000
v 0.52845 -0.37003 0.06000
v 0.53640 -0.35841 0.06000
v 0.54409 -0.34662 0.06000
v 0.55152 -0.33467 0.06000
v 0.55869 -0.32256 0.06000
v 0.67333 -0.36940 0.06000
v 0.68122 -0.35462 0.06000
v 0.68880 -0.33968 0.06000
v 0.58468 -0.27264 0.06000
v 0.59049 -0.25982 0.06000
v 0.59601 -0.24688 0.06000
v 0.60126 -0.23382 0.06000
v 0.60621 -0.22064 0.06000
v 0.72724 -0.24687 0.06000
v 0.73245 -0.23094 0.06000
v 0.73732 -0.21491 0.06000
v 0.62314 -0.16697 0.06000
v 0.62663 -0.15334 0.06000
v 0.62983 -0.13963 0.06000
v 0.63272 -0.12586 0.06000
v 0.75633 -0.13336 0.06000
v 0.75906 -0.11683 0.06000
v 0.76143 -0.10024 0.06000
v 0.76344 -0.08361 0.06000
v 0.64267 -0.05623 0.06000
v 0.64374 -0.04219 0.06000
v 0.64451 -0.02814 0.06000
v 0.64497 -0.01407 0.06000
v 0.76800 0.00000 -0.06000
v 0.76782 0.01675 -0.06000
v 0.76727 0.03350 -0.06000
v 0.76636 0.05023 -0.06000
v 0.64267 0.05623 -0.06000
v 0.64129 0.07023 -0.06000
v 0.63960 0.08421 -0.06000
v 0.63761 0.09814 -0.06000
v 0.75633 0.13336 -0.06000
v 0.75324 0.14983 -0.06000
v 0.74980 0.16623 -0.06000
v 0.74599 0.18254 -0.06000
v 0.62314 0.16697 -0.06000
v 0.61935 0.18052 -0.06000
v 0.61526 0.19399 -0.06000
v 0.61088 0.20737 -0.06000
v 0.72168 0.26267 -0.06000
v 0.71578 0.27835 -0.06000
v 0.70954 0.29390 -0.06000
v 0.70296 0.30931 -0.06000
v 0.58468 0.27264 -0.06000
v 0.57859 0.28533 -0.06000
v 0.57223 0.29788 -0.06000
v 0.56559 0.31030 -0.06000
v 0.55869 0.32256 -0.06000
v 0.65657 0.39842 -0.06000
v 0.64772 0.41265 -0.06000
v 0.63857 0.42668 -0.06000
v 0.52845 0.37003 -0.06000
v 0.52025 0.38147 -0.06000
v 0.51181 0.39272 -0.06000
v 0.50312 0.40380 -0.06000
v 0.58832 0.49366 -0.06000
v 0.57741 0.50638 -0.06000
v 0.56623 0.51885 -0.06000
v 0.55478 0.53108 -0.06000
v 0.45617 0.45617 -0.06000
v 0.44611 0.46601 -0.06000
v 0.43584 0.47563 -0.06000
v 0.42536 0.48503 -0.06000
v 0.49366 0.58832 -0.06000
v 0.48071 0.59895 -0.06000
v 0.46753 0.60930 -0.06000
v 0.45413 0.61935 -0.06000
v 0.37003 0.52845 -0.06000
v 0.35841 0.53640 -0.06000
v 0.34662 0.54409 -0.06000
v 0.33467 0.55152 -0.06000
v 0.32256 0.55869 -0.06000
v 0.36940 0.67333 -0.06000
v 0.35462 0.68122 -0.06000
v 0.33968 0.68880 -0.06000
v 0.27264 0.58468 -0.06000
v 0.25982 0.59049 -0.06000
v 0.24688 0.59601 -0.06000
v 0.23382 0.60126 -0.06000
v 0.22064 0.60621 -0.06000
v 0.24687 0.72724 -0.06000
v 0.23094 0.73245 -0.06000
v 0.21491 0.73732 -0.06000
v 0.16697 0.62314 -0.06000
v 0.15334 0.62663 -0.06000
v 0.13963 0.62983 -0.06000
v 0.12586 0.63272 -0.06000
v 0.13336 0.75633 -0.06000
v 0.11683 0.75906 -0.06000
v 0.10024 0.76143 -0.06000
v 0.08361 0.76344 -0.06000
v 0.05623 0.64267 -0.06000
v 0.04219 0.64374 -0.06000
v 0.02814 0.64451 -0.06000
v 0.01407 0.64497 -0.06000
v 0.00000 0.76800 -0.06000
v -0.01675 0.76782 -0.06000
v -0.03350 0.76727 -0.06000
v -0.05023 0.76636 -0.06000
v -0.05623 0.64267 -0.06000
v -0.07023 0.64129 -0.06000
v -0.08421 0.63960 -0.06000
v -0.09814 0.63761 -0.06000
v -0.13336 0.75633 -0.06000
v -0.14983 0.75324 -0.06000
v -0.16623 0.74980 -0.06000
v -0.18254 0.74599 -0.06000
v -0.16697 0.62314 -0.06000
v -0.18052 0.61935 -0.06000
v -0.19399 0.61526 -0.06000
v -0.20737 0.61088 -0.06000
v -0.26267 0.72168 -0.06000
v -0.27835 0.71578 -0.06000
v -0.29390 0.70954 -0.06000
v -0.30931 0.70296 -0.06000
v -0.27264 0.58468 -0.06000
v -0.28533 0.57859 -0.06000
v -0.29788 0.57223 -0.06000
v -0.31030 0.56559 -0.06000
v -0.32256 0.55869 -0.06000
v -0.39842 0.65657 -0.06000
v -0.41265 0.64772 -0.06000
v -0.42668 0.63857 -0.06000
v -0.37003 0.52845 -0.06000
v -0.38147 0.52025 -0.06000
v -0.39272 0.51181 -0.06000
v -0.40380 0.50312 -0.06000
v -0.49366 0.58832 -0.06000
v -0.50638 0.57741 -0.06000
v -0.51885 0.56623 -0.06000
v -0.53108 0.55478 -0.06000
v -0.45617 0.45617 -0.06000
v -0.46601 0.44611 -0.06000
v -0.47563 0.43584 -0.06000
v -0.48503 0.42536 -0.06000
v -0.49419 0.41468 -0.06000
v -0.59895 0.48071 -0.06000
v -0.60930 0.46753 -0.06000
v -0.61935 0.45413 -0.06000
v -0.52845 0.37003 -0.06000
v -0.53640 0.35841 -0.06000
v -0.54409 0.34662 -0.06000
v -0.55152 0.33467 -0.06000
v -0.66511 0.38400 -0.06000
v -0.67333 0.36940 -0.06000
v -0.68122 0.35462 -0.06000
v -0.68880 0.33968 -0.06000
v -0.58468 0.27264 -0.06000
v -0.59049 0.25982 -0.06000
v -0.59601 0.24688 -0.06000
v -0.60126 0.23382 -0.06000
v -0.72168 0.26267 -0.06000
v -0.72724 0.24687 -0.06000
v -0.73245 0.23094 -0.06000
v -0.73732 0.21491 -0.06000
v -0.62314 0.16697 -0.06000
v -0.62663 0.15334 -0.06000
v -0.62983 0.13963 -0.06000
v -0.63272 0.12586 -0.06000
v -0.63532 0.11202 -0.06000
v -0.75906 0.11683 -0.06000
v -0.76143 0.10024 -0.06000
v -0.76344 0.08361 -0.06000
v -0.64267 0.05623 -0.06000
v -0.64374 0.04219 -0.06000
v -0.64451 0.02814 -0.06000
v -0.64497 0.01407 -0.06000
v -0.76800 0.00000 -0.06000
v -0.76782 -0.01675 -0.06000
v -0.76727 -0.03350 -0.06000
v -0.76636 -0.05023 -0.06000
v -0.64267 -0.05623 -0.06000
v -0.64129 -0.07023 -0.06000
v -0.63960 -0.08421 -0.06000
v -0.63761 -0.09814 -0.06000
v -0.75633 -0.13336 -0.06000
v -0.75324 -0.14983 -0.06000
v -0.74980 -0.16623 -0.06000
v -0.74599 -0.18254 -0.06000
v -0.62314 -0.16697 -0.06000
v -0.61935 -0.18052 -0.06000
v -0.61526 -0.19399 -0.06000
v -0.61088 -0.20737 -0.06000
v -0.72168 -0.26267 -0.06000
v -0.71578 -0.27835 -0.06000
v -0.70954 -0.29390 -0.06000
v -0.70296 -0.30931 -0.06000
v -0.58468 -0.27264 -0.06000
v -0.57859 -0.28533 -0.06000
v -0.57223 -0.29788 -0.06000
v -0.56559 -0.31030 -0.06000
v -0.66511 -0.38400 -0.06000
v -0.65657 -0.39842 -0.06000
v -0.64772 -0.41265 -0.06000
v -0.63857 -0.42668 -0.06000
v -0.52845 -0.37003 -0.06000
v -0.52025 -0.38147 -0.06000
v -0.51181 -0.39272 -0.06000
v -0.50312 -0.40380 -0.06000
v -0.58832 -0.49366 -0.06000
v -0.57741 -0.50638 -0.06000
v -0.56623 -0.51885 -0.06000
v -0.55478 -0.53108 -0.06000
v -0.45617 -0.45617 -0.06000
v -0.44611 -0.46601 -0.06000
v -0.43584 -0.47563 -0.06000
v -0.42536 -0.48503 -0.06000
v -0.41468 -0.49419 -0.06000
v -0.48071 -0.59895 -0.06000
v -0.46753 -0.60930 -0.06000
v -0.45413 -0.61935 -0.06000
v -0.37003 -0.52845 -0.06000
v -0.35841 -0.53640 -0.06000
v -0.34662 -0.54409 -0.06000
v -0.33467 -0.55152 -0.06000
v -0.32256 -0.55869 -0.06000
v -0.36940 -0.67333 -0.06000
v -0.35462 -0.68122 -0.06000
v -0.33968 -0.68880 -0.06000
v -0.27264 -0.58468 -0.06000
v -0.25982 -0.59049 -0.06000
v -0.24688 -0.59601 -0.06000
v -0.23382 -0.60126 -0.06000
v -0.22064 -0.60621 -0.06000
v -0.24687 -0.72724 -0.06000
v -0.23094 -0.73245 -0.06000
v -0.21491 -0.73732 -0.06000
v -0.16697 -0.62314 -0.06000
v -0.15334 -0.62663 -0.06000
v -0.13963 -0.62983 -0.06000
v -0.12586 -0.63272 -0.06000
v -0.13336 -0.75633 -0.06000
v -0.11683 -0.75906 -0.06000
v -0.10024 -0.76143 -0.06000
v -0.08361 -0.76344 -0.06000
v -0.05623 -0.64267 -0.06000
v -0.04219 -0.64374 -0.06000
v -0.02814 -0.64451 -0.06000
v -0.01407 -0.64497 -0.06000
v -0.00000 -0.76800 -0.06000
v 0.01675 -0.76782 -0.06000
v 0.03350 -0.76727 -0.06000
v 0.05023 -0.76636 -0.06000
v 0.05623 -0.64267 -0.06000
v 0.07023 -0.64129 -0.06000
v 0.08421 -0.63960 -0.06000
v 0.09814 -0.63761 -0.06000
v 0.11202 -0.63532 -0.06000
v 0.14983 -0.75324 -0.06000
v 0.16623 -0.74980 -0.06000
v 0.18254 -0.74599 -0.06000
v 0.16697 -0.62314 -0.06000
v 0.18052 -0.61935 -0.06000
v 0.19399 -0.61526 -0.06000
v 0.20737 -0.61088 -0.06000
v 0.26267 -0.72168 -0.06000
v 0.27835 -0.71578 -0.06000
v 0.29390 -0.70954 -0.06000
v 0.30931 -0.70296 -0.06000
v 0.27264 -0.58468 -0.06000
v 0.28533 -0.57859 -0.06000
v 0.29788 -0.57223 -0.06000
v 0.31030 -0.56559 -0.06000
v 0.38400 -0.66511 -0.06000
v 0.39842 -0.65657 -0.06000
v 0.41265 -0.64772 -0.06000
v 0.42668 -0.63857 -0.06000
v 0.37003 -0.52845 -0.06000
v 0.38147 -0.52025 -0.06000
v 0.39272 -0.51181 -0.06000
v 0.40380 -0.50312 -0.06000
v 0.49366 -0.58832 -0.06000
v 0.50638 -0.57741 -0.06000
v 0.51885 -0.56623 -0.06000
v 0.53108 -0.55478 -0.06000
v 0.45617 -0.45617 -0.06000
v 0.46601 -0.44611 -0.06000
v 0.47563 -0.43584 -0.06000
v 0.48503 -0.42536 -0.06000
v 0.58832 -0.49366 -0.06000
v 0.59895 -0.48071 -0.06000
v 0.60930 -0.46753 -0.06000
v 0.61935 -0.45413 -0.06000
v 0.52845 -0.37003 -0.06000
v 0.53640 -0.35841 -0.06000
v 0.54409 -0.34662 -0.06000
v 0.55152 -0.33467 -0.06000
v 0.55869 -0.32256 -0.06000
v 0.67333 -0.36940 -0.06000
v 0.68122 -0.35462 -0.06000
v 0.68880 -0.33968 -0.06000
v 0.58468 -0.27264 -0.06000
v 0.59049 -0.25982 -0.06000
v 0.59601 -0.24688 -0.06000
v 0.60126 -0.23382 -0.06000
v 0.60621 -0.22064 -0.06000
v 0.72724 -0.24687 -0.06000
v 0.73245 -0.23094 -0.06000
v 0.73732 -0.21491 -0.06000
v 0.62314 -0.16697 -0.06000
v 0.62663 -0.15334 -0.06000
v 0.62983 -0.13963 -0.06000
v 0.63272 -0.12586 -0.06000
v 0.75633 -0.13336 -0.06000
v 0.75906 -0.11683 -0.06000
v 0.76143 -0.10024 -0.06000
v 0.76344 -0.08361 -0.06000
v 0.64267 -0.05623 -0.06000
v 0.64374 -0.04219 -0.06000
v 0.64451 -0.02814 -0.06000
v 0.64497 -0.01407 -0.06000
v 0.00000 0.00000 0.06000
v 0.00000 0.00000 -0.06000
v 0.34000 0.00000 0.10800
v 0.32841 0.08800 0.10800
v 0.29445 0.17000 0.10800
v 0.24042 0.24042 0.10800
v 0.17000 0.29445 0.10800
v 0.08800 0.32841 0.10800
v 0.00000 0.34000 0.10800
v -0.08800 0.32841 0.10800
v -0.17000 0.29445 0.10800
v -0.24042 0.24042 0.10800
v -0.29445 0.17000 0.10800
v -0.32841 0.08800 0.10800
v -0.34000 0.00000 0.10800
v -0.32841 -0.08800 0.10800
v -0.29445 -0.17000 0.10800
v -0.24042 -0.24042 0.10800
v -0.17000 -0.29445 0.10800
v -0.08800 -0.32841 0.10800
v -0.00000 -0.34000 0.10800
v 0.08800 -0.32841 0.10800
v 0.17000 -0.29445 0.10800
v 0.24042 -0.24042 0.10800
v 0.29445 -0.17000 0.10800
v 0.32841 -0.08800 0.10800
v 0.34000 0.00000 0.06000
v 0.32841 0.08800 0.06000
v 0.29445 0.17000 0.06000
v 0.24042 0.24042 0.06000
v 0.17000 0.29445 0.06000
v 0.08800 0.32841 0.06000
v 0.00000 0.34000 0.06000
v -0.08800 0.32841 0.06000
v -0.17000 0.29445 0.06000
v -0.24042 0.24042 0.06000
v -0.29445 0.17000 0.06000
v -0.32841 0.08800 0.06000
v -0.34000 0.00000 0.06000
v -0.32841 -0.08800 0.06000
v -0.29445 -0.17000 0.06000
v -0.24042 -0.24042 0.06000
v -0.17000 -0.29445 0.06000
v -0.08800 -0.32841 0.06000
v -0.00000 -0.34000 0.06000
v 0.08800 -0.32841 0.06000
v 0.17000 -0.29445 0.06000
v 0.24042 -0.24042 0.06000
v 0.29445 -0.17000 0.06000
v 0.32841 -0.08800 0.06000
v 0.00000 0.00000 0.10800
vn 0.0000 0.0000 1.0000
vn 0.0000 0.0000 -1.0000
vn 0.9999 0.0109 0.0000
vn 0.9999 0.0109 -0.0000
vn 0.0000 0.0000 1.0000
vn 0.0000 0.0000 -1.0000
vn 0.9995 0.0327 0.0000
vn 0.9995 0.0327 -0.0000
vn 0.0000 0.0000 1.0000
vn 0.0000 0.0000 -1.0000
vn 0.9985 0.0545 0.0000
vn 0.9985 0.0545 -0.0000
vn 0.0000 0.0000 1.0000
vn 0.0000 0.0000 -1.0000
vn 0.0484 0.9988 0.0000
vn 0.0484 0.9988 -0.0000
vn 0.0000 0.0000 1.0000
vn 0.0000 0.0000 -1.0000
vn 0.9952 0.0980 0.0000
vn 0.9952 0.0980 -0.0000
vn 0.0000 0.0000 1.0000
vn 0.0000 0.0000 -1.0000
vn 0.9928 0.1197 0.0000
vn 0.9928 0.1197 -0.0000
vn 0.0000 0.0000 1.0000
vn 0.0000 0.0000 -1.0000
vn 0.9900 0.1413 0.0000
vn 0.9900 0.1413 -0.0000
vn 0.0000 0.0000 1.0000
vn 0.0000 0.0000 -1.0000
vn 0.2844 -0.9587 0.0000
vn 0.2844 -0.9587 0.0000
vn 0.0000 0.0000 1.0000
vn 0.0000 0.0000 -1.0000
vn 0.9829 0.1844 0.0000
vn 0.9829 0.1844 -0.0000
vn 0.0000 0.0000 1.0000
vn 0.0000 0.0000 -1.0000
vn 0.9786 0.2058 0.0000
vn 0.9786 0.2058 -0.0000
vn 0.0000 0.0000 1.0000
vn 0.0000 0.0000 -1.0000
vn 0.9739 0.2271 0.0000
vn 0.9739 0.2271 -0.0000
vn 0.0000 0.0000 1.0000
vn 0.0000 0.0000 -1.0000
vn -0.1258 0.9921 0.0000
vn -0.1258 0.9921 0.0000
vn 0.0000 0.0000 1.0000
vn 0.0000 0.0000 -1.0000
vn 0.9630 0.2693 0.0000
vn 0.9630 0.2693 -0.0000
vn 0.0000 0.0000 1.0000
vn 0.0000 0.0000 -1.0000
vn 0.9569 0.2903 0.0000
vn 0.9569 0.2903 -0.0000
vn 0.0000 0.0000 1.0000
vn 0.0000 0.0000 -1.0000
vn 0.9504 0.3111 0.0000
vn 0.9504 0.3111 -0.0000
vn 0.0000 0.0000 1.0000
vn 0.0000 0.0000 -1.0000
vn 0.4466 -0.8947 0.0000
vn 0.4466 -0.8947 0.0000
vn 0.0000 0.0000 1.0000
vn 0.0000 0.0000 -1.0000
vn 0.9359 0.3523 0.0000
vn 0.9359 0.3523 -0.0000
vn 0.0000 0.0000 1.0000
vn 0.0000 0.0000 -1.0000
vn 0.9280 0.3726 0.0000
vn 0.9280 0.3726 -0.0000
vn 0.0000 0.0000 1.0000
vn 0.0000 0.0000 -1.0000
vn 0.9197 0.3927 0.0000
vn 0.9197 0.3927 -0.0000
vn 0.0000 0.0000 1.0000
vn 0.0000 0.0000 -1.0000
vn -0.2961 0.9552 0.0000
vn -0.2961 0.9552 0.0000
vn 0.0000 0.0000 1.0000
vn 0.0000 0.0000 -1.0000
vn 0.9016 0.4325 0.0000
vn 0.9016 0.4325 -0.0000
vn 0.0000 0.0000 1.0000
vn 0.0000 0.0000 -1.0000
vn 0.8920 0.4520 0.0000
vn 0.8920 0.4520 -0.0000
vn 0.0000 0.0000 1.0000
vn 0.0000 0.0000 -1.0000
vn 0.8819 0.4714 0.0000
vn 0.8819 0.4714 -0.0000
vn 0.0000 0.0000 1.0000
vn 0.0000 0.0000 -1.0000
vn 0.8714 0.4905 0.0000
vn 0.8714 0.4905 -0.0000
vn 0.0000 0.0000 1.0000
vn 0.0000 0.0000 -1.0000
vn 0.6126 -0.7904 0.0000
vn 0.6126 -0.7904 0.0000
vn 0.0000 0.0000 1.0000
vn 0.0000 0.0000 -1.0000
vn 0.8492 0.5281 0.0000
vn 0.8492 0.5281 -0.0000
vn 0.0000 0.0000 1.0000
vn 0.0000 0.0000 -1.0000
vn 0.8375 0.5465 0.0000
vn 0.8375 0.5465 -0.0000
vn 0.0000 0.0000 1.0000
vn 0.0000 0.0000 -1.0000
vn -0.4575 0.8892 0.0000
vn -0.4575 0.8892 0.0000
vn 0.0000 0.0000 1.0000
vn 0.0000 0.0000 -1.0000
vn 0.8128 0.5825 0.0000
vn 0.8128 0.5825 -0.0000
vn 0.0000 0.0000 1.0000
vn 0.0000 0.0000 -1.0000
vn 0.7999 0.6001 0.0000
vn 0.7999 0.6001 -0.0000
vn 0.0000 0.0000 1.0000
vn 0.0000 0.0000 -1.0000
vn 0.7867 0.6174 0.0000
vn 0.7867 0.6174 -0.0000
vn 0.0000 0.0000 1.0000
vn 0.0000 0.0000 -1.0000
vn 0.7257 -0.6880 0.0000
vn 0.7257 -0.6880 0.0000
vn 0.0000 0.0000 1.0000
vn 0.0000 0.0000 -1.0000
vn 0.7590 0.6511 0.0000
vn 0.7590 0.6511 -0.0000
vn 0.0000 0.0000 1.0000
vn 0.0000 0.0000 -1.0000
vn 0.7446 0.6675 0.0000
vn 0.7446 0.6675 -0.0000
vn 0.0000 0.0000 1.0000
vn 0.0000 0.0000 -1.0000
vn 0.7299 0.6836 0.0000
vn 0.7299 0.6836 -0.0000
vn 0.0000 0.0000 1.0000
vn 0.0000 0.0000 -1.0000
vn -0.6049 0.7963 0.0000
vn -0.6049 0.7963 0.0000
vn 0.0000 0.0000 1.0000
vn 0.0000 0.0000 -1.0000
vn 0.6994 0.7148 0.0000
vn 0.6994 0.7148 -0.0000
vn 0.0000 0.0000 1.0000
vn 0.0000 0.0000 -1.0000
vn 0.6836 0.7299 0.0000
vn 0.6836 0.7299 -0.0000
vn 0.0000 0.0000 1.0000
vn 0.0000 0.0000 -1.0000
vn 0.6675 0.7446 0.0000
vn 0.6675 0.7446 -0.0000
vn 0.0000 0.0000 1.0000
vn 0.0000 0.0000 -1.0000
vn 0.8341 -0.5516 0.0000
vn 0.8341 -0.5516 0.0000
vn 0.0000 0.0000 1.0000
vn 0.0000 0.0000 -1.0000
vn 0.6344 0.7730 0.0000
vn 0.6344 0.7730 -0.0000
vn 0.0000 0.0000 1.0000
vn 0.0000 0.0000 -1.0000
vn 0.6174 0.7867 0.0000
vn 0.6174 0.7867 -0.0000
vn 0.0000 0.0000 1.0000
vn 0.0000 0.0000 -1.0000
vn 0.6001 0.7999 0.0000
vn 0.6001 0.7999 -0.0000
vn 0.0000 0.0000 1.0000
vn 0.0000 0.0000 -1.0000
vn -0.7340 0.6791 0.0000
vn -0.7340 0.6791 0.0000
vn 0.0000 0.0000 1.0000
vn 0.0000 0.0000 -1.0000
vn 0.5646 0.8254 0.0000
vn 0.5646 0.8254 -0.0000
vn 0.0000 0.0000 1.0000
vn 0.0000 0.0000 -1.0000
vn 0.5465 0.8375 0.0000
vn 0.5465 0.8375 -0.0000
vn 0.0000 0.0000 1.0000
vn 0.0000 0.0000 -1.0000
vn 0.5281 0.8492 0.0000
vn 0.5281 0.8492 -0.0000
vn 0.0000 0.0000 1.0000
vn 0.0000 0.0000 -1.0000
vn 0.5094 0.8605 0.0000
vn 0.5094 0.8605 -0.0000
vn 0.0000 0.0000 1.0000
vn 0.0000 0.0000 -1.0000
vn 0.9257 -0.3782 0.0000
vn 0.9257 -0.3782 0.0000
vn 0.0000 0.0000 1.0000
vn 0.0000 0.0000 -1.0000
vn 0.4714 0.8819 0.0000
vn 0.4714 0.8819 -0.0000
vn 0.0000 0.0000 1.0000
vn 0.0000 0.0000 -1.0000
vn 0.4520 0.8920 0.0000
vn 0.4520 0.8920 -0.0000
vn 0.0000 0.0000 1.0000
vn 0.0000 0.0000 -1.0000
vn -0.8408 0.5413 0.0000
vn -0.8408 0.5413 0.0000
vn 0.0000 0.0000 1.0000
vn 0.0000 0.0000 -1.0000
vn 0.4127 0.9109 0.0000
vn 0.4127 0.9109 -0.0000
vn 0.0000 0.0000 1.0000
vn 0.0000 0.0000 -1.0000
vn 0.3927 0.9197 0.0000
vn 0.3927 0.9197 -0.0000
vn 0.0000 0.0000 1.0000
vn 0.0000 0.0000 -1.0000
vn 0.3726 0.9280 0.0000
vn 0.3726 0.9280 -0.0000
vn 0.0000 0.0000 1.0000
vn 0.0000 0.0000 -1.0000
vn 0.3523 0.9359 0.0000
vn 0.3523 0.9359 -0.0000
vn 0.0000 0.0000 1.0000
vn 0.0000 0.0000 -1.0000
vn 0.9773 -0.2117 0.0000
vn 0.9773 -0.2117 0.0000
vn 0.0000 0.0000 1.0000
vn 0.0000 0.0000 -1.0000
vn 0.3111 0.9504 0.0000
vn 0.3111 0.9504 -0.0000
vn 0.0000 0.0000 1.0000
vn 0.0000 0.0000 -1.0000
vn 0.2903 0.9569 0.0000
vn 0.2903 0.9569 -0.0000
vn 0.0000 0.0000 1.0000
vn 0.0000 0.0000 -1.0000
vn -0.9220 0.3871 0.0000
vn -0.9220 0.3871 0.0000
vn 0.0000 0.0000 1.0000
vn 0.0000 0.0000 -1.0000
vn 0.2483 0.9687 0.0000
vn 0.2483 0.9687 -0.0000
vn 0.0000 0.0000 1.0000
vn 0.0000 0.0000 -1.0000
vn 0.2271 0.9739 0.0000
vn 0.2271 0.9739 -0.0000
vn 0.0000 0.0000 1.0000
vn 0.0000 0.0000 -1.0000
vn 0.2058 0.9786 0.0000
vn 0.2058 0.9786 -0.0000
vn 0.0000 0.0000 1.0000
vn 0.0000 0.0000 -1.0000
vn 0.9982 -0.0606 0.0000
vn 0.9982 -0.0606 0.0000
vn 0.0000 0.0000 1.0000
vn 0.0000 0.0000 -1.0000
vn 0.1629 0.9866 0.0000
vn 0.1629 0.9866 -0.0000
vn 0.0000 0.0000 1.0000
vn 0.0000 0.0000 -1.0000
vn 0.1413 0.9900 0.0000
vn 0.1413 0.9900 -0.0000
vn 0.0000 0.0000 1.0000
vn 0.0000 0.0000 -1.0000
vn 0.1197 0.9928 0.0000
vn 0.1197 0.9928 -0.0000
vn 0.0000 0.0000 1.0000
vn 0.0000 0.0000 -1.0000
vn -0.9752 0.2211 0.0000
vn -0.9752 0.2211 0.0000
vn 0.0000 0.0000 1.0000
vn 0.0000 0.0000 -1.0000
vn 0.0763 0.9971 0.0000
vn 0.0763 0.9971 -0.0000
vn 0.0000 0.0000 1.0000
vn 0.0000 0.0000 -1.0000
vn 0.0545 0.9985 0.0000
vn 0.0545 0.9985 -0.0000
vn 0.0000 0.0000 1.0000
vn 0.0000 0.0000 -1.0000
vn 0.0327 0.9995 0.0000
vn 0.0327 0.9995 -0.0000
vn 0.0000 0.0000 1.0000
vn 0.0000 0.0000 -1.0000
vn 0.9935 0.1136 0.0000
vn 0.9935 0.1136 -0.0000
vn 0.0000 -0.0000 1.0000
vn 0.0000 0.0000 -1.0000
vn -0.0109 0.9999 0.0000
vn -0.0109 0.9999 0.0000
vn 0.0000 0.0000 1.0000
vn 0.0000 0.0000 -1.0000
vn -0.0327 0.9995 0.0000
vn -0.0327 0.9995 0.0000
vn 0.0000 0.0000 1.0000
vn 0.0000 0.0000 -1.0000
vn -0.0545 0.9985 0.0000
vn -0.0545 0.9985 0.0000
vn 0.0000 0.0000 1.0000
vn 0.0000 0.0000 -1.0000
vn -0.9988 0.0484 0.0000
vn -0.9988 0.0484 0.0000
vn 0.0000 0.0000 1.0000
vn 0.0000 0.0000 -1.0000
vn -0.0980 0.9952 0.0000
vn -0.0980 0.9952 0.0000
vn 0.0000 0.0000 1.0000
vn 0.0000 0.0000 -1.0000
vn -0.1197 0.9928 0.0000
vn -0.1197 0.9928 0.0000
vn 0.0000 0.0000 1.0000
vn 0.0000 0.0000 -1.0000
vn -0.1413 0.9900 0.0000
vn -0.1413 0.9900 0.0000
vn 0.0000 0.0000 1.0000
vn 0.0000 0.0000 -1.0000
vn 0.9587 0.2844 0.0000
vn 0.9587 0.2844 -0.0000
vn 0.0000 0.0000 1.0000
vn 0.0000 0.0000 -1.0000
vn -0.1844 0.9829 0.0000
vn -0.1844 0.9829 0.0000
vn 0.0000 0.0000 1.0000
vn 0.0000 0.0000 -1.0000
vn -0.2058 0.9786 0.0000
vn -0.2058 0.9786 0.0000
vn 0.0000 0.0000 1.0000
vn 0.0000 0.0000 -1.0000
vn -0.2271 0.9739 0.0000
vn -0.2271 0.9739 0.0000
vn 0.0000 0.0000 1.0000
vn 0.0000 0.0000 -1.0000
vn -0.9921 -0.1258 0.0000
vn -0.9921 -0.1258 0.0000
vn 0.0000 0.0000 1.0000
vn 0.0000 0.0000 -1.0000
vn -0.2693 0.9630 0.0000
vn -0.2693 0.9630 0.0000
vn 0.0000 0.0000 1.0000
vn 0.0000 0.0000 -1.0000
vn -0.2903 0.9569 0.0000
vn -0.2903 0.9569 0.0000
vn 0.0000 0.0000 1.0000
vn 0.0000 0.0000 -1.0000
vn -0.3111 0.9504 0.0000
vn -0.3111 0.9504 0.0000
vn 0.0000 0.0000 1.0000
vn 0.0000 0.0000 -1.0000
vn 0.8947 0.4466 0.0000
vn 0.8947 0.4466 -0.0000
vn 0.0000 0.0000 1.0000
vn 0.0000 0.0000 -1.0000
vn -0.3523 0.9359 0.0000
vn -0.3523 0.9359 0.0000
vn 0.0000 0.0000 1.0000
vn 0.0000 0.0000 -1.0000
vn -0.3726 0.9280 0.0000
vn -0.3726 0.9280 0.0000
vn 0.0000 0.0000 1.0000
vn 0.0000 0.0000 -1.0000
vn -0.3927 0.9197 0.0000
vn -0.3927 0.9197 0.0000
vn 0.0000 0.0000 1.0000
vn 0.0000 0.0000 -1.0000
vn -0.9552 -0.2961 0.0000
vn -0.9552 -0.2961 0.0000
vn 0.0000 0.0000 1.0000
vn 0.0000 0.0000 -1.0000
vn -0.4325 0.9016 0.0000
vn -0.4325 0.9016 0.0000
vn 0.0000 0.0000 1.0000
vn 0.0000 0.0000 -1.0000
vn -0.4520 0.8920 0.0000
vn -0.4520 0.8920 0.0000
vn 0.0000 0.0000 1.0000
vn 0.0000 0.0000 -1.0000
vn -0.4714 0.8819 0.0000
vn -0.4714 0.8819 0.0000
vn 0.0000 0.0000 1.0000
vn 0.0000 0.0000 -1.0000
vn -0.4905 0.8714 0.0000
vn -0.4905 0.8714 0.0000
vn 0.0000 0.0000 1.0000
vn 0.0000 0.0000 -1.0000
vn 0.7904 0.6126 0.0000
vn 0.7904 0.6126 -0.0000
vn 0.0000 0.0000 1.0000
vn 0.0000 0.0000 -1.0000
vn -0.5281 0.8492 0.0000
vn -0.5281 0.8492 0.0000
vn 0.0000 0.0000 1.0000
vn 0.0000 0.0000 -1.0000
vn -0.5465 0.8375 0.0000
vn -0.5465 0.8375 0.0000
vn 0.0000 0.0000 1.0000
vn 0.0000 0.0000 -1.0000
vn -0.8892 -0.4575 0.0000
vn -0.8892 -0.4575 0.0000
vn 0.0000 0.0000 1.0000
vn 0.0000 0.0000 -1.0000
vn -0.5825 0.8128 0.0000
vn -0.5825 0.8128 0.0000
vn 0.0000 0.0000 1.0000
vn 0.0000 0.0000 -1.0000
vn -0.6001 0.7999 0.0000
vn -0.6001 0.7999 0.0000
vn 0.0000 0.0000 1.0000
vn 0.0000 0.0000 -1.0000
vn -0.6174 0.7867 0.0000
vn -0.6174 0.7867 0.0000
vn 0.0000 0.0000 1.0000
vn 0.0000 0.0000 -1.0000
vn 0.6880 0.7257 0.0000
vn 0.6880 0.7257 -0.0000
vn 0.0000 0.0000 1.0000
vn 0.0000 0.0000 -1.0000
vn -0.6511 0.7590 0.0000
vn -0.6511 0.7590 0.0000
vn 0.0000 0.0000 1.0000
vn 0.0000 0.0000 -1.0000
vn -0.6675 0.7446 0.0000
vn -0.6675 0.7446 0.0000
vn 0.0000 0.0000 1.0000
vn 0.0000 0.0000 -1.0000
vn -0.6836 0.7299 0.0000
vn -0.6836 0.7299 0.0000
vn 0.0000 0.0000 1.0000
vn 0.0000 0.0000 -1.0000
vn -0.7963 -0.6049 0.0000
vn -0.7963 -0.6049 0.0000
vn 0.0000 0.0000 1.0000
vn 0.0000 0.0000 -1.0000
vn -0.7148 0.6994 0.0000
vn -0.7148 0.6994 0.0000
vn 0.0000 0.0000 1.0000
vn 0.0000 0.0000 -1.0000
vn -0.7299 0.6836 0.0000
vn -0.7299 0.6836 0.0000
vn 0.0000 0.0000 1.0000
vn 0.0000 0.0000 -1.0000
vn -0.7446 0.6675 0.0000
vn -0.7446 0.6675 0.0000
vn 0.0000 0.0000 1.0000
vn 0.0000 0.0000 -1.0000
vn -0.7590 0.6511 0.0000
vn -0.7590 0.6511 0.0000
vn 0.0000 0.0000 1.0000
vn 0.0000 0.0000 -1.0000
vn 0.5332 0.8460 0.0000
vn 0.5332 0.8460 -0.0000
vn 0.0000 0.0000 1.0000
vn 0.0000 0.0000 -1.0000
vn -0.7867 0.6174 0.0000
vn -0.7867 0.6174 0.0000
vn 0.0000 0.0000 1.0000
vn 0.0000 0.0000 -1.0000
vn -0.7999 0.6001 0.0000
vn -0.7999 0.6001 0.0000
vn 0.0000 0.0000 1.0000
vn 0.0000 0.0000 -1.0000
vn -0.6791 -0.7340 0.0000
vn -0.6791 -0.7340 0.0000
vn 0.0000 0.0000 1.0000
vn 0.0000 0.0000 -1.0000
vn -0.8254 0.5646 0.0000
vn -0.8254 0.5646 0.0000
vn 0.0000 0.0000 1.0000
vn 0.0000 0.0000 -1.0000
vn -0.8375 0.5465 0.0000
vn -0.8375 0.5465 0.0000
vn 0.0000 0.0000 1.0000
vn 0.0000 0.0000 -1.0000
vn -0.8492 0.5281 0.0000
vn -0.8492 0.5281 0.0000
vn 0.0000 0.0000 1.0000
vn 0.0000 0.0000 -1.0000
vn 0.3983 0.9172 0.0000
vn 0.3983 0.9172 -0.0000
vn 0.0000 0.0000 1.0000
vn 0.0000 0.0000 -1.0000
vn -0.8714 0.4905 0.0000
vn -0.8714 0.4905 0.0000
vn 0.0000 0.0000 1.0000
vn 0.0000 0.0000 -1.0000
vn -0.8819 0.4714 0.0000
vn -0.8819 0.4714 0.0000
vn 0.0000 0.0000 1.0000
vn 0.0000 0.0000 -1.0000
vn -0.8920 0.4520 0.0000
vn -0.8920 0.4520 0.0000
vn 0.0000 0.0000 1.0000
vn 0.0000 0.0000 -1.0000
vn -0.5413 -0.8408 0.0000
vn -0.5413 -0.8408 0.0000
vn 0.0000 0.0000 1.0000
vn 0.0000 0.0000 -1.0000
vn -0.9109 0.4127 0.0000
vn -0.9109 0.4127 0.0000
vn 0.0000 0.0000 1.0000
vn 0.0000 0.0000 -1.0000
vn -0.9197 0.3927 0.0000
vn -0.9197 0.3927 0.0000
vn 0.0000 0.0000 1.0000
vn 0.0000 0.0000 -1.0000
vn -0.9280 0.3726 0.0000
vn -0.9280 0.3726 0.0000
vn 0.0000 0.0000 1.0000
vn 0.0000 0.0000 -1.0000
vn 0.2330 0.9725 0.0000
vn 0.2330 0.9725 -0.0000
vn 0.0000 0.0000 1.0000
vn 0.0000 0.0000 -1.0000
vn -0.9434 0.3317 0.0000
vn -0.9434 0.3317 0.0000
vn 0.0000 0.0000 1.0000
vn 0.0000 0.0000 -1.0000
vn -0.9504 0.3111 0.0000
vn -0.9504 0.3111 0.0000
vn 0.0000 0.0000 1.0000
vn 0.0000 0.0000 -1.0000
vn -0.9569 0.2903 0.0000
vn -0.9569 0.2903 0.0000
vn 0.0000 0.0000 1.0000
vn 0.0000 0.0000 -1.0000
vn -0.3871 -0.9220 0.0000
vn -0.3871 -0.9220 0.0000
vn 0.0000 0.0000 1.0000
vn 0.0000 0.0000 -1.0000
vn -0.9687 0.2483 0.0000
vn -0.9687 0.2483 0.0000
vn 0.0000 0.0000 1.0000
vn 0.0000 0.0000 -1.0000
vn -0.9739 0.2271 0.0000
vn -0.9739 0.2271 0.0000
vn 0.0000 0.0000 1.0000
vn 0.0000 0.0000 -1.0000
vn -0.9786 0.2058 0.0000
vn -0.9786 0.2058 0.0000
vn 0.0000 0.0000 1.0000
vn 0.0000 0.0000 -1.0000
vn -0.9829 0.1844 0.0000
vn -0.9829 0.1844 0.0000
vn 0.0000 0.0000 1.0000
vn 0.0000 0.0000 -1.0000
vn 0.0388 0.9992 0.0000
vn 0.0388 0.9992 -0.0000
vn 0.0000 0.0000 1.0000
vn 0.0000 0.0000 -1.0000
vn -0.9900 0.1413 0.0000
vn -0.9900 0.1413 0.0000
vn 0.0000 0.0000 1.0000
vn 0.0000 0.0000 -1.0000
vn -0.9928 0.1197 0.0000
vn -0.9928 0.1197 0.0000
vn 0.0000 0.0000 1.0000
vn 0.0000 0.0000 -1.0000
vn -0.2211 -0.9752 0.0000
vn -0.2211 -0.9752 0.0000
vn 0.0000 0.0000 1.0000
vn 0.0000 0.0000 -1.0000
vn -0.9971 0.0763 0.0000
vn -0.9971 0.0763 0.0000
vn 0.0000 0.0000 1.0000
vn 0.0000 0.0000 -1.0000
vn -0.9985 0.0545 0.0000
vn -0.9985 0.0545 0.0000
vn 0.0000 0.0000 1.0000
vn 0.0000 0.0000 -1.0000
vn -0.9995 0.0327 0.0000
vn -0.9995 0.0327 0.0000
vn 0.0000 0.0000 1.0000
vn 0.0000 0.0000 -1.0000
vn -0.1136 0.9935 0.0000
vn -0.1136 0.9935 0.0000
vn 0.0000 0.0000 1.0000
vn -0.0000 0.0000 -1.0000
vn -0.9999 -0.0109 0.0000
vn -0.9999 -0.0109 0.0000
vn 0.0000 0.0000 1.0000
vn 0.0000 0.0000 -1.0000
vn -0.9995 -0.0327 0.0000
vn -0.9995 -0.0327 0.0000
vn 0.0000 0.0000 1.0000
vn 0.0000 0.0000 -1.0000
vn -0.9985 -0.0545 0.0000
vn -0.9985 -0.0545 0.0000
vn 0.0000 0.0000 1.0000
vn 0.0000 0.0000 -1.0000
vn -0.0484 -0.9988 0.0000
vn -0.0484 -0.9988 0.0000
vn 0.0000 0.0000 1.0000
vn 0.0000 0.0000 -1.0000
vn -0.9952 -0.0980 0.0000
vn -0.9952 -0.0980 0.0000
vn 0.0000 0.0000 1.0000
vn 0.0000 0.0000 -1.0000
vn -0.9928 -0.1197 0.0000
vn -0.9928 -0.1197 0.0000
vn 0.0000 0.0000 1.0000
vn 0.0000 0.0000 -1.0000
vn -0.9900 -0.1413 0.0000
vn -0.9900 -0.1413 0.0000
vn 0.0000 0.0000 1.0000
vn 0.0000 0.0000 -1.0000
vn -0.2844 0.9587 0.0000
vn -0.2844 0.9587 0.0000
vn 0.0000 0.0000 1.0000
vn 0.0000 0.0000 -1.0000
vn -0.9829 -0.1844 0.0000
vn -0.9829 -0.1844 0.0000
vn 0.0000 0.0000 1.0000
vn 0.0000 0.0000 -1.0000
vn -0.9786 -0.2058 0.0000
vn -0.9786 -0.2058 0.0000
vn 0.0000 0.0000 1.0000
vn 0.0000 0.0000 -1.0000
vn -0.9739 -0.2271 0.0000
vn -0.9739 -0.2271 0.0000
vn 0.0000 0.0000 1.0000
vn 0.0000 0.0000 -1.0000
vn 0.1258 -0.9921 0.0000
vn 0.1258 -0.9921 0.0000
vn 0.0000 0.0000 1.0000
vn 0.0000 0.0000 -1.0000
vn -0.9630 -0.2693 0.0000
vn -0.9630 -0.2693 0.0000
vn 0.0000 0.0000 1.0000
vn 0.0000 0.0000 -1.0000
vn -0.9569 -0.2903 0.0000
vn -0.9569 -0.2903 0.0000
vn 0.0000 0.0000 1.0000
vn 0.0000 0.0000 -1.0000
vn -0.9504 -0.3111 0.0000
vn -0.9504 -0.3111 0.0000
vn 0.0000 0.0000 1.0000
vn 0.0000 0.0000 -1.0000
vn -0.4466 0.8947 0.0000
vn -0.4466 0.8947 0.0000
vn 0.0000 0.0000 1.0000
vn 0.0000 0.0000 -1.0000
vn -0.9359 -0.3523 0.0000
vn -0.9359 -0.3523 0.0000
vn 0.0000 0.0000 1.0000
vn 0.0000 0.0000 -1.0000
vn -0.9280 -0.3726 0.0000
vn -0.9280 -0.3726 0.0000
vn 0.0000 0.0000 1.0000
vn 0.0000 0.0000 -1.0000
vn -0.9197 -0.3927 0.0000
vn -0.9197 -0.3927 0.0000
vn 0.0000 0.0000 1.0000
vn 0.0000 0.0000 -1.0000
vn 0.2961 -0.9552 0.0000
vn 0.2961 -0.9552 0.0000
vn 0.0000 0.0000 1.0000
vn 0.0000 0.0000 -1.0000
vn -0.9016 -0.4325 0.0000
vn -0.9016 -0.4325 0.0000
vn 0.0000 0.0000 1.0000
vn 0.0000 0.0000 -1.0000
vn -0.8920 -0.4520 0.0000
vn -0.8920 -0.4520 0.0000
vn 0.0000 0.0000 1.0000
vn 0.0000 0.0000 -1.0000
vn -0.8819 -0.4714 0.0000
vn -0.8819 -0.4714 0.0000
vn 0.0000 0.0000 1.0000
vn 0.0000 0.0000 -1.0000
vn -0.5952 0.8036 0.0000
vn -0.5952 0.8036 0.0000
vn 0.0000 0.0000 1.0000
vn 0.0000 0.0000 -1.0000
vn -0.8605 -0.5094 0.0000
vn -0.8605 -0.5094 0.0000
vn 0.0000 0.0000 1.0000
vn 0.0000 0.0000 -1.0000
vn -0.8492 -0.5281 0.0000
vn -0.8492 -0.5281 0.0000
vn 0.0000 0.0000 1.0000
vn 0.0000 0.0000 -1.0000
vn -0.8375 -0.5465 0.0000
vn -0.8375 -0.5465 0.0000
vn 0.0000 0.0000 1.0000
vn 0.0000 0.0000 -1.0000
vn 0.4575 -0.8892 0.0000
vn 0.4575 -0.8892 0.0000
vn 0.0000 0.0000 1.0000
vn 0.0000 0.0000 -1.0000
vn -0.8128 -0.5825 0.0000
vn -0.8128 -0.5825 0.0000
vn 0.0000 0.0000 1.0000
vn 0.0000 0.0000 -1.0000
vn -0.7999 -0.6001 0.0000
vn -0.7999 -0.6001 0.0000
vn 0.0000 0.0000 1.0000
vn 0.0000 0.0000 -1.0000
vn -0.7867 -0.6174 0.0000
vn -0.7867 -0.6174 0.0000
vn 0.0000 0.0000 1.0000
vn 0.0000 0.0000 -1.0000
vn -0.7257 0.6880 0.0000
vn -0.7257 0.6880 0.0000
vn 0.0000 0.0000 1.0000
vn 0.0000 0.0000 -1.0000
vn -0.7590 -0.6511 0.0000
vn -0.7590 -0.6511 0.0000
vn 0.0000 0.0000 1.0000
vn 0.0000 0.0000 -1.0000
vn -0.7446 -0.6675 0.0000
vn -0.7446 -0.6675 0.0000
vn 0.0000 0.0000 1.0000
vn 0.0000 0.0000 -1.0000
vn -0.7299 -0.6836 0.0000
vn -0.7299 -0.6836 0.0000
vn 0.0000 0.0000 1.0000
vn 0.0000 0.0000 -1.0000
vn 0.6049 -0.7963 0.0000
vn 0.6049 -0.7963 0.0000
vn 0.0000 0.0000 1.0000
vn 0.0000 0.0000 -1.0000
vn -0.6994 -0.7148 0.0000
vn -0.6994 -0.7148 0.0000
vn 0.0000 0.0000 1.0000
vn 0.0000 0.0000 -1.0000
vn -0.6836 -0.7299 0.0000
vn -0.6836 -0.7299 0.0000
vn 0.0000 0.0000 1.0000
vn 0.0000 0.0000 -1.0000
vn -0.6675 -0.7446 0.0000
vn -0.6675 -0.7446 0.0000
vn 0.0000 0.0000 1.0000
vn 0.0000 0.0000 -1.0000
vn -0.6511 -0.7590 0.0000
vn -0.6511 -0.7590 0.0000
vn 0.0000 0.0000 1.0000
vn 0.0000 0.0000 -1.0000
vn -0.8460 0.5332 0.0000
vn -0.8460 0.5332 0.0000
vn 0.0000 0.0000 1.0000
vn 0.0000 0.0000 -1.0000
vn -0.6174 -0.7867 0.0000
vn -0.6174 -0.7867 0.0000
vn 0.0000 0.0000 1.0000
vn 0.0000 0.0000 -1.0000
vn -0.6001 -0.7999 0.0000
vn -0.6001 -0.7999 0.0000
vn 0.0000 0.0000 1.0000
vn 0.0000 0.0000 -1.0000
vn 0.7340 -0.6791 0.0000
vn 0.7340 -0.6791 0.0000
vn 0.0000 0.0000 1.0000
vn 0.0000 0.0000 -1.0000
vn -0.5646 -0.8254 0.0000
vn -0.5646 -0.8254 0.0000
vn 0.0000 0.0000 1.0000
vn 0.0000 0.0000 -1.0000
vn -0.5465 -0.8375 0.0000
vn -0.5465 -0.8375 0.0000
vn 0.0000 0.0000 1.0000
vn 0.0000 0.0000 -1.0000
vn -0.5281 -0.8492 0.0000
vn -0.5281 -0.8492 0.0000
vn 0.0000 0.0000 1.0000
vn 0.0000 0.0000 -1.0000
vn -0.5094 -0.8605 0.0000
vn -0.5094 -0.8605 0.0000
vn 0.0000 0.0000 1.0000
vn 0.0000 0.0000 -1.0000
vn -0.9257 0.3782 0.0000
vn -0.9257 0.3782 0.0000
vn 0.0000 0.0000 1.0000
vn 0.0000 0.0000 -1.0000
vn -0.4714 -0.8819 0.0000
vn -0.4714 -0.8819 0.0000
vn 0.0000 0.0000 1.0000
vn 0.0000 0.0000 -1.0000
vn -0.4520 -0.8920 0.0000
vn -0.4520 -0.8920 0.0000
vn 0.0000 0.0000 1.0000
vn 0.0000 0.0000 -1.0000
vn 0.8408 -0.5413 0.0000
vn 0.8408 -0.5413 0.0000
vn 0.0000 0.0000 1.0000
vn 0.0000 0.0000 -1.0000
vn -0.4127 -0.9109 0.0000
vn -0.4127 -0.9109 0.0000
vn 0.0000 0.0000 1.0000
vn 0.0000 0.0000 -1.0000
vn -0.3927 -0.9197 0.0000
vn -0.3927 -0.9197 0.0000
vn 0.0000 0.0000 1.0000
vn 0.0000 0.0000 -1.0000
vn -0.3726 -0.9280 0.0000
vn -0.3726 -0.9280 0.0000
vn 0.0000 0.0000 1.0000
vn 0.0000 0.0000 -1.0000
vn -0.3523 -0.9359 0.0000
vn -0.3523 -0.9359 0.0000
vn 0.0000 0.0000 1.0000
vn 0.0000 0.0000 -1.0000
vn -0.9773 0.2117 0.0000
vn -0.9773 0.2117 0.0000
vn 0.0000 0.0000 1.0000
vn 0.0000 0.0000 -1.0000
vn -0.3111 -0.9504 0.0000
vn -0.3111 -0.9504 0.0000
vn 0.0000 0.0000 1.0000
vn 0.0000 0.0000 -1.0000
vn -0.2903 -0.9569 0.0000
vn -0.2903 -0.9569 0.0000
vn 0.0000 0.0000 1.0000
vn 0.0000 0.0000 -1.0000
vn 0.9220 -0.3871 0.0000
vn 0.9220 -0.3871 0.0000
vn 0.0000 0.0000 1.0000
vn 0.0000 0.0000 -1.0000
vn -0.2483 -0.9687 0.0000
vn -0.2483 -0.9687 0.0000
vn 0.0000 0.0000 1.0000
vn 0.0000 0.0000 -1.0000
vn -0.2271 -0.9739 0.0000
vn -0.2271 -0.9739 0.0000
vn 0.0000 0.0000 1.0000
vn 0.0000 0.0000 -1.0000
vn -0.2058 -0.9786 0.0000
vn -0.2058 -0.9786 0.0000
vn 0.0000 0.0000 1.0000
vn 0.0000 0.0000 -1.0000
vn -0.9982 0.0606 0.0000
vn -0.9982 0.0606 0.0000
vn 0.0000 0.0000 1.0000
vn 0.0000 0.0000 -1.0000
vn -0.1629 -0.9866 0.0000
vn -0.1629 -0.9866 0.0000
vn 0.0000 0.0000 1.0000
vn 0.0000 0.0000 -1.0000
vn -0.1413 -0.9900 0.0000
vn -0.1413 -0.9900 0.0000
vn 0.0000 0.0000 1.0000
vn 0.0000 0.0000 -1.0000
vn -0.1197 -0.9928 0.0000
vn -0.1197 -0.9928 0.0000
vn 0.0000 0.0000 1.0000
vn 0.0000 0.0000 -1.0000
vn 0.9752 -0.2211 0.0000
vn 0.9752 -0.2211 0.0000
vn 0.0000 0.0000 1.0000
vn 0.0000 0.0000 -1.0000
vn -0.0763 -0.9971 0.0000
vn -0.0763 -0.9971 0.0000
vn 0.0000 0.0000 1.0000
vn 0.0000 0.0000 -1.0000
vn -0.0545 -0.9985 0.0000
vn -0.0545 -0.9985 0.0000
vn 0.0000 0.0000 1.0000
vn 0.0000 0.0000 -1.0000
vn -0.0327 -0.9995 0.0000
vn -0.0327 -0.9995 0.0000
vn 0.0000 0.0000 1.0000
vn 0.0000 0.0000 -1.0000
vn -0.9935 -0.1136 0.0000
vn -0.9935 -0.1136 0.0000
vn 0.0000 0.0000 1.0000
vn 0.0000 -0.0000 -1.0000
vn 0.0109 -0.9999 0.0000
vn 0.0109 -0.9999 0.0000
vn 0.0000 0.0000 1.0000
vn 0.0000 0.0000 -1.0000
vn 0.0327 -0.9995 0.0000
vn 0.0327 -0.9995 0.0000
vn 0.0000 0.0000 1.0000
vn 0.0000 0.0000 -1.0000
vn 0.0545 -0.9985 0.0000
vn 0.0545 -0.9985 0.0000
vn 0.0000 0.0000 1.0000
vn 0.0000 0.0000 -1.0000
vn 0.9988 -0.0484 0.0000
vn 0.9988 -0.0484 0.0000
vn 0.0000 0.0000 1.0000
vn 0.0000 0.0000 -1.0000
vn 0.0980 -0.9952 0.0000
vn 0.0980 -0.9952 0.0000
vn 0.0000 0.0000 1.0000
vn 0.0000 0.0000 -1.0000
vn 0.1197 -0.9928 0.0000
vn 0.1197 -0.9928 0.0000
vn 0.0000 0.0000 1.0000
vn 0.0000 0.0000 -1.0000
vn 0.1413 -0.9900 0.0000
vn 0.1413 -0.9900 0.0000
vn 0.0000 0.0000 1.0000
vn 0.0000 0.0000 -1.0000
vn 0.1629 -0.9866 0.0000
vn 0.1629 -0.9866 0.0000
vn 0.0000 0.0000 1.0000
vn 0.0000 0.0000 -1.0000
vn -0.9523 -0.3053 0.0000
vn -0.9523 -0.3053 0.0000
vn 0.0000 0.0000 1.0000
vn 0.0000 0.0000 -1.0000
vn 0.2058 -0.9786 0.0000
vn 0.2058 -0.9786 0.0000
vn 0.0000 0.0000 1.0000
vn 0.0000 0.0000 -1.0000
vn 0.2271 -0.9739 0.0000
vn 0.2271 -0.9739 0.0000
vn 0.0000 0.0000 1.0000
vn 0.0000 0.0000 -1.0000
vn 0.9921 0.1258 0.0000
vn 0.9921 0.1258 -0.0000
vn 0.0000 0.0000 1.0000
vn 0.0000 0.0000 -1.0000
vn 0.2693 -0.9630 0.0000
vn 0.2693 -0.9630 0.0000
vn 0.0000 0.0000 1.0000
vn 0.0000 0.0000 -1.0000
vn 0.2903 -0.9569 0.0000
vn 0.2903 -0.9569 0.0000
vn 0.0000 0.0000 1.0000
vn 0.0000 0.0000 -1.0000
vn 0.3111 -0.9504 0.0000
vn 0.3111 -0.9504 0.0000
vn 0.0000 0.0000 1.0000
vn 0.0000 0.0000 -1.0000
vn -0.8947 -0.4466 0.0000
vn -0.8947 -0.4466 0.0000
vn 0.0000 0.0000 1.0000
vn 0.0000 0.0000 -1.0000
vn 0.3523 -0.9359 0.0000
vn 0.3523 -0.9359 0.0000
vn 0.0000 0.0000 1.0000
vn 0.0000 0.0000 -1.0000
vn 0.3726 -0.9280 0.0000
vn 0.3726 -0.9280 0.0000
vn 0.0000 0.0000 1.0000
vn 0.0000 0.0000 -1.0000
vn 0.3927 -0.9197 0.0000
vn 0.3927 -0.9197 0.0000
vn 0.0000 0.0000 1.0000
vn 0.0000 0.0000 -1.0000
vn 0.9552 0.2961 0.0000
vn 0.9552 0.2961 -0.0000
vn 0.0000 0.0000 1.0000
vn 0.0000 0.0000 -1.0000
vn 0.4325 -0.9016 0.0000
vn 0.4325 -0.9016 0.0000
vn 0.0000 0.0000 1.0000
vn 0.0000 0.0000 -1.0000
vn 0.4520 -0.8920 0.0000
vn 0.4520 -0.8920 0.0000
vn 0.0000 0.0000 1.0000
vn 0.0000 0.0000 -1.0000
vn 0.4714 -0.8819 0.0000
vn 0.4714 -0.8819 0.0000
vn 0.0000 0.0000 1.0000
vn 0.0000 0.0000 -1.0000
vn -0.8036 -0.5952 0.0000
vn -0.8036 -0.5952 0.0000
vn 0.0000 0.0000 1.0000
vn 0.0000 0.0000 -1.0000
vn 0.5094 -0.8605 0.0000
vn 0.5094 -0.8605 0.0000
vn 0.0000 0.0000 1.0000
vn 0.0000 0.0000 -1.0000
vn 0.5281 -0.8492 0.0000
vn 0.5281 -0.8492 0.0000
vn 0.0000 0.0000 1.0000
vn 0.0000 0.0000 -1.0000
vn 0.5465 -0.8375 0.0000
vn 0.5465 -0.8375 0.0000
vn 0.0000 0.0000 1.0000
vn 0.0000 0.0000 -1.0000
vn 0.8892 0.4575 0.0000
vn 0.8892 0.4575 -0.0000
vn 0.0000 0.0000 1.0000
vn 0.0000 0.0000 -1.0000
vn 0.5825 -0.8128 0.0000
vn 0.5825 -0.8128 0.0000
vn 0.0000 0.0000 1.0000
vn 0.0000 0.0000 -1.0000
vn 0.6001 -0.7999 0.0000
vn 0.6001 -0.7999 0.0000
vn 0.0000 0.0000 1.0000
vn 0.0000 0.0000 -1.0000
vn 0.6174 -0.7867 0.0000
vn 0.6174 -0.7867 0.0000
vn 0.0000 0.0000 1.0000
vn 0.0000 0.0000 -1.0000
vn -0.6880 -0.7257 0.0000
vn -0.6880 -0.7257 0.0000
vn 0.0000 0.0000 1.0000
vn 0.0000 0.0000 -1.0000
vn 0.6511 -0.7590 0.0000
vn 0.6511 -0.7590 0.0000
vn 0.0000 0.0000 1.0000
vn 0.0000 0.0000 -1.0000
vn 0.6675 -0.7446 0.0000
vn 0.6675 -0.7446 0.0000
vn 0.0000 0.0000 1.0000
vn 0.0000 0.0000 -1.0000
vn 0.6836 -0.7299 0.0000
vn 0.6836 -0.7299 0.0000
vn 0.0000 0.0000 1.0000
vn 0.0000 0.0000 -1.0000
vn 0.7963 0.6049 0.0000
vn 0.7963 0.6049 -0.0000
vn 0.0000 0.0000 1.0000
vn 0.0000 0.0000 -1.0000
vn 0.7148 -0.6994 0.0000
vn 0.7148 -0.6994 0.0000
vn 0.0000 0.0000 1.0000
vn 0.0000 0.0000 -1.0000
vn 0.7299 -0.6836 0.0000
vn 0.7299 -0.6836 0.0000
vn 0.0000 0.0000 1.0000
vn 0.0000 0.0000 -1.0000
vn 0.7446 -0.6675 0.0000
vn 0.7446 -0.6675 0.0000
vn 0.0000 0.0000 1.0000
vn 0.0000 0.0000 -1.0000
vn -0.5516 -0.8341 0.0000
vn -0.5516 -0.8341 0.0000
vn 0.0000 0.0000 1.0000
vn 0.0000 0.0000 -1.0000
vn 0.7730 -0.6344 0.0000
vn 0.7730 -0.6344 0.0000
vn 0.0000 0.0000 1.0000
vn 0.0000 0.0000 -1.0000
vn 0.7867 -0.6174 0.0000
vn 0.7867 -0.6174 0.0000
vn 0.0000 0.0000 1.0000
vn 0.0000 0.0000 -1.0000
vn 0.7999 -0.6001 0.0000
vn 0.7999 -0.6001 0.0000
vn 0.0000 0.0000 1.0000
vn 0.0000 0.0000 -1.0000
vn 0.6791 0.7340 0.0000
vn 0.6791 0.7340 -0.0000
vn 0.0000 0.0000 1.0000
vn 0.0000 0.0000 -1.0000
vn 0.8254 -0.5646 0.0000
vn 0.8254 -0.5646 0.0000
vn 0.0000 0.0000 1.0000
vn 0.0000 0.0000 -1.0000
vn 0.8375 -0.5465 0.0000
vn 0.8375 -0.5465 0.0000
vn 0.0000 0.0000 1.0000
vn 0.0000 0.0000 -1.0000
vn 0.8492 -0.5281 0.0000
vn 0.8492 -0.5281 0.0000
vn 0.0000 0.0000 1.0000
vn 0.0000 0.0000 -1.0000
vn 0.8605 -0.5094 0.0000
vn 0.8605 -0.5094 0.0000
vn 0.0000 0.0000 1.0000
vn 0.0000 0.0000 -1.0000
vn -0.3782 -0.9257 0.0000
vn -0.3782 -0.9257 0.0000
vn 0.0000 0.0000 1.0000
vn 0.0000 0.0000 -1.0000
vn 0.8819 -0.4714 0.0000
vn 0.8819 -0.4714 0.0000
vn 0.0000 0.0000 1.0000
vn 0.0000 0.0000 -1.0000
vn 0.8920 -0.4520 0.0000
vn 0.8920 -0.4520 0.0000
vn 0.0000 0.0000 1.0000
vn 0.0000 0.0000 -1.0000
vn 0.5413 0.8408 0.0000
vn 0.5413 0.8408 -0.0000
vn 0.0000 0.0000 1.0000
vn 0.0000 0.0000 -1.0000
vn 0.9109 -0.4127 0.0000
vn 0.9109 -0.4127 0.0000
vn 0.0000 0.0000 1.0000
vn 0.0000 0.0000 -1.0000
vn 0.9197 -0.3927 0.0000
vn 0.9197 -0.3927 0.0000
vn 0.0000 0.0000 1.0000
vn 0.0000 0.0000 -1.0000
vn 0.9280 -0.3726 0.0000
vn 0.9280 -0.3726 0.0000
vn 0.0000 0.0000 1.0000
vn 0.0000 0.0000 -1.0000
vn 0.9359 -0.3523 0.0000
vn 0.9359 -0.3523 0.0000
vn 0.0000 0.0000 1.0000
vn 0.0000 0.0000 -1.0000
vn -0.2117 -0.9773 0.0000
vn -0.2117 -0.9773 0.0000
vn 0.0000 0.0000 1.0000
vn 0.0000 0.0000 -1.0000
vn 0.9504 -0.3111 0.0000
vn 0.9504 -0.3111 0.0000
vn 0.0000 0.0000 1.0000
vn 0.0000 0.0000 -1.0000
vn 0.9569 -0.2903 0.0000
vn 0.9569 -0.2903 0.0000
vn 0.0000 0.0000 1.0000
vn 0.0000 0.0000 -1.0000
vn 0.3871 0.9220 0.0000
vn 0.3871 0.9220 -0.0000
vn 0.0000 0.0000 1.0000
vn 0.0000 0.0000 -1.0000
vn 0.9687 -0.2483 0.0000
vn 0.9687 -0.2483 0.0000
vn 0.0000 0.0000 1.0000
vn 0.0000 0.0000 -1.0000
vn 0.9739 -0.2271 0.0000
vn 0.9739 -0.2271 0.0000
vn 0.0000 0.0000 1.0000
vn 0.0000 0.0000 -1.0000
vn 0.9786 -0.2058 0.0000
vn 0.9786 -0.2058 0.0000
vn 0.0000 0.0000 1.0000
vn 0.0000 0.0000 -1.0000
vn -0.0606 -0.9982 0.0000
vn -0.0606 -0.9982 0.0000
vn 0.0000 0.0000 1.0000
vn 0.0000 0.0000 -1.0000
vn 0.9866 -0.1629 0.0000
vn 0.9866 -0.1629 0.0000
vn 0.0000 0.0000 1.0000
vn 0.0000 0.0000 -1.0000
vn 0.9900 -0.1413 0.0000
vn 0.9900 -0.1413 0.0000
vn 0.0000 0.0000 1.0000
vn 0.0000 0.0000 -1.0000
vn 0.9928 -0.1197 0.0000
vn 0.9928 -0.1197 0.0000
vn 0.0000 0.0000 1.0000
vn 0.0000 0.0000 -1.0000
vn 0.2211 0.9752 0.0000
vn 0.2211 0.9752 -0.0000
vn 0.0000 0.0000 1.0000
vn 0.0000 0.0000 -1.0000
vn 0.9971 -0.0763 0.0000
vn 0.9971 -0.0763 0.0000
vn 0.0000 0.0000 1.0000
vn 0.0000 0.0000 -1.0000
vn 0.9985 -0.0545 0.0000
vn 0.9985 -0.0545 0.0000
vn 0.0000 0.0000 1.0000
vn 0.0000 0.0000 -1.0000
vn 0.9995 -0.0327 0.0000
vn 0.9995 -0.0327 0.0000
vn -0.0000 0.0000 1.0000
vn 0.0000 0.0000 -1.0000
vn 0.1136 -0.9935 0.0000
vn 0.1136 -0.9935 0.0000
vn 0.0000 0.0000 1.0000
vn 0.9914 0.1305 0.0000
vn 0.9914 0.1305 -0.0000
vn 0.0000 0.0000 1.0000
vn 0.9239 0.3827 0.0000
vn 0.9239 0.3827 -0.0000
vn 0.0000 0.0000 1.0000
vn 0.7934 0.6088 0.0000
vn 0.7934 0.6088 -0.0000
vn 0.0000 0.0000 1.0000
vn 0.6088 0.7934 0.0000
vn 0.6088 0.7934 -0.0000
vn 0.0000 0.0000 1.0000
vn 0.3827 0.9239 0.0000
vn 0.3827 0.9239 -0.0000
vn 0.0000 0.0000 1.0000
vn 0.1305 0.9914 0.0000
vn 0.1305 0.9914 -0.0000
vn 0.0000 -0.0000 1.0000
vn -0.1305 0.9914 0.0000
vn -0.1305 0.9914 0.0000
vn 0.0000 0.0000 1.0000
vn -0.3827 0.9239 0.0000
vn -0.3827 0.9239 0.0000
vn 0.0000 0.0000 1.0000
vn -0.6088 0.7934 0.0000
vn -0.6088 0.7934 0.0000
vn 0.0000 0.0000 1.0000
vn -0.7934 0.6088 0.0000
vn -0.7934 0.6088 0.0000
vn 0.0000 0.0000 1.0000
vn -0.9239 0.3827 0.0000
vn -0.9239 0.3827 0.0000
vn 0.0000 0.0000 1.0000
vn -0.9914 0.1305 0.0000
vn -0.9914 0.1305 0.0000
vn 0.0000 0.0000 1.0000
vn -0.9914 -0.1305 0.0000
vn -0.9914 -0.1305 0.0000
vn 0.0000 0.0000 1.0000
vn -0.9239 -0.3827 0.0000
vn -0.9239 -0.3827 0.0000
vn 0.0000 0.0000 1.0000
vn -0.7934 -0.6088 0.0000
vn -0.7934 -0.6088 0.0000
vn 0.0000 0.0000 1.0000
vn -0.6088 -0.7934 0.0000
vn -0.6088 -0.7934 0.0000
vn 0.0000 0.0000 1.0000
vn -0.3827 -0.9239 0.0000
vn -0.3827 -0.9239 0.0000
vn 0.0000 0.0000 1.0000
vn -0.1305 -0.9914 0.0000
vn -0.1305 -0.9914 0.0000
vn 0.0000 0.0000 1.0000
vn 0.1305 -0.9914 0.0000
vn 0.1305 -0.9914 0.0000
vn 0.0000 0.0000 1.0000
vn 0.3827 -0.9239 0.0000
vn 0.3827 -0.9239 0.0000
vn 0.0000 0.0000 1.0000
vn 0.6088 -0.7934 0.0000
vn 0.6088 -0.7934 0.0000
vn 0.0000 0.0000 1.0000
vn 0.7934 -0.6088 0.0000
vn 0.7934 -0.6088 0.0000
vn 0.0000 0.0000 1.0000
vn 0.9239 -0.3827 0.0000
vn 0.9239 -0.3827 0.0000
vn -0.0000 0.0000 1.0000
vn 0.9914 -0.1305 0.0000
vn 0.9914 -0.1305 0.0000
f 577//1 1//1 2//1
f 578//2 290//2 289//2
f 289//3 290//3 2//3
f 289//4 2//4 1//4
f 577//5 2//5 3//5
f 578//6 291//6 290//6
f 290//7 291//7 3//7
f 290//8 3//8 2//8
f 577//9 3//9 4//9
f 578//10 292//10 291//10
f 291//11 292//11 4//11
f 291//12 4//12 3//12
f 577//13 4//13 5//13
f 578//14 293//14 292//14
f 292//15 293//15 5//15
f 292//16 5//16 4//16
f 577//17 5//17 6//17
f 578//18 294//18 293//18
f 293//19 294//19 6//19
f 293//20 6//20 5//20
f 577//21 6//21 7//21
f 578//22 295//22 294//22
f 294//23 295//23 7//23
f 294//24 7//24 6//24
f 577//25 7//25 8//25
f 578//26 296//26 295//26
f 295//27 296//27 8//27
f 295//28 8//28 7//28
f 577//29 8//29 9//29
f 578//30 297//30 296//30
f 296//31 297//31 9//31
f 296//32 9//32 8//32
f 577//33 9//33 10//33
f 578//34 298//34 297//34
f 297//35 298//35 10//35
f 297//36 10//36 9//36
f 577//37 10//37 11//37
f 578//38 299//38 298//38
f 298//39 299//39 11//39
f 298//40 11//40 10//40
f 577//41 11//41 12//41
f 578//42 300//42 299//42
f 299//43 300//43 12//43
f 299//44 12//44 11//44
f 577//45 12//45 13//45
f 578//46 301//46 300//46
f 300//47 301//47 13//47
f 300//48 13//48 12//48
f 577//49 13//49 14//49
f 578//50 302//50 301//50
f 301//51 302//51 14//51
f 301//52 14//52 13//52
f 577//53 14//53 15//53
f 578//54 303//54 302//54
f 302//55 303//55 15//55
f 302//56 15//56 14//56
f 577//57 15//57 16//57
f 578//58 304//58 303//58
f 303//59 304//59 16//59
f 303//60 16//60 15//60
f 577//61 16//61 17//61
f 578//62 305//62 304//62
f 304//63 305//63 17//63
f 304//64 17//64 16//64
f 577//65 17//65 18//65
f 578//66 306//66 305//66
f 305//67 306//67 18//67
f 305//68 18//68 17//68
f 577//69 18//69 19//69
f 578//70 307//70 306//70
f 306//71 307//71 19//71
f 306//72 19//72 18//72
f 577//73 19//73 20//73
f 578//74 308//74 307//74
f 307//75 308//75 20//75
f 307//76 20//76 19//76
f 577//77 20//77 21//77
f 578//78 309//78 308//78
f 308//79 309//79 21//79
f 308//80 21//80 20//80
f 577//81 21//81 22//81
f 578//82 310//82 309//82
f 309//83 310//83 22//83
f 309//84 22//84 21//84
f 577//85 22//85 23//85
f 578//86 311//86 310//86
f 310//87 311//87 23//87
f 310//88 23//88 22//88
f 577//89 23//89 24//89
f 578//90 312//90 311//90
f 311//91 312//91 24//91
f 311//92 24//92 23//92
f 577//93 24//93 25//93
f 578//94 313//94 312//94
f 312//95 313//95 25//95
f 312//96 25//96 24//96
f 577//97 25//97 26//97
f 578//98 314//98 313//98
f 313//99 314//99 26//99
f 313//100 26//100 25//100
f 577//101 26//101 27//101
f 578//102 315//102 314//102
f 314//103 315//103 27//103
f 314//104 27//104 26//104
f 577//105 27//105 28//105
f 578//106 316//106 315//106
f 315//107 316//107 28//107
f 315//108 28//108 27//108
f 577//109 28//109 29//109
f 578//110 317//110 316//110
f 316//111 317//111 29//111
f 316//112 29//112 28//112
f 577//113 29//113 30//113
f 578//114 318//114 317//114
f 317//115 318//115 30//115
f 317//116 30//116 29//116
f 577//117 30//117 31//117
f 578//118 319//118 318//118
f 318//119 319//119 31//119
f 318//120 31//120 30//120
f 577//121 31//121 32//121
f 578//122 320//122 319//122
f 319//123 320//123 32//123
f 319//124 32//124 31//124
f 577//125 32//125 33//125
f 578//126 321//126 320//126
f 320//127 321//127 33//127
f 320//128 33//128 32//128
f 577//129 33//129 34//129
f 578//130 322//130 321//130
f 321//131 322//131 34//131
f 321//132 34//132 33//132
f 577//133 34//133 35//133
f 578//134 323//134 322//134
f 322//135 323//135 35//135
f 322//136 35//136 34//136
f 577//137 35//137 36//137
f 578//138 324//138 323//138
f 323//139 324//139 36//139
f 323//140 36//140 35//140
f 577//141 36//141 37//141
f 578//142 325//142 324//142
f 324//143 325//143 37//143
f 324//144 37//144 36//144
f 577//145 37//145 38//145
f 578//146 326//146 325//146
f 325//147 326//147 38//147
f 325//148 38//148 37//148
f 577//149 38//149 39//149
f 578//150 327//150 326//150
f 326//151 327//151 39//151
f 326//152 39//152 38//152
f 577//153 39//153 40//153
f 578//154 328//154 327//154
f 327//155 328//155 40//155
f 327//156 40//156 39//156
f 577//157 40//157 41//157
f 578//158 329//158 328//158
f 328//159 329//159 41//159
f 328//160 41//160 40//160
f 577//161 41//161 42//161
f 578//162 330//162 329//162
f 329//163 330//163 42//163
f 329//164 42//164 41//164
f 577//165 42//165 43//165
f 578//166 331//166 330//166
f 330//167 331//167 43//167
f 330//168 43//168 42//168
f 577//169 43//169 44//169
f 578//170 332//170 331//170
f 331//171 332//171 44//171
f 331//172 44//172 43//172
f 577//173 44//173 45//173
f 578//174 333//174 332//174
f 332//175 333//175 45//175
f 332//176 45//176 44//176
f 577//177 45//177 46//177
f 578//178 334//178 333//178
f 333//179 334//179 46//179
f 333//180 46//180 45//180
f 577//181 46//181 47//181
f 578//182 335//182 334//182
f 334//183 335//183 47//183
f 334//184 47//184 46//184
f 577//185 47//185 48//185
f 578//186 336//186 335//186
f 335//187 336//187 48//187
f 335//188 48//188 47//188
f 577//189 48//189 49//189
f 578//190 337//190 336//190
f 336//191 337//191 49//191
f 336//192 49//192 48//192
f 577//193 49//193 50//193
f 578//194 338//194 337//194
f 337//195 338//195 50//195
f 337//196 50//196 49//196
f 577//197 50//197 51//197
f 578//198 339//198 338//198
f 338//199 339//199 51//199
f 338//200 51//200 50//200
f 577//201 51//201 52//201
f 578//202 340//202 339//202
f 339//203 340//203 52//203
f 339//204 52//204 51//204
f 577//205 52//205 53//205
f 578//206 341//206 340//206
f 340//207 341//207 53//207
f 340//208 53//208 52//208
f 577//209 53//209 54//209
f 578//210 342//210 341//210
f 341//211 342//211 54//211
f 341//212 54//212 53//212
f 577//213 54//213 55//213
f 578//214 343//214 342//214
f 342//215 343//215 55//215
f 342//216 55//216 54//216
f 577//217 55//217 56//217
f 578//218 344//218 343//218
f 343//219 344//219 56//219
f 343//220 56//220 55//220
f 577//221 56//221 57//221
f 578//222 345//222 344//222
f 344//223 345//223 57//223
f 344//224 57//224 56//224
f 577//225 57//225 58//225
f 578//226 346//226 345//226
f 345//227 346//227 58//227
f 345//228 58//228 57//228
f 577//229 58//229 59//229
f 578//230 347//230 346//230
f 346//231 347//231 59//231
f 346//232 59//232 58//232
f 577//233 59//233 60//233
f 578//234 348//234 347//234
f 347//235 348//235 60//235
f 347//236 60//236 59//236
f 577//237 60//237 61//237
f 578//238 349//238 348//238
f 348//239 349//239 61//239
f 348//240 61//240 60//240
f 577//241 61//241 62//241
f 578//242 350//242 349//242
f 349//243 350//243 62//243
f 349//244 62//244 61//244
f 577//245 62//245 63//245
f 578//246 351//246 350//246
f 350//247 351//247 63//247
f 350//248 63//248 62//248
f 577//249 63//249 64//249
f 578//250 352//250 351//250
f 351//251 352//251 64//251
f 351//252 64//252 63//252
f 577//253 64//253 65//253
f 578//254 353//254 352//254
f 352//255 353//255 65//255
f 352//256 65//256 64//256
f 577//257 65//257 66//257
f 578//258 354//258 353//258
f 353//259 354//259 66//259
f 353//260 66//260 65//260
f 577//261 66//261 67//261
f 578//262 355//262 354//262
f 354//263 355//263 67//263
f 354//264 67//264 66//264
f 577//265 67//265 68//265
f 578//266 356//266 355//266
f 355//267 356//267 68//267
f 355//268 68//268 67//268
f 577//269 68//269 69//269
f 578//270 357//270 356//270
f 356//271 357//271 69//271
f 356//272 69//272 68//272
f 577//273 69//273 70//273
f 578//274 358//274 357//274
f 357//275 358//275 70//275
f 357//276 70//276 69//276
f 577//277 70//277 71//277
f 578//278 359//278 358//278
f 358//279 359//279 71//279
f 358//280 71//280 70//280
f 577//281 71//281 72//281
f 578//282 360//282 359//282
f 359//283 360//283 72//283
f 359//284 72//284 71//284
f 577//285 72//285 73//285
f 578//286 361//286 360//286
f 360//287 361//287 73//287
f 360//288 73//288 72//288
f 577//289 73//289 74//289
f 578//290 362//290 361//290
f 361//291 362//291 74//291
f 361//292 74//292 73//292
f 577//293 74//293 75//293
f 578//294 363//294 362//294
f 362//295 363//295 75//295
f 362//296 75//296 74//296
f 577//297 75//297 76//297
f 578//298 364//298 363//298
f 363//299 364//299 76//299
f 363//300 76//300 75//300
f 577//301 76//301 77//301
f 578//302 365//302 364//302
f 364//303 365//303 77//303
f 364//304 77//304 76//304
f 577//305 77//305 78//305
f 578//306 366//306 365//306
f 365//307 366//307 78//307
f 365//308 78//308 77//308
f 577//309 78//309 79//309
f 578//310 367//310 366//310
f 366//311 367//311 79//311
f 366//312 79//312 78//312
f 577//313 79//313 80//313
f 578//314 368//314 367//314
f 367//315 368//315 80//315
f 367//316 80//316 79//316
f 577//317 80//317 81//317
f 578//318 369//318 368//318
f 368//319 369//319 81//319
f 368//320 81//320 80//320
f 577//321 81//321 82//321
f 578//322 370//322 369//322
f 369//323 370//323 82//323
f 369//324 82//324 81//324
f 577//325 82//325 83//325
f 578//326 371//326 370//326
f 370//327 371//327 83//327
f 370//328 83//328 82//328
f 577//329 83//329 84//329
f 578//330 372//330 371//330
f 371//331 372//331 84//331
f 371//332 84//332 83//332
f 577//333 84//333 85//333
f 578//334 373//334 372//334
f 372//335 373//335 85//335
f 372//336 85//336 84//336
f 577//337 85//337 86//337
f 578//338 374//338 373//338
f 373//339 374//339 86//339
f 373//340 86//340 85//340
f 577//341 86//341 87//341
f 578//342 375//342 374//342
f 374//343 375//343 87//343
f 374//344 87//344 86//344
f 577//345 87//345 88//345
f 578//346 376//346 375//346
f 375//347 376//347 88//347
f 375//348 88//348 87//348
f 577//349 88//349 89//349
f 578//350 377//350 376//350
f 376//351 377//351 89//351
f 376//352 89//352 88//352
f 577//353 89//353 90//353
f 578//354 378//354 377//354
f 377//355 378//355 90//355
f 377//356 90//356 89//356
f 577//357 90//357 91//357
f 578//358 379//358 378//358
f 378//359 379//359 91//359
f 378//360 91//360 90//360
f 577//361 91//361 92//361
f 578//362 380//362 379//362
f 379//363 380//363 92//363
f 379//364 92//364 91//364
f 577//365 92//365 93//365
f 578//366 381//366 380//366
f 380//367 381//367 93//367
f 380//368 93//368 92//368
f 577//369 93//369 94//369
f 578//370 382//370 381//370
f 381//371 382//371 94//371
f 381//372 94//372 93//372
f 577//373 94//373 95//373
f 578//374 383//374 382//374
f 382//375 383//375 95//375
f 382//376 95//376 94//376
f 577//377 95//377 96//377
f 578//378 384//378 383//378
f 383//379 384//379 96//379
f 383//380 96//380 95//380
f 577//381 96//381 97//381
f 578//382 385//382 384//382
f 384//383 385//383 97//383
f 384//384 97//384 96//384
f 577//385 97//385 98//385
f 578//386 386//386 385//386
f 385//387 386//387 98//387
f 385//388 98//388 97//388
f 577//389 98//389 99//389
f 578//390 387//390 386//390
f 386//391 387//391 99//391
f 386//392 99//392 98//392
f 577//393 99//393 100//393
f 578//394 388//394 387//394
f 387//395 388//395 100//395
f 387//396 100//396 99//396
f 577//397 100//397 101//397
f 578//398 389//398 388//398
f 388//399 389//399 101//399
f 388//400 101//400 100//400
f 577//401 101//401 102//401
f 578//402 390//402 389//402
f 389//403 390//403 102//403
f 389//404 102//404 101//404
f 577//405 102//405 103//405
f 578//406 391//406 390//406
f 390//407 391//407 103//407
f 390//408 103//408 102//408
f 577//409 103//409 104//409
f 578//410 392//410 391//410
f 391//411 392//411 104//411
f 391//412 104//412 103//412
f 577//413 104//413 105//413
f 578//414 393//414 392//414
f 392//415 393//415 105//415
f 392//416 105//416 104//416
f 577//417 105//417 106//417
f 578//418 394//418 393//418
f 393//419 394//419 106//419
f 393//420 106//420 105//420
f 577//421 106//421 107//421
f 578//422 395//422 394//422
f 394//423 395//423 107//423
f 394//424 107//424 106//424
f 577//425 107//425 108//425
f 578//426 396//426 395//426
f 395//427 396//427 108//427
f 395//428 108//428 107//428
f 577//429 108//429 109//429
f 578//430 397//430 396//430
f 396//431 397//431 109//431
f 396//432 109//432 108//432
f 577//433 109//433 110//433
f 578//434 398//434 397//434
f 397//435 398//435 110//435
f 397//436 110//436 109//436
f 577//437 110//437 111//437
f 578//438 399//438 398//438
f 398//439 399//439 111//439
f 398//440 111//440 110//440
f 577//441 111//441 112//441
f 578//442 400//442 399//442
f 399//443 400//443 112//443
f 399//444 112//444 111//444
f 577//445 112//445 113//445
f 578//446 401//446 400//446
f 400//447 401//447 113//447
f 400//448 113//448 112//448
f 577//449 113//449 114//449
f 578//450 402//450 401//450
f 401//451 402//451 114//451
f 401//452 114//452 113//452
f 577//453 114//453 115//453
f 578//454 403//454 402//454
f 402//455 403//455 115//455
f 402//456 115//456 114//456
f 577//457 115//457 116//457
f 578//458 404//458 403//458
f 403//459 404//459 116//459
f 403//460 116//460 115//460
f 577//461 116//461 117//461
f 578//462 405//462 404//462
f 404//463 405//463 117//463
f 404//464 117//464 116//464
f 577//465 117//465 118//465
f 578//466 406//466 405//466
f 405//467 406//467 118//467
f 405//468 118//468 117//468
f 577//469 118//469 119//469
f 578//470 407//470 406//470
f 406//471 407//471 119//471
f 406//472 119//472 118//472
f 577//473 119//473 120//473
f 578//474 408//474 407//474
f 407//475 408//475 120//475
f 407//476 120//476 119//476
f 577//477 120//477 121//477
f 578//478 409//478 408//478
f 408//479 409//479 121//479
f 408//480 121//480 120//480
f 577//481 121//481 122//481
f 578//482 410//482 409//482
f 409//483 410//483 122//483
f 409//484 122//484 121//484
f 577//485 122//485 123//485
f 578//486 411//486 410//486
f 410//487 411//487 123//487
f 410//488 123//488 122//488
f 577//489 123//489 124//489
f 578//490 412//490 411//490
f 411//491 412//491 124//491
f 411//492 124//492 123//492
f 577//493 124//493 125//493
f 578//494 413//494 412//494
f 412//495 413//495 125//495
f 412//496 125//496 124//496
f 577//497 125//497 126//497
f 578//498 414//498 413//498
f 413//499 414//499 126//499
f 413//500 126//500 125//500
f 577//501 126//501 127//501
f 578//502 415//502 414//502
f 414//503 415//503 127//503
f 414//504 127//504 126//504
f 577//505 127//505 128//505
f 578//506 416//506 415//506
f 415//507 416//507 128//507
f 415//508 128//508 127//508
f 577//509 128//509 129//509
f 578//510 417//510 416//510
f 416//511 417//511 129//511
f 416//512 129//512 128//512
f 577//513 129//513 130//513
f 578//514 418//514 417//514
f 417//515 418//515 130//515
f 417//516 130//516 129//516
f 577//517 130//517 131//517
f 578//518 419//518 418//518
f 418//519 419//519 131//519
f 418//520 131//520 130//520
f 577//521 131//521 132//521
f 578//522 420//522 419//522
f 419//523 420//523 132//523
f 419//524 132//524 131//524
f 577//525 132//525 133//525
f 578//526 421//526 420//526
f 420//527 421//527 133//527
f 420//528 133//528 132//528
f 577//529 133//529 134//529
f 578//530 422//530 421//530
f 421//531 422//531 134//531
f 421//532 134//532 133//532
f 577//533 134//533 135//533
f 578//534 423//534 422//534
f 422//535 423//535 135//535
f 422//536 135//536 134//536
f 577//537 135//537 136//537
f 578//538 424//538 423//538
f 423//539 424//539 136//539
f 423//540 136//540 135//540
f 577//541 136//541 137//541
f 578//542 425//542 424//542
f 424//543 425//543 137//543
f 424//544 137//544 136//544
f 577//545 137//545 138//545
f 578//546 426//546 425//546
f 425//547 426//547 138//547
f 425//548 138//548 137//548
f 577//549 138//549 139//549
f 578//550 427//550 426//550
f 426//551 427//551 139//551
f 426//552 139//552 138//552
f 577//553 139//553 140//553
f 578//554 428//554 427//554
f 427//555 428//555 140//555
f 427//556 140//556 139//556
f 577//557 140//557 141//557
f 578//558 429//558 428//558
f 428//559 429//559 141//559
f 428//560 141//560 140//560
f 577//561 141//561 142//561
f 578//562 430//562 429//562
f 429//563 430//563 142//563
f 429//564 142//564 141//564
f 577//565 142//565 143//565
f 578//566 431//566 430//566
f 430//567 431//567 143//567
f 430//568 143//568 142//568
f 577//569 143//569 144//569
f 578//570 432//570 431//570
f 431//571 432//571 144//571
f 431//572 144//572 143//572
f 577//573 144//573 145//573
f 578//574 433//574 432//574
f 432//575 433//575 145//575
f 432//576 145//576 144//576
f 577//577 145//577 146//577
f 578//578 434//578 433//578
f 433//579 434//579 146//579
f 433//580 146//580 145//580
f 577//581 146//581 147//581
f 578//582 435//582 434//582
f 434//583 435//583 147//583
f 434//584 147//584 146//584
f 577//585 147//585 148//585
f 578//586 436//586 435//586
f 435//587 436//587 148//587
f 435//588 148//588 147//588
f 577//589 148//589 149//589
f 578//590 437//590 436//590
f 436//591 437//591 149//591
f 436//592 149//592 148//592
f 577//593 149//593 150//593
f 578//594 438//594 437//594
f 437//595 438//595 150//595
f 437//596 150//596 149//596
f 577//597 150//597 151//597
f 578//598 439//598 438//598
f 438//599 439//599 151//599
f 438//600 151//600 150//600
f 577//601 151//601 152//601
f 578//602 440//602 439//602
f 439//603 440//603 152//603
f 439//604 152//604 151//604
f 577//605 152//605 153//605
f 578//606 441//606 440//606
f 440//607 441//607 153//607
f 440//608 153//608 152//608
f 577//609 153//609 154//609
f 578//610 442//610 441//610
f 441//611 442//611 154//611
f 441//612 154//612 153//612
f 577//613 154//613 155//613
f 578//614 443//614 442//614
f 442//615 443//615 155//615
f 442//616 155//616 154//616
f 577//617 155//617 156//617
f 578//618 444//618 443//618
f 443//619 444//619 156//619
f 443//620 156//620 155//620
f 577//621 156//621 157//621
f 578//622 445//622 444//622
f 444//623 445//623 157//623
f 444//624 157//624 156//624
f 577//625 157//625 158//625
f 578//626 446//626 445//626
f 445//627 446//627 158//627
f 445//628 158//628 157//628
f 577//629 158//629 159//629
f 578//630 447//630 446//630
f 446//631 447//631 159//631
f 446//632 159//632 158//632
f 577//633 159//633 160//633
f 578//634 448//634 447//634
f 447//635 448//635 160//635
f 447//636 160//636 159//636
f 577//637 160//637 161//637
f 578//638 449//638 448//638
f 448//639 449//639 161//639
f 448//640 161//640 160//640
f 577//641 161//641 162//641
f 578//642 450//642 449//642
f 449//643 450//643 162//643
f 449//644 162//644 161//644
f 577//645 162//645 163//645
f 578//646 451//646 450//646
f 450//647 451//647 163//647
f 450//648 163//648 162//648
f 577//649 163//649 164//649
f 578//650 452//650 451//650
f 451//651 452//651 164//651
f 451//652 164//652 163//652
f 577//653 164//653 165//653
f 578//654 453//654 452//654
f 452//655 453//655 165//655
f 452//656 165//656 164//656
f 577//657 165//657 166//657
f 578//658 454//658 453//658
f 453//659 454//659 166//659
f 453//660 166//660 165//660
f 577//661 166//661 167//661
f 578//662 455//662 454//662
f 454//663 455//663 167//663
f 454//664 167//664 166//664
f 577//665 167//665 168//665
f 578//666 456//666 455//666
f 455//667 456//667 168//667
f 455//668 168//668 167//668
f 577//669 168//669 169//669
f 578//670 457//670 456//670
f 456//671 457//671 169//671
f 456//672 169//672 168//672
f 577//673 169//673 170//673
f 578//674 458//674 457//674
f 457//675 458//675 170//675
f 457//676 170//676 169//676
f 577//677 170//677 171//677
f 578//678 459//678 458//678
f 458//679 459//679 171//679
f 458//680 171//680 170//680
f 577//681 171//681 172//681
f 578//682 460//682 459//682
f 459//683 460//683 172//683
f 459//684 172//684 171//684
f 577//685 172//685 173//685
f 578//686 461//686 460//686
f 460//687 461//687 173//687
f 460//688 173//688 172//688
f 577//689 173//689 174//689
f 578//690 462//690 461//690
f 461//691 462//691 174//691
f 461//692 174//692 173//692
f 577//693 174//693 175//693
f 578//694 463//694 462//694
f 462//695 463//695 175//695
f 462//696 175//696 174//696
f 577//697 175//697 176//697
f 578//698 464//698 463//698
f 463//699 464//699 176//699
f 463//700 176//700 175//700
f 577//701 176//701 177//701
f 578//702 465//702 464//702
f 464//703 465//703 177//703
f 464//704 177//704 176//704
f 577//705 177//705 178//705
f 578//706 466//706 465//706
f 465//707 466//707 178//707
f 465//708 178//708 177//708
f 577//709 178//709 179//709
f 578//710 467//710 466//710
f 466//711 467//711 179//711
f 466//712 179//712 178//712
f 577//713 179//713 180//713
f 578//714 468//714 467//714
f 467//715 468//715 180//715
f 467//716 180//716 179//716
f 577//717 180//717 181//717
f 578//718 469//718 468//718
f 468//719 469//719 181//719
f 468//720 181//720 180//720
f 577//721 181//721 182//721
f 578//722 470//722 469//722
f 469//723 470//723 182//723
f 469//724 182//724 181//724
f 577//725 182//725 183//725
f 578//726 471//726 470//726
f 470//727 471//727 183//727
f 470//728 183//728 182//728
f 577//729 183//729 184//729
f 578//730 472//730 471//730
f 471//731 472//731 184//731
f 471//732 184//732 183//732
f 577//733 184//733 185//733
f 578//734 473//734 472//734
f 472//735 473//735 185//735
f 472//736 185//736 184//736
f 577//737 185//737 186//737
f 578//738 474//738 473//738
f 473//739 474//739 186//739
f 473//740 186//740 185//740
f 577//741 186//741 187//741
f 578//742 475//742 474//742
f 474//743 475//743 187//743
f 474//744 187//744 186//744
f 577//745 187//745 188//745
f 578//746 476//746 475//746
f 475//747 476//747 188//747
f 475//748 188//748 187//748
f 577//749 188//749 189//749
f 578//750 477//750 476//750
f 476//751 477//751 189//751
f 476//752 189//752 188//752
f 577//753 189//753 190//753
f 578//754 478//754 477//754
f 477//755 478//755 190//755
f 477//756 190//756 189//756
f 577//757 190//757 191//757
f 578//758 479//758 478//758
f 478//759 479//759 191//759
f 478//760 191//760 190//760
f 577//761 191//761 192//761
f 578//762 480//762 479//762
f 479//763 480//763 192//763
f 479//764 192//764 191//764
f 577//765 192//765 193//765
f 578//766 481//766 480//766
f 480//767 481//767 193//767
f 480//768 193//768 192//768
f 577//769 193//769 194//769
f 578//770 482//770 481//770
f 481//771 482//771 194//771
f 481//772 194//772 193//772
f 577//773 194//773 195//773
f 578//774 483//774 482//774
f 482//775 483//775 195//775
f 482//776 195//776 194//776
f 577//777 195//777 196//777
f 578//778 484//778 483//778
f 483//779 484//779 196//779
f 483//780 196//780 195//780
f 577//781 196//781 197//781
f 578//782 485//782 484//782
f 484//783 485//783 197//783
f 484//784 197//784 196//784
f 577//785 197//785 198//785
f 578//786 486//786 485//786
f 485//787 486//787 198//787
f 485//788 198//788 197//788
f 577//789 198//789 199//789
f 578//790 487//790 486//790
f 486//791 487//791 199//791
f 486//792 199//792 198//792
f 577//793 199//793 200//793
f 578//794 488//794 487//794
f 487//795 488//795 200//795
f 487//796 200//796 199//796
f 577//797 200//797 201//797
f 578//798 489//798 488//798
f 488//799 489//799 201//799
f 488//800 201//800 200//800
f 577//801 201//801 202//801
f 578//802 490//802 489//802
f 489//803 490//803 202//803
f 489//804 202//804 201//804
f 577//805 202//805 203//805
f 578//806 491//806 490//806
f 490//807 491//807 203//807
f 490//808 203//808 202//808
f 577//809 203//809 204//809
f 578//810 492//810 491//810
f 491//811 492//811 204//811
f 491//812 204//812 203//812
f 577//813 204//813 205//813
f 578//814 493//814 492//814
f 492//815 493//815 205//815
f 492//816 205//816 204//816
f 577//817 205//817 206//817
f 578//818 494//818 493//818
f 493//819 494//819 206//819
f 493//820 206//820 205//820
f 577//821 206//821 207//821
f 578//822 495//822 494//822
f 494//823 495//823 207//823
f 494//824 207//824 206//824
f 577//825 207//825 208//825
f 578//826 496//826 495//826
f 495//827 496//827 208//827
f 495//828 208//828 207//828
f 577//829 208//829 209//829
f 578//830 497//830 496//830
f 496//831 497//831 209//831
f 496//832 209//832 208//832
f 577//833 209//833 210//833
f 578//834 498//834 497//834
f 497//835 498//835 210//835
f 497//836 210//836 209//836
f 577//837 210//837 211//837
f 578//838 499//838 498//838
f 498//839 499//839 211//839
f 498//840 211//840 210//840
f 577//841 211//841 212//841
f 578//842 500//842 499//842
f 499//843 500//843 212//843
f 499//844 212//844 211//844
f 577//845 212//845 213//845
f 578//846 501//846 500//846
f 500//847 501//847 213//847
f 500//848 213//848 212//848
f 577//849 213//849 214//849
f 578//850 502//850 501//850
f 501//851 502//851 214//851
f 501//852 214//852 213//852
f 577//853 214//853 215//853
f 578//854 503//854 502//854
f 502//855 503//855 215//855
f 502//856 215//856 214//856
f 577//857 215//857 216//857
f 578//858 504//858 503//858
f 503//859 504//859 216//859
f 503//860 216//860 215//860
f 577//861 216//861 217//861
f 578//862 505//862 504//862
f 504//863 505//863 217//863
f 504//864 217//864 216//864
f 577//865 217//865 218//865
f 578//866 506//866 505//866
f 505//867 506//867 218//867
f 505//868 218//868 217//868
f 577//869 218//869 219//869
f 578//870 507//870 506//870
f 506//871 507//871 219//871
f 506//872 219//872 218//872
f 577//873 219//873 220//873
f 578//874 508//874 507//874
f 507//875 508//875 220//875
f 507//876 220//876 219//876
f 577//877 220//877 221//877
f 578//878 509//878 508//878
f 508//879 509//879 221//879
f 508//880 221//880 220//880
f 577//881 221//881 222//881
f 578//882 510//882 509//882
f 509//883 510//883 222//883
f 509//884 222//884 221//884
f 577//885 222//885 223//885
f 578//886 511//886 510//886
f 510//887 511//887 223//887
f 510//888 223//888 222//888
f 577//889 223//889 224//889
f 578//890 512//890 511//890
f 511//891 512//891 224//891
f 511//892 224//892 223//892
f 577//893 224//893 225//893
f 578//894 513//894 512//894
f 512//895 513//895 225//895
f 512//896 225//896 224//896
f 577//897 225//897 226//897
f 578//898 514//898 513//898
f 513//899 514//899 226//899
f 513//900 226//900 225//900
f 577//901 226//901 227//901
f 578//902 515//902 514//902
f 514//903 515//903 227//903
f 514//904 227//904 226//904
f 577//905 227//905 228//905
f 578//906 516//906 515//906
f 515//907 516//907 228//907
f 515//908 228//908 227//908
f 577//909 228//909 229//909
f 578//910 517//910 516//910
f 516//911 517//911 229//911
f 516//912 229//912 228//912
f 577//913 229//913 230//913
f 578//914 518//914 517//914
f 517//915 518//915 230//915
f 517//916 230//916 229//916
f 577//917 230//917 231//917
f 578//918 519//918 518//918
f 518//919 519//919 231//919
f 518//920 231//920 230//920
f 577//921 231//921 232//921
f 578//922 520//922 519//922
f 519//923 520//923 232//923
f 519//924 232//924 231//924
f 577//925 232//925 233//925
f 578//926 521//926 520//926
f 520//927 521//927 233//927
f 520//928 233//928 232//928
f 577//929 233//929 234//929
f 578//930 522//930 521//930
f 521//931 522//931 234//931
f 521//932 234//932 233//932
f 577//933 234//933 235//933
f 578//934 523//934 522//934
f 522//935 523//935 235//935
f 522//936 235//936 234//936
f 577//937 235//937 236//937
f 578//938 524//938 523//938
f 523//939 524//939 236//939
f 523//940 236//940 235//940
f 577//941 236//941 237//941
f 578//942 525//942 524//942
f 524//943 525//943 237//943
f 524//944 237//944 236//944
f 577//945 237//945 238//945
f 578//946 526//946 525//946
f 525//947 526//947 238//947
f 525//948 238//948 237//948
f 577//949 238//949 239//949
f 578//950 527//950 526//950
f 526//951 527//951 239//951
f 526//952 239//952 238//952
f 577//953 239//953 240//953
f 578//954 528//954 527//954
f 527//955 528//955 240//955
f 527//956 240//956 239//956
f 577//957 240//957 241//957
f 578//958 529//958 528//958
f 528//959 529//959 241//959
f 528//960 241//960 240//960
f 577//961 241//961 242//961
f 578//962 530//962 529//962
f 529//963 530//963 242//963
f 529//964 242//964 241//964
f 577//965 242//965 243//965
f 578//966 531//966 530//966
f 530//967 531//967 243//967
f 530//968 243//968 242//968
f 577//969 243//969 244//969
f 578//970 532//970 531//970
f 531//971 532//971 244//971
f 531//972 244//972 243//972
f 577//973 244//973 245//973
f 578//974 533//974 532//974
f 532//975 533//975 245//975
f 532//976 245//976 244//976
f 577//977 245//977 246//977
f 578//978 534//978 533//978
f 533//979 534//979 246//979
f 533//980 246//980 245//980
f 577//981 246//981 247//981
f 578//982 535//982 534//982
f 534//983 535//983 247//983
f 534//984 247//984 246//984
f 577//985 247//985 248//985
f 578//986 536//986 535//986
f 535//987 536//987 248//987
f 535//988 248//988 247//988
f 577//989 248//989 249//989
f 578//990 537//990 536//990
f 536//991 537//991 249//991
f 536//992 249//992 248//992
f 577//993 249//993 250//993
f 578//994 538//994 537//994
f 537//995 538//995 250//995
f 537//996 250//996 249//996
f 577//997 250//997 251//997
f 578//998 539//998 538//998
f 538//999 539//999 251//999
f 538//1000 251//1000 250//1000
f 577//1001 251//1001 252//1001
f 578//1002 540//1002 539//1002
f 539//1003 540//1003 252//1003
f 539//1004 252//1004 251//1004
f 577//1005 252//1005 253//1005
f 578//1006 541//1006 540//1006
f 540//1007 541//1007 253//1007
f 540//1008 253//1008 252//1008
f 577//1009 253//1009 254//1009
f 578//1010 542//1010 541//1010
f 541//1011 542//1011 254//1011
f 541//1012 254//1012 253//1012
f 577//1013 254//1013 255//1013
f 578//1014 543//1014 542//1014
f 542//1015 543//1015 255//1015
f 542//1016 255//1016 254//1016
f 577//1017 255//1017 256//1017
f 578//1018 544//1018 543//1018
f 543//1019 544//1019 256//1019
f 543//1020 256//1020 255//1020
f 577//1021 256//1021 257//1021
f 578//1022 545//1022 544//1022
f 544//1023 545//1023 257//1023
f 544//1024 257//1024 256//1024
f 577//1025 257//1025 258//1025
f 578//1026 546//1026 545//1026
f 545//1027 546//1027 258//1027
f 545//1028 258//1028 257//1028
f 577//1029 258//1029 259//1029
f 578//1030 547//1030 546//1030
f 546//1031 547//1031 259//1031
f 546//1032 259//1032 258//1032
f 577//1033 259//1033 260//1033
f 578//1034 548//1034 547//1034
f 547//1035 548//1035 260//1035
f 547//1036 260//1036 259//1036
f 577//1037 260//1037 261//1037
f 578//1038 549//1038 548//1038
f 548//1039 549//1039 261//1039
f 548//1040 261//1040 260//1040
f 577//1041 261//1041 262//1041
f 578//1042 550//1042 549//1042
f 549//1043 550//1043 262//1043
f 549//1044 262//1044 261//1044
f 577//1045 262//1045 263//1045
f 578//1046 551//1046 550//1046
f 550//1047 551//1047 263//1047
f 550//1048 263//1048 262//1048
f 577//1049 263//1049 264//1049
f 578//1050 552//1050 551//1050
f 551//1051 552//1051 264//1051
f 551//1052 264//1052 263//1052
f 577//1053 264//1053 265//1053
f 578//1054 553//1054 552//1054
f 552//1055 553//1055 265//1055
f 552//1056 265//1056 264//1056
f 577//1057 265//1057 266//1057
f 578//1058 554//1058 553//1058
f 553//1059 554//1059 266//1059
f 553//1060 266//1060 265//1060
f 577//1061 266//1061 267//1061
f 578//1062 555//1062 554//1062
f 554//1063 555//1063 267//1063
f 554//1064 267//1064 266//1064
f 577//1065 267//1065 268//1065
f 578//1066 556//1066 555//1066
f 555//1067 556//1067 268//1067
f 555//1068 268//1068 267//1068
f 577//1069 268//1069 269//1069
f 578//1070 557//1070 556//1070
f 556//1071 557//1071 269//1071
f 556//1072 269//1072 268//1072
f 577//1073 269//1073 270//1073
f 578//1074 558//1074 557//1074
f 557//1075 558//1075 270//1075
f 557//1076 270//1076 269//1076
f 577//1077 270//1077 271//1077
f 578//1078 559//1078 558//1078
f 558//1079 559//1079 271//1079
f 558//1080 271//1080 270//1080
f 577//1081 271//1081 272//1081
f 578//1082 560//1082 559//1082
f 559//1083 560//1083 272//1083
f 559//1084 272//1084 271//1084
f 577//1085 272//1085 273//1085
f 578//1086 561//1086 560//1086
f 560//1087 561//1087 273//1087
f 560//1088 273//1088 272//1088
f 577//1089 273//1089 274//1089
f 578//1090 562//1090 561//1090
f 561//1091 562//1091 274//1091
f 561//1092 274//1092 273//1092
f 577//1093 274//1093 275//1093
f 578//1094 563//1094 562//1094
f 562//1095 563//1095 275//1095
f 562//1096 275//1096 274//1096
f 577//1097 275//1097 276//1097
f 578//1098 564//1098 563//1098
f 563//1099 564//1099 276//1099
f 563//1100 276//1100 275//1100
f 577//1101 276//1101 277//1101
f 578//1102 565//1102 564//1102
f 564//1103 565//1103 277//1103
f 564//1104 277//1104 276//1104
f 577//1105 277//1105 278//1105
f 578//1106 566//1106 565//1106
f 565//1107 566//1107 278//1107
f 565//1108 278//1108 277//1108
f 577//1109 278//1109 279//1109
f 578//1110 567//1110 566//1110
f 566//1111 567//1111 279//1111
f 566//1112 279//1112 278//1112
f 577//1113 279//1113 280//1113
f 578//1114 568//1114 567//1114
f 567//1115 568//1115 280//1115
f 567//1116 280//1116 279//1116
f 577//1117 280//1117 281//1117
f 578//1118 569//1118 568//1118
f 568//1119 569//1119 281//1119
f 568//1120 281//1120 280//1120
f 577//1121 281//1121 282//1121
f 578//1122 570//1122 569//1122
f 569//1123 570//1123 282//1123
f 569//1124 282//1124 281//1124
f 577//1125 282//1125 283//1125
f 578//1126 571//1126 570//1126
f 570//1127 571//1127 283//1127
f 570//1128 283//1128 282//1128
f 577//1129 283//1129 284//1129
f 578//1130 572//1130 571//1130
f 571//1131 572//1131 284//1131
f 571//1132 284//1132 283//1132
f 577//1133 284//1133 285//1133
f 578//1134 573//1134 572//1134
f 572//1135 573//1135 285//1135
f 572//1136 285//1136 284//1136
f 577//1137 285//1137 286//1137
f 578//1138 574//1138 573//1138
f 573//1139 574//1139 286//1139
f 573//1140 286//1140 285//1140
f 577//1141 286//1141 287//1141
f 578//1142 575//1142 574//1142
f 574//1143 575//1143 287//1143
f 574//1144 287//1144 286//1144
f 577//1145 287//1145 288//1145
f 578//1146 576//1146 575//1146
f 575//1147 576//1147 288//1147
f 575//1148 288//1148 287//1148
f 577//1149 288//1149 1//1149
f 578//1150 289//1150 576//1150
f 576//1151 289//1151 1//1151
f 576//1152 1//1152 288//1152
f 627//1153 579//1153 580//1153
f 603//1154 604//1154 580//1154
f 603//1155 580//1155 579//1155
f 627//1156 580//1156 581//1156
f 604//1157 605//1157 581//1157
f 604//1158 581//1158 580//1158
f 627//1159 581//1159 582//1159
f 605//1160 606//1160 582//1160
f 605//1161 582//1161 581//1161
f 627//1162 582//1162 583//1162
f 606//1163 607//1163 583//1163
f 606//1164 583//1164 582//1164
f 627//1165 583//1165 584//1165
f 607//1166 608//1166 584//1166
f 607//1167 584//1167 583//1167
f 627//1168 584//1168 585//1168
f 608//1169 609//1169 585//1169
f 608//1170 585//1170 584//1170
f 627//1171 585//1171 586//1171
f 609//1172 610//1172 586//1172
f 609//1173 586//1173 585//1173
f 627//1174 586//1174 587//1174
f 610//1175 611//1175 587//1175
f 610//1176 587//1176 586//1176
f 627//1177 587//1177 588//1177
f 611//1178 612//1178 588//1178
f 611//1179 588//1179 587//1179
f 627//1180 588//1180 589//1180
f 612//1181 613//1181 589//1181
f 612//1182 589//1182 588//1182
f 627//1183 589//1183 590//1183
f 613//1184 614//1184 590//1184
f 613//1185 590//1185 589//1185
f 627//1186 590//1186 591//1186
f 614//1187 615//1187 591//1187
f 614//1188 591//1188 590//1188
f 627//1189 591//1189 592//1189
f 615//1190 616//1190 592//1190
f 615//1191 592//1191 591//1191
f 627//1192 592//1192 593//1192
f 616//1193 617//1193 593//1193
f 616//1194 593//1194 592//1194
f 627//1195 593//1195 594//1195
f 617//1196 618//1196 594//1196
f 617//1197 594//1197 593//1197
f 627//1198 594//1198 595//1198
f 618//1199 619//1199 595//1199
f 618//1200 595//1200 594//1200
f 627//1201 595//1201 596//1201
f 619//1202 620//1202 596//1202
f 619//1203 596//1203 595//1203
f 627//1204 596//1204 597//1204
f 620//1205 621//1205 597//1205
f 620//1206 597//1206 596//1206
f 627//1207 597//1207 598//1207
f 621//1208 622//1208 598//1208
f 621//1209 598//1209 597//1209
f 627//1210 598//1210 599//1210
f 622//1211 623//1211 599//1211
f 622//1212 599//1212 598//1212
f 627//1213 599//1213 600//1213
f 623//1214 624//1214 600//1214
f 623//1215 600//1215 599//1215
f 627//1216 600//1216 601//1216
f 624//1217 625//1217 601//1217
f 624//1218 601//1218 600//1218
f 627//1219 601//1219 602//1219
f 625//1220 626//1220 602//1220
f 625//1221 602//1221 601//1221
f 627//1222 602//1222 579//1222
f 626//1223 603//1223 579//1223
f 626//1224 579//1224 602//1224
